G75*
G70*
%OFA0B0*%
%FSLAX24Y24*%
%IPPOS*%
%LPD*%
%AMOC8*
5,1,8,0,0,1.08239X$1,22.5*
%
%ADD10C,0.0000*%
%ADD11C,0.0080*%
%ADD12C,0.0100*%
%ADD13R,0.0003X0.0050*%
%ADD14R,0.0003X0.0077*%
%ADD15R,0.0003X0.0095*%
%ADD16R,0.0003X0.0105*%
%ADD17R,0.0003X0.0115*%
%ADD18R,0.0003X0.0123*%
%ADD19R,0.0003X0.0130*%
%ADD20R,0.0003X0.0135*%
%ADD21R,0.0003X0.0140*%
%ADD22R,0.0003X0.0022*%
%ADD23R,0.0003X0.0025*%
%ADD24R,0.0003X0.0145*%
%ADD25R,0.0003X0.0043*%
%ADD26R,0.0003X0.0003*%
%ADD27R,0.0003X0.0147*%
%ADD28R,0.0003X0.0047*%
%ADD29R,0.0003X0.0035*%
%ADD30R,0.0003X0.0152*%
%ADD31R,0.0003X0.0045*%
%ADD32R,0.0003X0.0155*%
%ADD33R,0.0003X0.0055*%
%ADD34R,0.0003X0.0053*%
%ADD35R,0.0003X0.0088*%
%ADD36R,0.0003X0.0065*%
%ADD37R,0.0003X0.0075*%
%ADD38R,0.0003X0.0070*%
%ADD39R,0.0003X0.0073*%
%ADD40R,0.0003X0.0063*%
%ADD41R,0.0003X0.0060*%
%ADD42R,0.0003X0.0080*%
%ADD43R,0.0003X0.0057*%
%ADD44R,0.0003X0.0083*%
%ADD45R,0.0003X0.0085*%
%ADD46R,0.0003X0.0015*%
%ADD47R,0.0003X0.0040*%
%ADD48R,0.0003X0.0037*%
%ADD49R,0.0003X0.0032*%
%ADD50R,0.0003X0.0018*%
%ADD51R,0.0003X0.0010*%
%ADD52R,0.0003X0.0005*%
%ADD53R,0.0003X0.0008*%
%ADD54R,0.0003X0.0013*%
%ADD55R,0.0003X0.0020*%
%ADD56R,0.0003X0.0030*%
%ADD57R,0.0003X0.0067*%
%ADD58R,0.0003X0.0027*%
%ADD59R,0.0003X0.0125*%
%ADD60R,0.0003X0.0092*%
%ADD61R,0.0003X0.0127*%
%ADD62R,0.0003X0.0097*%
%ADD63R,0.0003X0.0103*%
%ADD64R,0.0003X0.0100*%
%ADD65R,0.0003X0.0090*%
%ADD66R,0.0003X0.0132*%
%ADD67R,0.0003X0.0120*%
%ADD68R,0.0003X0.0107*%
%ADD69R,0.0003X0.0138*%
%ADD70R,0.0003X0.0112*%
%ADD71R,0.0003X0.0110*%
%ADD72R,0.0003X0.0118*%
%ADD73R,0.0003X0.0150*%
%ADD74R,0.0003X0.0143*%
%ADD75R,0.0003X0.0160*%
%ADD76R,0.0003X0.0165*%
%ADD77R,0.0003X0.0158*%
%ADD78R,0.0003X0.0168*%
%ADD79R,0.0003X0.0163*%
%ADD80R,0.0003X0.0170*%
%ADD81R,0.0003X0.0173*%
%ADD82R,0.0003X0.0175*%
%ADD83R,0.0003X0.0177*%
%ADD84R,0.0003X0.3335*%
%ADD85R,0.0003X0.3367*%
%ADD86R,0.0003X0.3387*%
%ADD87R,0.0003X0.3402*%
%ADD88R,0.0003X0.3415*%
%ADD89R,0.0003X0.3427*%
%ADD90R,0.0003X0.3440*%
%ADD91R,0.0003X0.3448*%
%ADD92R,0.0003X0.3455*%
%ADD93R,0.0003X0.3465*%
%ADD94R,0.0003X0.3473*%
%ADD95R,0.0003X0.3480*%
%ADD96R,0.0003X0.3485*%
%ADD97R,0.0003X0.3493*%
%ADD98R,0.0003X0.3498*%
%ADD99R,0.0003X0.3505*%
%ADD100R,0.0003X0.3510*%
%ADD101R,0.0003X0.3515*%
%ADD102R,0.0003X0.3520*%
%ADD103R,0.0003X0.3525*%
%ADD104R,0.0003X0.3528*%
%ADD105R,0.0003X0.3533*%
%ADD106R,0.0003X0.3535*%
%ADD107R,0.0003X0.3540*%
%ADD108R,0.0003X0.3545*%
%ADD109R,0.0003X0.3548*%
%ADD110R,0.0003X0.3550*%
%ADD111R,0.0003X0.3555*%
%ADD112R,0.0003X0.3558*%
%ADD113R,0.0003X0.3560*%
%ADD114R,0.0003X0.3565*%
%ADD115R,0.0003X0.3568*%
%ADD116R,0.0003X0.3570*%
%ADD117R,0.0003X0.3575*%
%ADD118R,0.0003X0.3580*%
%ADD119R,0.0003X0.3583*%
%ADD120R,0.0003X0.3585*%
%ADD121R,0.0003X0.3588*%
%ADD122R,0.0003X0.3590*%
%ADD123R,0.0003X0.3593*%
%ADD124R,0.0003X0.3595*%
%ADD125R,0.0003X0.3598*%
%ADD126R,0.0003X0.3600*%
%ADD127R,0.0003X0.3603*%
%ADD128R,0.0003X0.3605*%
%ADD129R,0.0003X0.0767*%
%ADD130R,0.0003X0.2792*%
%ADD131R,0.0003X0.0757*%
%ADD132R,0.0003X0.2782*%
%ADD133R,0.0003X0.2775*%
%ADD134R,0.0003X0.2772*%
%ADD135R,0.0003X0.2770*%
%ADD136R,0.0003X0.0755*%
%ADD137R,0.0003X0.0230*%
%ADD138R,0.0003X0.0198*%
%ADD139R,0.0003X0.0520*%
%ADD140R,0.0003X0.0683*%
%ADD141R,0.0003X0.0185*%
%ADD142R,0.0003X0.0265*%
%ADD143R,0.0003X0.0248*%
%ADD144R,0.0003X0.0210*%
%ADD145R,0.0003X0.0495*%
%ADD146R,0.0003X0.0648*%
%ADD147R,0.0003X0.0235*%
%ADD148R,0.0003X0.0232*%
%ADD149R,0.0003X0.0473*%
%ADD150R,0.0003X0.0628*%
%ADD151R,0.0003X0.0213*%
%ADD152R,0.0003X0.0222*%
%ADD153R,0.0003X0.0195*%
%ADD154R,0.0003X0.0255*%
%ADD155R,0.0003X0.0357*%
%ADD156R,0.0003X0.0215*%
%ADD157R,0.0003X0.0300*%
%ADD158R,0.0003X0.0182*%
%ADD159R,0.0003X0.0208*%
%ADD160R,0.0003X0.0280*%
%ADD161R,0.0003X0.0203*%
%ADD162R,0.0003X0.0275*%
%ADD163R,0.0003X0.0272*%
%ADD164R,0.0003X0.0192*%
%ADD165R,0.0003X0.0267*%
%ADD166R,0.0003X0.0187*%
%ADD167R,0.0003X0.0262*%
%ADD168R,0.0003X0.0180*%
%ADD169R,0.0003X0.0253*%
%ADD170R,0.0003X0.0250*%
%ADD171R,0.0003X0.0245*%
%ADD172R,0.0003X0.0243*%
%ADD173R,0.0003X0.0217*%
%ADD174R,0.0003X0.0220*%
%ADD175R,0.0003X0.0395*%
%ADD176R,0.0003X0.0398*%
%ADD177R,0.0003X0.0225*%
%ADD178R,0.0003X0.0400*%
%ADD179R,0.0003X0.0227*%
%ADD180R,0.0003X0.0403*%
%ADD181R,0.0003X0.0405*%
%ADD182R,0.0003X0.0408*%
%ADD183R,0.0003X0.0238*%
%ADD184R,0.0003X0.0410*%
%ADD185R,0.0003X0.0240*%
%ADD186R,0.0003X0.0200*%
%ADD187R,0.0003X0.0413*%
%ADD188R,0.0003X0.0190*%
%ADD189R,0.0003X0.0415*%
%ADD190R,0.0003X0.0257*%
%ADD191R,0.0003X0.0260*%
%ADD192R,0.0003X0.0418*%
%ADD193R,0.0003X0.0270*%
%ADD194R,0.0003X0.0335*%
%ADD195R,0.0003X0.0285*%
%ADD196R,0.0003X0.0205*%
%ADD197R,0.0003X0.0278*%
%ADD198R,0.0003X0.0283*%
%ADD199R,0.0003X0.0288*%
%ADD200R,0.0003X0.0290*%
%ADD201R,0.0003X0.0295*%
%ADD202R,0.0003X0.0307*%
%ADD203R,0.0003X0.0355*%
%ADD204R,0.0003X0.0352*%
%ADD205R,0.0003X0.0293*%
%ADD206R,0.0003X0.0297*%
%ADD207R,0.0003X0.0385*%
%ADD208R,0.0003X0.0305*%
%ADD209R,0.0003X0.0660*%
%ADD210R,0.0003X0.0315*%
%ADD211R,0.0003X0.0673*%
%ADD212R,0.0003X0.0540*%
%ADD213R,0.0003X0.0330*%
%ADD214R,0.0003X0.0887*%
%ADD215R,0.0003X0.1133*%
%ADD216R,0.0003X0.0515*%
%ADD217R,0.0003X0.0617*%
%ADD218R,0.0003X0.0752*%
%ADD219R,0.0003X0.0750*%
%ADD220R,0.0003X0.0747*%
%ADD221R,0.0003X0.0745*%
%ADD222R,0.0003X0.0742*%
%ADD223R,0.0003X0.0740*%
%ADD224R,0.0003X0.1130*%
%ADD225R,0.0003X0.0735*%
%ADD226R,0.0003X0.0512*%
%ADD227R,0.0003X0.1135*%
%ADD228R,0.0003X0.1138*%
%ADD229R,0.0003X0.1140*%
%ADD230R,0.0003X0.0517*%
%ADD231R,0.0003X0.1145*%
%ADD232R,0.0003X0.1153*%
%ADD233R,0.0003X0.1103*%
%ADD234R,0.0003X0.1172*%
%ADD235R,0.0003X0.0522*%
%ADD236R,0.0003X0.1725*%
%ADD237R,0.0003X0.0620*%
%ADD238R,0.0003X0.1105*%
%ADD239R,0.0003X0.1727*%
%ADD240R,0.0003X0.1732*%
%ADD241R,0.0003X0.1108*%
%ADD242R,0.0003X0.1110*%
%ADD243R,0.0003X0.1735*%
%ADD244R,0.0003X0.1113*%
%ADD245R,0.0003X0.1740*%
%ADD246R,0.0003X0.0622*%
%ADD247R,0.0003X0.1115*%
%ADD248R,0.0003X0.1742*%
%ADD249R,0.0003X0.1120*%
%ADD250R,0.0003X0.1747*%
%ADD251R,0.0003X0.1760*%
%ADD252R,0.0003X0.1772*%
%ADD253R,0.0003X0.0625*%
%ADD254R,0.0003X0.3573*%
%ADD255R,0.0003X0.3538*%
%ADD256R,0.0003X0.3530*%
%ADD257R,0.0003X0.3500*%
%ADD258R,0.0003X0.3458*%
%ADD259R,0.0003X0.3450*%
%ADD260R,0.0003X0.3430*%
%ADD261R,0.0003X0.3420*%
%ADD262R,0.0003X0.3405*%
%ADD263R,0.0003X0.3390*%
%ADD264R,0.0003X0.3372*%
%ADD265R,0.0003X0.3347*%
D10*
X000150Y000150D02*
X009150Y000150D01*
X009150Y010750D01*
X000150Y010750D01*
X000150Y000150D01*
X000750Y001350D02*
X000752Y001399D01*
X000758Y001447D01*
X000768Y001495D01*
X000782Y001542D01*
X000799Y001588D01*
X000820Y001632D01*
X000845Y001674D01*
X000873Y001714D01*
X000905Y001752D01*
X000939Y001787D01*
X000976Y001819D01*
X001015Y001848D01*
X001057Y001874D01*
X001101Y001896D01*
X001146Y001914D01*
X001193Y001929D01*
X001240Y001940D01*
X001289Y001947D01*
X001338Y001950D01*
X001387Y001949D01*
X001435Y001944D01*
X001484Y001935D01*
X001531Y001922D01*
X001577Y001905D01*
X001621Y001885D01*
X001664Y001861D01*
X001705Y001834D01*
X001743Y001803D01*
X001779Y001770D01*
X001811Y001734D01*
X001841Y001695D01*
X001868Y001654D01*
X001891Y001610D01*
X001910Y001565D01*
X001926Y001519D01*
X001938Y001472D01*
X001946Y001423D01*
X001950Y001374D01*
X001950Y001326D01*
X001946Y001277D01*
X001938Y001228D01*
X001926Y001181D01*
X001910Y001135D01*
X001891Y001090D01*
X001868Y001046D01*
X001841Y001005D01*
X001811Y000966D01*
X001779Y000930D01*
X001743Y000897D01*
X001705Y000866D01*
X001664Y000839D01*
X001621Y000815D01*
X001577Y000795D01*
X001531Y000778D01*
X001484Y000765D01*
X001435Y000756D01*
X001387Y000751D01*
X001338Y000750D01*
X001289Y000753D01*
X001240Y000760D01*
X001193Y000771D01*
X001146Y000786D01*
X001101Y000804D01*
X001057Y000826D01*
X001015Y000852D01*
X000976Y000881D01*
X000939Y000913D01*
X000905Y000948D01*
X000873Y000986D01*
X000845Y001026D01*
X000820Y001068D01*
X000799Y001112D01*
X000782Y001158D01*
X000768Y001205D01*
X000758Y001253D01*
X000752Y001301D01*
X000750Y001350D01*
X007350Y001350D02*
X007352Y001399D01*
X007358Y001447D01*
X007368Y001495D01*
X007382Y001542D01*
X007399Y001588D01*
X007420Y001632D01*
X007445Y001674D01*
X007473Y001714D01*
X007505Y001752D01*
X007539Y001787D01*
X007576Y001819D01*
X007615Y001848D01*
X007657Y001874D01*
X007701Y001896D01*
X007746Y001914D01*
X007793Y001929D01*
X007840Y001940D01*
X007889Y001947D01*
X007938Y001950D01*
X007987Y001949D01*
X008035Y001944D01*
X008084Y001935D01*
X008131Y001922D01*
X008177Y001905D01*
X008221Y001885D01*
X008264Y001861D01*
X008305Y001834D01*
X008343Y001803D01*
X008379Y001770D01*
X008411Y001734D01*
X008441Y001695D01*
X008468Y001654D01*
X008491Y001610D01*
X008510Y001565D01*
X008526Y001519D01*
X008538Y001472D01*
X008546Y001423D01*
X008550Y001374D01*
X008550Y001326D01*
X008546Y001277D01*
X008538Y001228D01*
X008526Y001181D01*
X008510Y001135D01*
X008491Y001090D01*
X008468Y001046D01*
X008441Y001005D01*
X008411Y000966D01*
X008379Y000930D01*
X008343Y000897D01*
X008305Y000866D01*
X008264Y000839D01*
X008221Y000815D01*
X008177Y000795D01*
X008131Y000778D01*
X008084Y000765D01*
X008035Y000756D01*
X007987Y000751D01*
X007938Y000750D01*
X007889Y000753D01*
X007840Y000760D01*
X007793Y000771D01*
X007746Y000786D01*
X007701Y000804D01*
X007657Y000826D01*
X007615Y000852D01*
X007576Y000881D01*
X007539Y000913D01*
X007505Y000948D01*
X007473Y000986D01*
X007445Y001026D01*
X007420Y001068D01*
X007399Y001112D01*
X007382Y001158D01*
X007368Y001205D01*
X007358Y001253D01*
X007352Y001301D01*
X007350Y001350D01*
X007350Y009550D02*
X007352Y009599D01*
X007358Y009647D01*
X007368Y009695D01*
X007382Y009742D01*
X007399Y009788D01*
X007420Y009832D01*
X007445Y009874D01*
X007473Y009914D01*
X007505Y009952D01*
X007539Y009987D01*
X007576Y010019D01*
X007615Y010048D01*
X007657Y010074D01*
X007701Y010096D01*
X007746Y010114D01*
X007793Y010129D01*
X007840Y010140D01*
X007889Y010147D01*
X007938Y010150D01*
X007987Y010149D01*
X008035Y010144D01*
X008084Y010135D01*
X008131Y010122D01*
X008177Y010105D01*
X008221Y010085D01*
X008264Y010061D01*
X008305Y010034D01*
X008343Y010003D01*
X008379Y009970D01*
X008411Y009934D01*
X008441Y009895D01*
X008468Y009854D01*
X008491Y009810D01*
X008510Y009765D01*
X008526Y009719D01*
X008538Y009672D01*
X008546Y009623D01*
X008550Y009574D01*
X008550Y009526D01*
X008546Y009477D01*
X008538Y009428D01*
X008526Y009381D01*
X008510Y009335D01*
X008491Y009290D01*
X008468Y009246D01*
X008441Y009205D01*
X008411Y009166D01*
X008379Y009130D01*
X008343Y009097D01*
X008305Y009066D01*
X008264Y009039D01*
X008221Y009015D01*
X008177Y008995D01*
X008131Y008978D01*
X008084Y008965D01*
X008035Y008956D01*
X007987Y008951D01*
X007938Y008950D01*
X007889Y008953D01*
X007840Y008960D01*
X007793Y008971D01*
X007746Y008986D01*
X007701Y009004D01*
X007657Y009026D01*
X007615Y009052D01*
X007576Y009081D01*
X007539Y009113D01*
X007505Y009148D01*
X007473Y009186D01*
X007445Y009226D01*
X007420Y009268D01*
X007399Y009312D01*
X007382Y009358D01*
X007368Y009405D01*
X007358Y009453D01*
X007352Y009501D01*
X007350Y009550D01*
X000750Y009550D02*
X000752Y009599D01*
X000758Y009647D01*
X000768Y009695D01*
X000782Y009742D01*
X000799Y009788D01*
X000820Y009832D01*
X000845Y009874D01*
X000873Y009914D01*
X000905Y009952D01*
X000939Y009987D01*
X000976Y010019D01*
X001015Y010048D01*
X001057Y010074D01*
X001101Y010096D01*
X001146Y010114D01*
X001193Y010129D01*
X001240Y010140D01*
X001289Y010147D01*
X001338Y010150D01*
X001387Y010149D01*
X001435Y010144D01*
X001484Y010135D01*
X001531Y010122D01*
X001577Y010105D01*
X001621Y010085D01*
X001664Y010061D01*
X001705Y010034D01*
X001743Y010003D01*
X001779Y009970D01*
X001811Y009934D01*
X001841Y009895D01*
X001868Y009854D01*
X001891Y009810D01*
X001910Y009765D01*
X001926Y009719D01*
X001938Y009672D01*
X001946Y009623D01*
X001950Y009574D01*
X001950Y009526D01*
X001946Y009477D01*
X001938Y009428D01*
X001926Y009381D01*
X001910Y009335D01*
X001891Y009290D01*
X001868Y009246D01*
X001841Y009205D01*
X001811Y009166D01*
X001779Y009130D01*
X001743Y009097D01*
X001705Y009066D01*
X001664Y009039D01*
X001621Y009015D01*
X001577Y008995D01*
X001531Y008978D01*
X001484Y008965D01*
X001435Y008956D01*
X001387Y008951D01*
X001338Y008950D01*
X001289Y008953D01*
X001240Y008960D01*
X001193Y008971D01*
X001146Y008986D01*
X001101Y009004D01*
X001057Y009026D01*
X001015Y009052D01*
X000976Y009081D01*
X000939Y009113D01*
X000905Y009148D01*
X000873Y009186D01*
X000845Y009226D01*
X000820Y009268D01*
X000799Y009312D01*
X000782Y009358D01*
X000768Y009405D01*
X000758Y009453D01*
X000752Y009501D01*
X000750Y009550D01*
D11*
X000900Y008450D02*
X000400Y008450D01*
X000150Y008200D01*
X000150Y007700D01*
X000400Y007450D01*
X000150Y007200D01*
X000150Y006700D01*
X000400Y006450D01*
X000150Y006200D01*
X000150Y005700D01*
X000400Y005450D01*
X000150Y005200D01*
X000150Y004700D01*
X000400Y004450D01*
X000150Y004200D01*
X000150Y003700D01*
X000400Y003450D01*
X000150Y003200D01*
X000150Y002700D01*
X000400Y002450D01*
X000900Y002450D01*
X001150Y002700D01*
X001150Y003200D01*
X000900Y003450D01*
X001150Y003700D01*
X001150Y004200D01*
X000900Y004450D01*
X001150Y004700D01*
X001150Y005200D01*
X000900Y005450D01*
X001150Y005700D01*
X001150Y006200D01*
X000900Y006450D01*
X001150Y006700D01*
X001150Y007200D01*
X000900Y007450D01*
X001150Y007700D01*
X001150Y008200D01*
X000900Y008450D01*
X001409Y008107D02*
X001473Y008170D01*
X001599Y008170D01*
X001663Y008107D01*
X001663Y007853D01*
X001599Y007790D01*
X001473Y007790D01*
X001409Y007853D01*
X001833Y007853D02*
X001896Y007790D01*
X002023Y007790D01*
X002086Y007853D01*
X002086Y008107D01*
X002023Y008170D01*
X001896Y008170D01*
X001833Y008107D01*
X002256Y008170D02*
X002256Y007917D01*
X002383Y007790D01*
X002510Y007917D01*
X002510Y008170D01*
X003450Y007862D02*
X003450Y007838D01*
X002510Y007107D02*
X002510Y007044D01*
X002447Y006980D01*
X002320Y006980D01*
X002256Y006917D01*
X002256Y006853D01*
X002320Y006790D01*
X002447Y006790D01*
X002510Y006853D01*
X002648Y006819D02*
X003452Y006819D01*
X003452Y006081D01*
X002648Y006081D01*
X002648Y006819D01*
X002754Y006670D02*
X002756Y006679D01*
X002761Y006687D01*
X002769Y006692D01*
X002778Y006694D01*
X002787Y006692D01*
X002795Y006687D01*
X002800Y006679D01*
X002802Y006670D01*
X002800Y006661D01*
X002795Y006653D01*
X002787Y006648D01*
X002778Y006646D01*
X002769Y006648D01*
X002761Y006653D01*
X002756Y006661D01*
X002754Y006670D01*
X002510Y007107D02*
X002447Y007170D01*
X002320Y007170D01*
X002256Y007107D01*
X002086Y007170D02*
X001896Y007170D01*
X001833Y007107D01*
X001833Y006853D01*
X001896Y006790D01*
X002086Y006790D01*
X002086Y007170D01*
X001663Y007044D02*
X001663Y006790D01*
X001663Y006980D02*
X001409Y006980D01*
X001409Y007044D02*
X001409Y006790D01*
X001409Y007044D02*
X001536Y007170D01*
X001663Y007044D01*
X001663Y006170D02*
X001663Y005790D01*
X001409Y005790D01*
X001833Y005853D02*
X001896Y005790D01*
X002023Y005790D01*
X002086Y005853D01*
X002086Y006107D01*
X002023Y006170D01*
X001896Y006170D01*
X001833Y006107D01*
X002256Y006107D02*
X002320Y006170D01*
X002447Y006170D01*
X002510Y006107D01*
X002510Y006044D01*
X002447Y005980D01*
X002320Y005980D01*
X002256Y005917D01*
X002256Y005853D01*
X002320Y005790D01*
X002447Y005790D01*
X002510Y005853D01*
X002310Y005070D02*
X002183Y005070D01*
X002247Y005070D02*
X002247Y004690D01*
X002310Y004690D02*
X002183Y004690D01*
X002028Y004690D02*
X002028Y005070D01*
X001774Y004690D01*
X001774Y005070D01*
X001604Y005070D02*
X001351Y005070D01*
X001477Y005070D02*
X001477Y004690D01*
X001386Y004070D02*
X001386Y004007D01*
X001513Y003880D01*
X001513Y003690D01*
X001513Y003880D02*
X001639Y004007D01*
X001639Y004070D01*
X001809Y004007D02*
X001873Y004070D01*
X002063Y004070D01*
X002063Y003690D01*
X001873Y003690D01*
X001809Y003753D01*
X001809Y004007D01*
X002233Y004007D02*
X002233Y003880D01*
X002296Y003817D01*
X002486Y003817D01*
X002360Y003817D02*
X002233Y003690D01*
X002486Y003690D02*
X002486Y004070D01*
X002296Y004070D01*
X002233Y004007D01*
X002656Y004007D02*
X002656Y003753D01*
X002720Y003690D01*
X002910Y003690D01*
X002910Y004070D01*
X002720Y004070D01*
X002656Y004007D01*
X002447Y003070D02*
X002320Y003070D01*
X002256Y003007D01*
X002447Y003070D02*
X002510Y003007D01*
X002510Y002753D01*
X002447Y002690D01*
X002320Y002690D01*
X002256Y002753D01*
X002256Y002880D01*
X002383Y002880D01*
X002086Y002690D02*
X002086Y003070D01*
X001833Y002690D01*
X001833Y003070D01*
X001663Y003070D02*
X001473Y003070D01*
X001409Y003007D01*
X001409Y002753D01*
X001473Y002690D01*
X001663Y002690D01*
X001663Y003070D01*
X003850Y001710D02*
X003850Y001520D01*
X004090Y001470D01*
X004160Y001290D02*
X004030Y001090D01*
X004170Y000950D01*
X004360Y001090D01*
X004550Y001000D02*
X004590Y000780D01*
X004790Y000780D01*
X004830Y001000D01*
X005030Y001080D02*
X005210Y000950D01*
X005350Y001090D01*
X005230Y001270D01*
X005270Y001350D01*
X004930Y001490D01*
X004930Y001730D02*
X005270Y001880D01*
X005230Y001950D01*
X005350Y002130D01*
X005210Y002270D01*
X005030Y002150D01*
X004830Y002230D02*
X004790Y002450D01*
X004590Y002450D01*
X004550Y002220D01*
X004360Y002140D02*
X004170Y002270D01*
X004030Y002130D01*
X004160Y001940D01*
X004090Y001760D02*
X003850Y001710D01*
X004930Y001730D02*
X004914Y001758D01*
X004895Y001785D01*
X004873Y001808D01*
X004848Y001829D01*
X004820Y001847D01*
X004791Y001862D01*
X004760Y001872D01*
X004729Y001880D01*
X004696Y001883D01*
X004664Y001882D01*
X004631Y001878D01*
X004600Y001869D01*
X004570Y001857D01*
X004541Y001842D01*
X004514Y001823D01*
X004490Y001801D01*
X004469Y001777D01*
X004450Y001750D01*
X004435Y001721D01*
X004424Y001690D01*
X004416Y001659D01*
X004412Y001626D01*
X004412Y001594D01*
X004416Y001561D01*
X004424Y001530D01*
X004435Y001499D01*
X004450Y001470D01*
X004469Y001443D01*
X004490Y001419D01*
X004514Y001397D01*
X004541Y001378D01*
X004570Y001363D01*
X004600Y001351D01*
X004631Y001342D01*
X004664Y001338D01*
X004696Y001337D01*
X004729Y001340D01*
X004760Y001348D01*
X004791Y001358D01*
X004820Y001373D01*
X004848Y001391D01*
X004873Y001412D01*
X004895Y001435D01*
X004914Y001462D01*
X004930Y001490D01*
X004550Y000998D02*
X004510Y001010D01*
X004471Y001025D01*
X004433Y001043D01*
X004397Y001063D01*
X004362Y001085D01*
X004160Y001291D02*
X004137Y001334D01*
X004117Y001378D01*
X004101Y001424D01*
X004089Y001470D01*
X004846Y002228D02*
X004893Y002213D01*
X004939Y002195D01*
X004983Y002173D01*
X005025Y002148D01*
X004164Y001938D02*
X004141Y001896D01*
X004122Y001853D01*
X004105Y001808D01*
X004093Y001762D01*
X004829Y001001D02*
X004871Y001011D01*
X004912Y001024D01*
X004952Y001040D01*
X004991Y001059D01*
X005028Y001081D01*
X004548Y002222D02*
X004508Y002211D01*
X004469Y002197D01*
X004432Y002181D01*
X004395Y002162D01*
X004360Y002141D01*
D12*
X004350Y002100D02*
X004450Y001950D01*
X004550Y002000D01*
X004550Y002150D01*
X004450Y002050D01*
X004200Y002200D01*
X004100Y002150D01*
X004200Y002000D01*
X004200Y002150D01*
X004300Y001950D01*
X004300Y002100D01*
X004450Y001900D01*
X004200Y001950D01*
X004450Y001850D01*
X004150Y001800D01*
X004250Y001900D01*
X004100Y001700D01*
X003900Y001650D01*
X003900Y001550D01*
X004150Y001500D01*
X004200Y001750D01*
X004050Y001550D01*
X003950Y001650D01*
X004150Y001650D01*
X004350Y001800D01*
X004200Y001400D01*
X004250Y001700D01*
X004150Y001400D01*
X004200Y001300D01*
X004100Y001100D01*
X004150Y001000D01*
X004350Y001150D01*
X004400Y001150D01*
X004350Y001400D01*
X004300Y001500D01*
X004250Y001350D01*
X004350Y001200D01*
X004250Y001200D01*
X004350Y001200D02*
X004150Y001050D01*
X004300Y001400D01*
X004350Y001200D01*
X004450Y001100D02*
X004550Y001050D01*
X004650Y001050D01*
X004850Y001200D01*
X004500Y001100D01*
X004550Y001250D01*
X004600Y001200D01*
X004800Y001250D01*
X004500Y001300D01*
X004350Y001500D01*
X004400Y001800D01*
X004600Y001950D01*
X004800Y001950D01*
X004950Y001800D01*
X005200Y001900D01*
X005200Y001950D01*
X005150Y002000D01*
X004850Y002150D01*
X004800Y002000D01*
X004950Y001950D01*
X004850Y002100D01*
X005050Y001950D01*
X004700Y002250D01*
X004750Y002400D01*
X004750Y002000D01*
X004700Y002000D01*
X004550Y002200D01*
X004350Y002100D01*
X004600Y002000D02*
X004650Y002400D01*
X004700Y002000D01*
X004600Y002000D01*
X004950Y001900D02*
X005200Y001950D01*
X005200Y002050D01*
X005300Y002150D01*
X005200Y002200D01*
X005050Y002100D01*
X005250Y002150D01*
X004950Y001900D01*
X004950Y001400D02*
X005200Y001300D01*
X005250Y001150D01*
X005200Y001000D01*
X004900Y001350D01*
X005000Y001150D01*
X004800Y001050D01*
X004750Y000850D01*
X004600Y000800D01*
X004600Y001050D01*
X004650Y000850D01*
X004750Y001100D01*
X004900Y001200D01*
X004850Y001300D01*
X004600Y001250D01*
X004450Y001400D01*
X004450Y001100D01*
X004950Y001400D02*
X005300Y001050D01*
D13*
X008085Y003114D03*
X008090Y003114D03*
X008353Y003114D03*
X008363Y003114D03*
X008365Y003114D03*
X008403Y003334D03*
X008405Y003334D03*
X008408Y003334D03*
X008403Y003456D03*
X008400Y003456D03*
X008398Y003456D03*
X008395Y003456D03*
X008363Y003561D03*
X008360Y003561D03*
X008358Y003561D03*
X008355Y003561D03*
X008353Y003561D03*
X008350Y003561D03*
X008348Y003561D03*
X008345Y003561D03*
X008343Y003561D03*
X008340Y003561D03*
X008338Y003561D03*
X008335Y003561D03*
X008333Y003561D03*
X008330Y003561D03*
X008328Y003561D03*
X008325Y003561D03*
X008323Y003561D03*
X008320Y003561D03*
X008318Y003561D03*
X008315Y003561D03*
X008313Y003561D03*
X008310Y003561D03*
X008308Y003561D03*
X008305Y003561D03*
X008303Y003561D03*
X008300Y003561D03*
X008298Y003561D03*
X008295Y003561D03*
X008293Y003561D03*
X008290Y003561D03*
X008288Y003561D03*
X008285Y003561D03*
X008283Y003561D03*
X008280Y003561D03*
X008278Y003561D03*
X008275Y003561D03*
X008273Y003561D03*
X008270Y003561D03*
X008268Y003561D03*
X008265Y003561D03*
X008263Y003561D03*
X008260Y003561D03*
X008258Y003561D03*
X008255Y003561D03*
X008253Y003561D03*
X008250Y003561D03*
X008248Y003561D03*
X008245Y003561D03*
X008243Y003561D03*
X008240Y003561D03*
X008238Y003561D03*
X008233Y003561D03*
X008228Y003561D03*
X008193Y003559D03*
X008225Y003676D03*
X008228Y003676D03*
X008190Y003681D03*
X008330Y003681D03*
X008415Y003636D03*
X008370Y004049D03*
X008400Y004051D03*
X008403Y004051D03*
X008405Y004051D03*
X008428Y004131D03*
X008435Y004131D03*
X008440Y004131D03*
X008443Y004131D03*
X008465Y004141D03*
X008468Y004144D03*
X008470Y004144D03*
X008473Y004146D03*
X008475Y004149D03*
X008533Y004251D03*
X008498Y004279D03*
X008420Y004409D03*
X008415Y004406D03*
X008413Y004406D03*
X008408Y004404D03*
X008405Y004404D03*
X008403Y004404D03*
X008400Y004401D03*
X008398Y004401D03*
X008468Y004431D03*
X008325Y004429D03*
X008318Y004431D03*
X008315Y004431D03*
X008313Y004431D03*
X008310Y004434D03*
X008308Y004434D03*
X008305Y004434D03*
X008303Y004434D03*
X008300Y004436D03*
X008298Y004436D03*
X008295Y004436D03*
X008290Y004439D03*
X008288Y004439D03*
X008283Y004441D03*
X008280Y004441D03*
X008273Y004444D03*
X008265Y004446D03*
X008263Y004446D03*
X008255Y004449D03*
X008248Y004451D03*
X008240Y004454D03*
X008190Y004469D03*
X008233Y004556D03*
X008223Y004646D03*
X008223Y004751D03*
X008225Y004751D03*
X008228Y004751D03*
X008230Y004751D03*
X008233Y004751D03*
X008235Y004751D03*
X008238Y004751D03*
X008240Y004751D03*
X008243Y004751D03*
X008245Y004751D03*
X008248Y004751D03*
X008250Y004751D03*
X008253Y004751D03*
X008255Y004751D03*
X008258Y004751D03*
X008260Y004751D03*
X008263Y004751D03*
X008265Y004751D03*
X008268Y004751D03*
X008270Y004751D03*
X008273Y004751D03*
X008275Y004751D03*
X008278Y004751D03*
X008280Y004751D03*
X008283Y004751D03*
X008285Y004751D03*
X008288Y004751D03*
X008290Y004751D03*
X008293Y004751D03*
X008295Y004751D03*
X008298Y004751D03*
X008300Y004751D03*
X008303Y004751D03*
X008305Y004751D03*
X008308Y004751D03*
X008310Y004751D03*
X008313Y004751D03*
X008315Y004751D03*
X008318Y004751D03*
X008320Y004751D03*
X008323Y004751D03*
X008325Y004751D03*
X008328Y004751D03*
X008330Y004751D03*
X008333Y004751D03*
X008335Y004751D03*
X008338Y004751D03*
X008340Y004751D03*
X008343Y004751D03*
X008345Y004751D03*
X008348Y004751D03*
X008350Y004751D03*
X008353Y004751D03*
X008355Y004751D03*
X008358Y004751D03*
X008360Y004751D03*
X008363Y004751D03*
X008365Y004751D03*
X008368Y004751D03*
X008370Y004751D03*
X008373Y004751D03*
X008375Y004751D03*
X008348Y004664D03*
X008345Y004664D03*
X008343Y004664D03*
X008343Y004556D03*
X008345Y004556D03*
X008348Y004556D03*
X008350Y004556D03*
X008353Y004556D03*
X008355Y004556D03*
X008358Y004556D03*
X008360Y004556D03*
X008363Y004556D03*
X008365Y004556D03*
X008340Y004556D03*
X008335Y004556D03*
X008220Y004751D03*
X008218Y004751D03*
X008215Y004751D03*
X008213Y004751D03*
X008210Y004751D03*
X008208Y004751D03*
X008205Y004751D03*
X008203Y004751D03*
X008200Y004751D03*
X008198Y004751D03*
X008195Y004751D03*
X008193Y004751D03*
X008190Y004751D03*
X008188Y004751D03*
X008185Y004751D03*
X008183Y004751D03*
X008180Y004751D03*
X008178Y004751D03*
X008175Y004751D03*
X008173Y004751D03*
X008170Y004751D03*
X008168Y004751D03*
X008165Y004751D03*
X008163Y004751D03*
X008160Y004751D03*
X008158Y004751D03*
X008155Y004751D03*
X008153Y004751D03*
X008150Y004751D03*
X008148Y004751D03*
X008145Y004751D03*
X008143Y004751D03*
X008140Y004751D03*
X008138Y004751D03*
X008135Y004751D03*
X008133Y004751D03*
X008130Y004751D03*
X008128Y004751D03*
X008125Y004751D03*
X008123Y004751D03*
X008120Y004751D03*
X008118Y004751D03*
X008115Y004751D03*
X008113Y004751D03*
X008103Y004751D03*
X008100Y004751D03*
X008095Y004751D03*
X008083Y004751D03*
X008080Y004751D03*
X008180Y004901D03*
X008243Y004976D03*
X008420Y004976D03*
X008490Y004976D03*
X008495Y004976D03*
X008500Y004976D03*
X008503Y004976D03*
X008505Y004976D03*
X008378Y005184D03*
X008275Y005176D03*
X008273Y005176D03*
X008270Y005176D03*
X008268Y005176D03*
X008265Y005176D03*
X008263Y005176D03*
X008260Y005176D03*
X008258Y005176D03*
X008255Y005176D03*
X008253Y005176D03*
X008250Y005176D03*
X008248Y005176D03*
X008245Y005176D03*
X008243Y005176D03*
X008235Y005179D03*
X008233Y005179D03*
X008180Y005226D03*
X008248Y005289D03*
X008255Y005291D03*
X008270Y005294D03*
X008273Y005294D03*
X008273Y005616D03*
X008275Y005616D03*
X008278Y005616D03*
X008280Y005616D03*
X008283Y005616D03*
X008285Y005616D03*
X008288Y005616D03*
X008290Y005616D03*
X008293Y005616D03*
X008295Y005616D03*
X008298Y005616D03*
X008300Y005616D03*
X008303Y005616D03*
X008305Y005616D03*
X008308Y005616D03*
X008310Y005616D03*
X008313Y005616D03*
X008315Y005616D03*
X008318Y005616D03*
X008320Y005616D03*
X008323Y005616D03*
X008325Y005616D03*
X008328Y005616D03*
X008330Y005616D03*
X008333Y005616D03*
X008335Y005616D03*
X008338Y005616D03*
X008340Y005616D03*
X008343Y005616D03*
X008345Y005616D03*
X008348Y005616D03*
X008355Y005616D03*
X008363Y005616D03*
X008390Y005616D03*
X008395Y005616D03*
X008403Y005619D03*
X008405Y005619D03*
X008270Y005616D03*
X008268Y005616D03*
X008265Y005616D03*
X008263Y005616D03*
X008260Y005616D03*
X008258Y005616D03*
X008255Y005616D03*
X008253Y005616D03*
X008250Y005616D03*
X008248Y005616D03*
X008245Y005616D03*
X008243Y005616D03*
X008240Y005616D03*
X008238Y005616D03*
X008235Y005616D03*
X008198Y005721D03*
X008195Y005721D03*
X008190Y005844D03*
X008310Y005841D03*
X008313Y005841D03*
X008318Y005841D03*
X008320Y005841D03*
X008415Y005796D03*
X008370Y006446D03*
X008263Y006446D03*
X008255Y006446D03*
X008255Y006566D03*
X008253Y006566D03*
X008250Y006566D03*
X008248Y006566D03*
X008245Y006566D03*
X008243Y006566D03*
X008240Y006566D03*
X008238Y006566D03*
X008235Y006566D03*
X008258Y006566D03*
X008260Y006566D03*
X008263Y006566D03*
X008265Y006566D03*
X008268Y006566D03*
X008270Y006566D03*
X008273Y006566D03*
X008275Y006566D03*
X008278Y006566D03*
X008280Y006566D03*
X008283Y006566D03*
X008285Y006566D03*
X008288Y006566D03*
X008290Y006566D03*
X008293Y006566D03*
X008295Y006566D03*
X008298Y006566D03*
X008300Y006566D03*
X008303Y006566D03*
X008305Y006566D03*
X008308Y006566D03*
X008310Y006566D03*
X008313Y006566D03*
X008315Y006566D03*
X008318Y006566D03*
X008320Y006566D03*
X008323Y006566D03*
X008325Y006566D03*
X008328Y006566D03*
X008330Y006566D03*
X008333Y006566D03*
X008335Y006566D03*
X008338Y006566D03*
X008340Y006566D03*
X008343Y006566D03*
X008345Y006566D03*
X008348Y006566D03*
X008350Y006566D03*
X008353Y006566D03*
X008355Y006566D03*
X008358Y006566D03*
X008360Y006566D03*
X008363Y006566D03*
X008365Y006566D03*
X008368Y006566D03*
X008370Y006566D03*
X008373Y006566D03*
X008375Y006566D03*
X008378Y006566D03*
X008380Y006566D03*
X008385Y006566D03*
X008403Y006569D03*
X008405Y006569D03*
X008378Y006664D03*
X008275Y006656D03*
X008273Y006656D03*
X008270Y006656D03*
X008268Y006656D03*
X008265Y006656D03*
X008263Y006656D03*
X008260Y006656D03*
X008258Y006656D03*
X008255Y006656D03*
X008253Y006656D03*
X008250Y006656D03*
X008248Y006656D03*
X008245Y006656D03*
X008243Y006656D03*
X008235Y006659D03*
X008233Y006659D03*
X008180Y006706D03*
X008248Y006769D03*
X008255Y006771D03*
X008268Y006774D03*
X008270Y006774D03*
X008318Y006776D03*
X008180Y006916D03*
X008240Y006989D03*
X008245Y006989D03*
X008488Y006989D03*
X008493Y006989D03*
X008495Y006989D03*
X008498Y006989D03*
X008500Y006989D03*
X008503Y006989D03*
X008408Y007421D03*
X008405Y007421D03*
X008403Y007421D03*
X008403Y007544D03*
X008400Y007544D03*
X008398Y007544D03*
X008395Y007544D03*
X008360Y007646D03*
X008358Y007646D03*
X008355Y007646D03*
X008353Y007646D03*
X008350Y007646D03*
X008348Y007646D03*
X008345Y007646D03*
X008343Y007646D03*
X008340Y007646D03*
X008338Y007646D03*
X008335Y007646D03*
X008333Y007646D03*
X008330Y007646D03*
X008328Y007646D03*
X008325Y007646D03*
X008323Y007646D03*
X008320Y007646D03*
X008318Y007646D03*
X008315Y007646D03*
X008313Y007646D03*
X008310Y007646D03*
X008308Y007646D03*
X008270Y007646D03*
X008268Y007646D03*
X008265Y007646D03*
X008263Y007646D03*
X008260Y007646D03*
X008258Y007646D03*
X008255Y007646D03*
X008253Y007646D03*
X008250Y007646D03*
X008248Y007646D03*
X008245Y007646D03*
X008243Y007646D03*
X008240Y007646D03*
X008238Y007646D03*
X008235Y007646D03*
X008233Y007646D03*
X008338Y007754D03*
X008343Y007754D03*
X007625Y007071D03*
X007620Y007071D03*
X007618Y007071D03*
X007548Y007254D03*
X007570Y007399D03*
X007328Y007244D03*
X007263Y006981D03*
X007315Y005839D03*
X007605Y005224D03*
X007315Y004761D03*
X007355Y004586D03*
X007358Y004586D03*
X007360Y004586D03*
X007363Y004586D03*
X007370Y004584D03*
X007373Y004584D03*
X008195Y004344D03*
X008198Y004344D03*
X008200Y004344D03*
X008203Y004344D03*
X008205Y004344D03*
X008208Y004346D03*
X008210Y004346D03*
X008213Y004346D03*
X008215Y004346D03*
X008218Y004349D03*
X008220Y004349D03*
X008223Y004349D03*
X008225Y004349D03*
X008228Y004351D03*
X008230Y004351D03*
X008233Y004351D03*
X008235Y004351D03*
X008238Y004354D03*
X008240Y004354D03*
X008243Y004354D03*
X008245Y004354D03*
X008248Y004356D03*
X008250Y004356D03*
X008253Y004356D03*
X008258Y004359D03*
X008260Y004359D03*
X008263Y004359D03*
X008270Y004361D03*
X008280Y004364D03*
X008263Y004266D03*
X008258Y004266D03*
X008255Y004266D03*
X008253Y004266D03*
X008250Y004266D03*
X008248Y004266D03*
X008245Y004266D03*
X008243Y004266D03*
X008240Y004266D03*
X008235Y004264D03*
X008233Y004264D03*
X008228Y004261D03*
X008225Y004261D03*
X008223Y004259D03*
X008220Y004259D03*
X008218Y004256D03*
X008228Y004159D03*
X008233Y004156D03*
X008235Y004156D03*
X008238Y004154D03*
X008240Y004154D03*
X008243Y004154D03*
X008248Y004151D03*
X008250Y004151D03*
X008253Y004151D03*
X008255Y004151D03*
X008258Y004151D03*
X008260Y004151D03*
X008263Y004151D03*
X008265Y004151D03*
X008268Y004151D03*
X008270Y004151D03*
X008273Y004151D03*
X008275Y004151D03*
X008278Y004151D03*
X008280Y004151D03*
X008283Y004151D03*
X008288Y004154D03*
X008290Y004154D03*
X008293Y004154D03*
X008295Y004156D03*
X008298Y004156D03*
X008300Y004159D03*
X008263Y004049D03*
X008260Y004049D03*
X008258Y004049D03*
X008255Y004049D03*
X008253Y004049D03*
X008250Y004049D03*
X008248Y004049D03*
X008245Y004049D03*
X008243Y004049D03*
X008240Y004049D03*
X008238Y004049D03*
X008235Y004049D03*
X008358Y004266D03*
D14*
X008360Y004403D03*
X008363Y004403D03*
X008490Y004463D03*
X008530Y004248D03*
X008220Y004150D03*
X008413Y003845D03*
X008410Y003635D03*
X008185Y003380D03*
X007423Y004568D03*
X007305Y004593D03*
X007568Y004775D03*
X007580Y004930D03*
X007560Y005098D03*
X007483Y005090D03*
X007623Y005220D03*
X007570Y005818D03*
X007288Y005973D03*
X007335Y006235D03*
X007338Y006235D03*
X007325Y006408D03*
X007338Y006580D03*
X007340Y006580D03*
X007343Y006580D03*
X007328Y006735D03*
X007325Y006735D03*
X007325Y006910D03*
X007308Y007088D03*
X007305Y007088D03*
X007568Y007085D03*
X007570Y007085D03*
X007568Y006920D03*
X007533Y006735D03*
X007530Y006735D03*
X007558Y006580D03*
X007560Y006580D03*
X007598Y006558D03*
X007565Y006408D03*
X007545Y006235D03*
X007543Y006235D03*
X007540Y006235D03*
X008185Y006490D03*
X008278Y006215D03*
X008310Y006178D03*
X008313Y006175D03*
X008315Y006173D03*
X008383Y006043D03*
X008378Y005825D03*
X008378Y005453D03*
X008185Y004903D03*
X008218Y006883D03*
X008185Y006915D03*
X008413Y007155D03*
X008383Y007193D03*
X008185Y007468D03*
D15*
X007590Y007254D03*
X007588Y007254D03*
X007540Y007094D03*
X007538Y007094D03*
X007555Y006919D03*
X007568Y006744D03*
X007570Y006744D03*
X007613Y006551D03*
X007553Y006409D03*
X007578Y006244D03*
X007295Y006249D03*
X007293Y006251D03*
X007290Y006251D03*
X007338Y006406D03*
X007308Y006571D03*
X007305Y006571D03*
X007295Y006744D03*
X007333Y006911D03*
X007330Y007094D03*
X007285Y007244D03*
X007338Y007399D03*
X007340Y007399D03*
X008410Y006706D03*
X008188Y006191D03*
X008188Y006001D03*
X008188Y005404D03*
X008410Y005409D03*
X008410Y005226D03*
X007628Y005219D03*
X007333Y005101D03*
X007290Y004939D03*
X007288Y004939D03*
X007328Y004764D03*
X007548Y004766D03*
X007550Y004766D03*
X007593Y004614D03*
X008338Y004221D03*
X008528Y004246D03*
X008188Y003841D03*
X007360Y005844D03*
X007358Y005844D03*
X007355Y005844D03*
D16*
X007383Y005846D03*
X007385Y005846D03*
X007388Y005846D03*
X007390Y005846D03*
X007393Y005846D03*
X007395Y005846D03*
X007400Y005849D03*
X007403Y005849D03*
X007405Y005849D03*
X007408Y005849D03*
X007283Y006254D03*
X007348Y006406D03*
X007293Y006566D03*
X007283Y006749D03*
X007535Y006914D03*
X007538Y006914D03*
X007523Y007099D03*
X007598Y007254D03*
X007353Y007396D03*
X007350Y007396D03*
X007278Y007244D03*
X007345Y007099D03*
X007348Y007099D03*
X007585Y006749D03*
X007543Y006409D03*
X007593Y006249D03*
X008190Y006191D03*
X008190Y006001D03*
X008405Y006006D03*
X008403Y005794D03*
X008408Y005226D03*
X008193Y004904D03*
X007630Y005219D03*
X007273Y004944D03*
X007338Y004761D03*
X007443Y004556D03*
X007528Y004761D03*
X007530Y004761D03*
X008330Y004211D03*
X008525Y004244D03*
X008403Y003634D03*
X008193Y003381D03*
X008193Y006494D03*
X008408Y006706D03*
X008193Y006916D03*
X008193Y007469D03*
X008280Y007674D03*
D17*
X007605Y007254D03*
X007508Y007104D03*
X007505Y007104D03*
X007363Y007104D03*
X007270Y007244D03*
X007363Y007394D03*
X007358Y006909D03*
X007355Y006909D03*
X007353Y006909D03*
X007503Y006909D03*
X007505Y006909D03*
X007508Y006909D03*
X007510Y006909D03*
X007598Y006754D03*
X007273Y006754D03*
X007283Y006561D03*
X007360Y006406D03*
X007363Y006406D03*
X007278Y006254D03*
X007528Y006409D03*
X007603Y006254D03*
X008198Y006709D03*
X008405Y006706D03*
X008403Y006006D03*
X008223Y005586D03*
X008220Y005586D03*
X008195Y005404D03*
X008198Y005229D03*
X008405Y005226D03*
X008403Y005411D03*
X008283Y004586D03*
X008193Y004601D03*
X008523Y004244D03*
X008325Y004209D03*
X008223Y004019D03*
X008220Y004019D03*
X007610Y004621D03*
X007503Y004756D03*
X007500Y004756D03*
X007498Y004756D03*
X007495Y004756D03*
X007453Y004551D03*
X007365Y004756D03*
X007363Y004756D03*
X007360Y004756D03*
X007358Y004756D03*
X007263Y004949D03*
X008183Y003144D03*
D18*
X008185Y003148D03*
X008205Y004018D03*
X008208Y004018D03*
X008210Y004018D03*
X008213Y004018D03*
X008323Y004210D03*
X008520Y004240D03*
X008195Y004603D03*
X007613Y004623D03*
X007458Y004548D03*
X007275Y004593D03*
X007400Y004753D03*
X007403Y004753D03*
X007405Y004753D03*
X007408Y004753D03*
X007410Y004753D03*
X007413Y004753D03*
X007415Y004753D03*
X007418Y004753D03*
X007420Y004753D03*
X007423Y004753D03*
X007425Y004753D03*
X007428Y004753D03*
X007430Y004753D03*
X007433Y004753D03*
X007435Y004753D03*
X007438Y004753D03*
X007440Y004753D03*
X007443Y004753D03*
X007445Y004753D03*
X007448Y004753D03*
X007450Y004753D03*
X007453Y004753D03*
X007258Y004953D03*
X007560Y005813D03*
X007260Y005958D03*
X007610Y006258D03*
X007515Y006408D03*
X007513Y006408D03*
X007510Y006408D03*
X007383Y006408D03*
X007380Y006408D03*
X007378Y006408D03*
X007375Y006408D03*
X007373Y006408D03*
X007275Y006558D03*
X007268Y006758D03*
X007385Y006905D03*
X007388Y006905D03*
X007390Y006905D03*
X007393Y006905D03*
X007395Y006905D03*
X007398Y006905D03*
X007400Y006905D03*
X007403Y006905D03*
X007405Y006905D03*
X007408Y006905D03*
X007410Y006905D03*
X007413Y006905D03*
X007415Y006905D03*
X007418Y006905D03*
X007420Y006905D03*
X007423Y006905D03*
X007425Y006905D03*
X007428Y006905D03*
X007430Y006905D03*
X007433Y006905D03*
X007435Y006905D03*
X007438Y006905D03*
X007440Y006905D03*
X007443Y006905D03*
X007445Y006905D03*
X007448Y006905D03*
X007450Y006905D03*
X007453Y006905D03*
X007455Y006905D03*
X007458Y006905D03*
X007460Y006905D03*
X007463Y006905D03*
X007465Y006905D03*
X007468Y006905D03*
X007470Y006905D03*
X007603Y006755D03*
X007493Y007108D03*
X007375Y007108D03*
X007265Y007243D03*
X008198Y007150D03*
X008288Y007683D03*
X008195Y007695D03*
X008198Y006193D03*
X008205Y005585D03*
X008208Y005585D03*
X008210Y005585D03*
X008198Y005583D03*
X008198Y005405D03*
D19*
X008205Y005409D03*
X008210Y005411D03*
X008205Y005229D03*
X008393Y005414D03*
X008395Y005414D03*
X008395Y006006D03*
X008398Y006209D03*
X008213Y006199D03*
X008210Y006199D03*
X008208Y006196D03*
X008205Y006196D03*
X008200Y006001D03*
X007558Y005811D03*
X007258Y005956D03*
X007273Y006254D03*
X007400Y006409D03*
X007403Y006409D03*
X007405Y006409D03*
X007483Y006409D03*
X007485Y006409D03*
X007488Y006409D03*
X007490Y006409D03*
X007270Y006554D03*
X007263Y006761D03*
X007388Y007111D03*
X007478Y007111D03*
X007480Y007111D03*
X007618Y007254D03*
X007378Y007394D03*
X008200Y007151D03*
X008410Y006951D03*
X008205Y006709D03*
X008293Y007686D03*
X007568Y005334D03*
X007465Y004544D03*
X008200Y003841D03*
X008518Y004239D03*
X008190Y003151D03*
D20*
X008193Y003154D03*
X008203Y003841D03*
X008315Y004209D03*
X008373Y004226D03*
X008515Y004239D03*
X008295Y004596D03*
X008203Y004606D03*
X007618Y004624D03*
X007468Y004544D03*
X007635Y004911D03*
X007253Y004959D03*
X008210Y005229D03*
X008215Y005414D03*
X008390Y005414D03*
X008393Y006006D03*
X008393Y006206D03*
X008203Y006001D03*
X007620Y006264D03*
X007478Y006051D03*
X007475Y006051D03*
X007473Y006051D03*
X007470Y006051D03*
X007468Y006051D03*
X007465Y006051D03*
X007463Y006051D03*
X007460Y006051D03*
X007458Y006051D03*
X007455Y006051D03*
X007453Y006051D03*
X007450Y006051D03*
X007448Y006051D03*
X007445Y006051D03*
X007443Y006051D03*
X007440Y006051D03*
X007438Y006051D03*
X007435Y006051D03*
X007325Y006026D03*
X007268Y006551D03*
X007260Y006764D03*
X007613Y006759D03*
X007473Y007114D03*
X007470Y007114D03*
X007398Y007114D03*
X007395Y007114D03*
X007623Y007254D03*
X007380Y007394D03*
X007128Y007734D03*
X007125Y007734D03*
X007123Y007734D03*
X007120Y007734D03*
X008200Y007696D03*
X008203Y007696D03*
X008298Y007689D03*
X008203Y007151D03*
X008408Y006949D03*
X008210Y006709D03*
D21*
X008310Y006731D03*
X008390Y006709D03*
X008393Y006709D03*
X008403Y006946D03*
X008390Y007154D03*
X008205Y007151D03*
X008215Y007694D03*
X008218Y007694D03*
X008210Y007696D03*
X008208Y007696D03*
X008205Y007696D03*
X008303Y007691D03*
X007618Y007731D03*
X007615Y007731D03*
X007613Y007731D03*
X007610Y007731D03*
X007608Y007731D03*
X007605Y007731D03*
X007383Y007396D03*
X007403Y007116D03*
X007405Y007116D03*
X007463Y007116D03*
X007615Y006759D03*
X007258Y006766D03*
X007625Y006269D03*
X007523Y006049D03*
X007520Y006049D03*
X007518Y006049D03*
X007515Y006049D03*
X007513Y006049D03*
X007510Y006049D03*
X007508Y006049D03*
X007403Y006049D03*
X007400Y006049D03*
X007398Y006049D03*
X007395Y006049D03*
X007393Y006049D03*
X007390Y006049D03*
X007388Y006049D03*
X007328Y006029D03*
X008205Y006001D03*
X008390Y006006D03*
X008383Y006201D03*
X008385Y005416D03*
X008310Y005251D03*
X008390Y005229D03*
X008393Y005229D03*
X008403Y004931D03*
X008300Y004599D03*
X008218Y004604D03*
X008215Y004604D03*
X008213Y004604D03*
X008208Y004606D03*
X008513Y004236D03*
X008313Y004209D03*
X008205Y003841D03*
X007548Y004266D03*
X007545Y004266D03*
X007543Y004266D03*
X007540Y004266D03*
X007538Y004266D03*
X007535Y004266D03*
X007533Y004266D03*
X007530Y004266D03*
X007528Y004266D03*
X007525Y004266D03*
X007523Y004266D03*
X007520Y004266D03*
X007518Y004266D03*
X007515Y004266D03*
X007513Y004266D03*
X007470Y004541D03*
X007620Y004624D03*
X007118Y007731D03*
D22*
X007353Y007245D03*
X008190Y006570D03*
X008373Y006653D03*
X008373Y006255D03*
X008418Y005795D03*
X008190Y005620D03*
X008180Y005553D03*
X008223Y005360D03*
X008373Y005173D03*
X007575Y005823D03*
X007308Y005840D03*
X007258Y004803D03*
X008190Y004053D03*
X008435Y004233D03*
X008418Y003633D03*
X008405Y003558D03*
X008183Y003545D03*
X008190Y003460D03*
X008510Y006995D03*
D23*
X008190Y006994D03*
X007525Y007254D03*
X007523Y007254D03*
X007350Y007244D03*
X007313Y006909D03*
X008230Y007746D03*
X008180Y005839D03*
X008405Y005719D03*
X008510Y004979D03*
X008190Y004981D03*
X008230Y004656D03*
X008438Y004234D03*
X008180Y003984D03*
X007628Y005049D03*
D24*
X007250Y004964D03*
X007475Y004539D03*
X007493Y004269D03*
X007495Y004269D03*
X007498Y004269D03*
X007563Y004269D03*
X007565Y004269D03*
X007568Y004269D03*
X008188Y004179D03*
X008375Y004221D03*
X008510Y004234D03*
X008305Y004601D03*
X008398Y004929D03*
X008385Y005231D03*
X008388Y006006D03*
X008385Y006711D03*
X008383Y006711D03*
X008400Y006944D03*
X008388Y007154D03*
X008208Y007151D03*
X007618Y006759D03*
X007633Y006541D03*
X007628Y006271D03*
X007543Y006046D03*
X007540Y006046D03*
X007538Y006046D03*
X007535Y006046D03*
X007373Y006046D03*
X007370Y006046D03*
X007368Y006046D03*
X007365Y006046D03*
X007255Y006769D03*
X007413Y007119D03*
X007453Y007119D03*
X007455Y007119D03*
X007255Y007241D03*
X008208Y003841D03*
X008388Y003844D03*
X008200Y003159D03*
D25*
X008410Y003335D03*
X008410Y003460D03*
X008185Y003555D03*
X008183Y003985D03*
X008450Y004240D03*
X008185Y004468D03*
X008225Y004650D03*
X008508Y004978D03*
X008380Y005370D03*
X008218Y005368D03*
X008183Y005553D03*
X008185Y005718D03*
X008418Y006005D03*
X008410Y006570D03*
X008508Y006993D03*
X008410Y007423D03*
X008410Y007548D03*
X008225Y007740D03*
X007628Y007423D03*
X007588Y007405D03*
X007583Y007403D03*
X007540Y007255D03*
X007578Y006920D03*
X007315Y006908D03*
X007598Y005225D03*
X007600Y005225D03*
X007633Y005050D03*
D26*
X007268Y004813D03*
X008070Y004745D03*
X008178Y004605D03*
X008178Y004583D03*
X008418Y004545D03*
X008508Y004460D03*
X008178Y004218D03*
X008178Y004200D03*
X008223Y004128D03*
X008223Y004123D03*
X008223Y004118D03*
X008178Y003830D03*
X008383Y003840D03*
X008183Y003560D03*
X008188Y003460D03*
X008188Y003455D03*
X008413Y003323D03*
X008178Y003180D03*
X008070Y003103D03*
X008070Y003098D03*
X008070Y003093D03*
X008178Y005233D03*
X008315Y005245D03*
X008378Y005225D03*
X008380Y005395D03*
X008178Y005390D03*
X008225Y005535D03*
X008225Y005540D03*
X008378Y005783D03*
X008215Y006000D03*
X008178Y005995D03*
X008178Y005990D03*
X008178Y006183D03*
X008178Y006203D03*
X008418Y006230D03*
X008178Y006488D03*
X008188Y006568D03*
X008178Y006713D03*
X008315Y006725D03*
X008378Y006705D03*
X008178Y007143D03*
X008178Y007465D03*
X008188Y007545D03*
X008188Y007550D03*
X008178Y007673D03*
X008178Y007695D03*
X008235Y007753D03*
X008418Y007713D03*
X007983Y007670D03*
X007278Y006135D03*
D27*
X007335Y006038D03*
X007333Y006035D03*
X007355Y006045D03*
X007358Y006045D03*
X007360Y006045D03*
X007363Y006045D03*
X007545Y006045D03*
X007548Y006045D03*
X007550Y006045D03*
X007268Y006253D03*
X007260Y006545D03*
X007415Y007120D03*
X007418Y007120D03*
X007448Y007120D03*
X007450Y007120D03*
X007115Y007728D03*
X008210Y007150D03*
X008385Y007155D03*
X008398Y006943D03*
X008380Y006713D03*
X008210Y006003D03*
X008380Y005233D03*
X008383Y005233D03*
X008395Y004928D03*
X008508Y004233D03*
X008385Y003845D03*
X008210Y003840D03*
X008203Y003160D03*
X007573Y004270D03*
X007570Y004270D03*
X007490Y004270D03*
X007488Y004270D03*
D28*
X007313Y004433D03*
X007250Y004790D03*
X007603Y005225D03*
X008190Y005720D03*
X008193Y005720D03*
X008408Y005620D03*
X008408Y006445D03*
X008408Y006570D03*
X008180Y006490D03*
X008505Y006990D03*
X008405Y007545D03*
X008410Y007638D03*
X008415Y007713D03*
X007623Y007070D03*
X007545Y007255D03*
X007573Y007400D03*
X007575Y007400D03*
X007578Y006408D03*
X008415Y004623D03*
X008410Y004548D03*
X008465Y004430D03*
X008463Y004428D03*
X008458Y004425D03*
X008455Y004423D03*
X008453Y004423D03*
X008450Y004420D03*
X008448Y004420D03*
X008445Y004418D03*
X008443Y004418D03*
X008438Y004415D03*
X008433Y004413D03*
X008430Y004413D03*
X008428Y004410D03*
X008425Y004410D03*
X008423Y004410D03*
X008418Y004408D03*
X008410Y004405D03*
X008333Y004428D03*
X008330Y004428D03*
X008328Y004428D03*
X008323Y004430D03*
X008320Y004430D03*
X008330Y004378D03*
X008323Y004375D03*
X008313Y004373D03*
X008305Y004370D03*
X008303Y004370D03*
X008298Y004368D03*
X008295Y004368D03*
X008293Y004368D03*
X008288Y004365D03*
X008285Y004365D03*
X008283Y004365D03*
X008278Y004363D03*
X008275Y004363D03*
X008273Y004363D03*
X008268Y004360D03*
X008265Y004360D03*
X008255Y004358D03*
X008193Y004343D03*
X008190Y004343D03*
X008230Y004263D03*
X008238Y004265D03*
X008343Y004253D03*
X008345Y004255D03*
X008348Y004258D03*
X008350Y004260D03*
X008353Y004263D03*
X008355Y004265D03*
X008455Y004245D03*
X008458Y004248D03*
X008460Y004250D03*
X008463Y004253D03*
X008465Y004255D03*
X008478Y004268D03*
X008488Y004275D03*
X008493Y004278D03*
X008463Y004140D03*
X008460Y004138D03*
X008458Y004138D03*
X008455Y004135D03*
X008453Y004135D03*
X008450Y004133D03*
X008448Y004133D03*
X008445Y004133D03*
X008438Y004130D03*
X008433Y004130D03*
X008408Y004053D03*
X008285Y004153D03*
X008195Y003560D03*
X008190Y003558D03*
X008405Y003458D03*
X008180Y003170D03*
X008083Y003113D03*
X008080Y003113D03*
X008410Y003105D03*
D29*
X008418Y003179D03*
X008413Y003464D03*
X008195Y003461D03*
X008413Y004059D03*
X008443Y004236D03*
X008505Y004464D03*
X008228Y004654D03*
X008193Y004981D03*
X007630Y005049D03*
X007575Y005104D03*
X007585Y005229D03*
X007588Y005229D03*
X007580Y004779D03*
X007313Y004761D03*
X007578Y004471D03*
X007310Y005839D03*
X008218Y006154D03*
X007535Y007254D03*
X007533Y007254D03*
X007603Y007411D03*
X007605Y007411D03*
X007608Y007411D03*
X007610Y007414D03*
X007613Y007414D03*
X007618Y007416D03*
X007340Y007244D03*
X008228Y007744D03*
X008413Y007551D03*
D30*
X008403Y007685D03*
X008393Y006940D03*
X007620Y006760D03*
X007260Y007028D03*
X007425Y007123D03*
X007440Y007123D03*
X007443Y007123D03*
X007253Y006773D03*
X007343Y006043D03*
X007345Y006043D03*
X007560Y006043D03*
X007563Y006043D03*
X007565Y006043D03*
X008213Y006003D03*
X008390Y004925D03*
X008400Y004595D03*
X008505Y004230D03*
X008400Y004188D03*
X007638Y004910D03*
X007480Y004535D03*
X007480Y004273D03*
X007478Y004273D03*
X007583Y004273D03*
X007300Y004273D03*
X007298Y004273D03*
X007295Y004273D03*
X007293Y004273D03*
X007280Y004273D03*
X008208Y003163D03*
X008210Y003163D03*
D31*
X008078Y003111D03*
X008180Y003379D03*
X008188Y003556D03*
X008188Y003681D03*
X008408Y003459D03*
X008410Y004054D03*
X008453Y004244D03*
X008468Y004259D03*
X008470Y004261D03*
X008473Y004264D03*
X008475Y004266D03*
X008480Y004269D03*
X008483Y004271D03*
X008485Y004274D03*
X008490Y004276D03*
X008495Y004279D03*
X008435Y004414D03*
X008440Y004416D03*
X008460Y004426D03*
X008503Y004464D03*
X008333Y004379D03*
X008328Y004376D03*
X008325Y004376D03*
X008320Y004374D03*
X008318Y004374D03*
X008315Y004374D03*
X008310Y004371D03*
X008308Y004371D03*
X008300Y004369D03*
X008290Y004366D03*
X008188Y004341D03*
X008188Y004469D03*
X008078Y004751D03*
X008410Y004741D03*
X008180Y004209D03*
X007573Y005101D03*
X007463Y005074D03*
X007313Y005839D03*
X007313Y006406D03*
X007330Y007244D03*
X007333Y007244D03*
X007543Y007254D03*
X007578Y007401D03*
X007580Y007401D03*
X007630Y007426D03*
X008180Y007466D03*
X008408Y007546D03*
X008410Y006446D03*
X008188Y005841D03*
X008188Y005719D03*
X008410Y005621D03*
X008418Y005406D03*
D32*
X008388Y004924D03*
X008398Y004596D03*
X008503Y004229D03*
X008398Y004191D03*
X008380Y004214D03*
X008193Y004181D03*
X007588Y004274D03*
X007585Y004274D03*
X007475Y004274D03*
X007308Y004274D03*
X007305Y004274D03*
X007303Y004274D03*
X007278Y004274D03*
X007275Y004274D03*
X007483Y004534D03*
X008213Y003164D03*
X008405Y003154D03*
X007570Y006041D03*
X007568Y006041D03*
X007258Y006541D03*
X007623Y006761D03*
X007438Y007124D03*
X007435Y007124D03*
X007430Y007124D03*
X007428Y007124D03*
X007630Y007251D03*
X007385Y007401D03*
X007630Y007724D03*
X007113Y007724D03*
X008400Y007686D03*
X008390Y006939D03*
D33*
X008370Y006989D03*
X008340Y007086D03*
X008338Y007086D03*
X008325Y007084D03*
X008323Y007084D03*
X008320Y007084D03*
X008318Y007084D03*
X008300Y007081D03*
X008298Y007081D03*
X008293Y007081D03*
X008273Y007084D03*
X008270Y007084D03*
X008268Y007084D03*
X008265Y007084D03*
X008263Y007084D03*
X008255Y007086D03*
X008253Y007086D03*
X008250Y007086D03*
X008245Y007089D03*
X008243Y007089D03*
X008240Y007089D03*
X008238Y007091D03*
X008235Y007091D03*
X008355Y007091D03*
X008363Y007094D03*
X008368Y007096D03*
X008370Y007099D03*
X008358Y007214D03*
X008353Y007216D03*
X008350Y007216D03*
X008348Y007216D03*
X008343Y007219D03*
X008340Y007219D03*
X008338Y007219D03*
X008335Y007219D03*
X008330Y007221D03*
X008328Y007221D03*
X008325Y007221D03*
X008323Y007221D03*
X008320Y007221D03*
X008318Y007221D03*
X008315Y007221D03*
X008313Y007221D03*
X008308Y007221D03*
X008305Y007221D03*
X008303Y007221D03*
X008300Y007221D03*
X008298Y007221D03*
X008295Y007221D03*
X008293Y007221D03*
X008290Y007221D03*
X008288Y007221D03*
X008285Y007221D03*
X008283Y007221D03*
X008280Y007221D03*
X008278Y007221D03*
X008275Y007221D03*
X008273Y007221D03*
X008270Y007221D03*
X008265Y007219D03*
X008263Y007219D03*
X008260Y007219D03*
X008258Y007219D03*
X008255Y007219D03*
X008253Y007216D03*
X008250Y007216D03*
X008248Y007216D03*
X008245Y007214D03*
X008243Y007214D03*
X008240Y007214D03*
X008238Y007211D03*
X008235Y007211D03*
X008243Y007424D03*
X008233Y007426D03*
X008230Y007426D03*
X008233Y007541D03*
X008225Y007649D03*
X008223Y007649D03*
X008320Y007746D03*
X008323Y007749D03*
X008363Y007754D03*
X008370Y007751D03*
X008370Y007649D03*
X007610Y007074D03*
X007608Y007074D03*
X007553Y007254D03*
X007550Y007254D03*
X007323Y007244D03*
X007318Y006909D03*
X008225Y006759D03*
X008228Y006761D03*
X008230Y006761D03*
X008220Y006664D03*
X008338Y006774D03*
X008348Y006771D03*
X008355Y006769D03*
X008358Y006769D03*
X008360Y006766D03*
X008333Y006861D03*
X008330Y006861D03*
X008328Y006861D03*
X008325Y006861D03*
X008323Y006859D03*
X008320Y006859D03*
X008318Y006859D03*
X008315Y006859D03*
X008313Y006859D03*
X008310Y006859D03*
X008308Y006859D03*
X008303Y006859D03*
X008300Y006859D03*
X008295Y006856D03*
X008293Y006856D03*
X008290Y006856D03*
X008283Y006856D03*
X008280Y006856D03*
X008273Y006856D03*
X008270Y006859D03*
X008268Y006859D03*
X008265Y006859D03*
X008263Y006859D03*
X008260Y006859D03*
X008258Y006859D03*
X008255Y006859D03*
X008248Y006861D03*
X008245Y006861D03*
X008338Y006864D03*
X008340Y006864D03*
X008343Y006864D03*
X008345Y006866D03*
X008348Y006866D03*
X008350Y006866D03*
X008353Y006869D03*
X008355Y006869D03*
X008360Y006871D03*
X008253Y006446D03*
X008238Y006449D03*
X008235Y006449D03*
X008233Y006449D03*
X008233Y006241D03*
X008235Y006241D03*
X008230Y006241D03*
X008228Y006241D03*
X008240Y006241D03*
X008243Y006241D03*
X008245Y006241D03*
X008248Y006241D03*
X008180Y006191D03*
X008215Y006161D03*
X008243Y006066D03*
X008245Y006066D03*
X008248Y006066D03*
X008250Y006069D03*
X008253Y006069D03*
X008255Y006069D03*
X008260Y006071D03*
X008263Y006071D03*
X008265Y006071D03*
X008268Y006071D03*
X008270Y006071D03*
X008273Y006071D03*
X008278Y006074D03*
X008280Y006074D03*
X008283Y006074D03*
X008285Y006074D03*
X008288Y006074D03*
X008290Y006074D03*
X008293Y006074D03*
X008295Y006074D03*
X008298Y006074D03*
X008300Y006074D03*
X008303Y006074D03*
X008305Y006074D03*
X008308Y006074D03*
X008310Y006074D03*
X008313Y006074D03*
X008315Y006074D03*
X008320Y006074D03*
X008325Y006071D03*
X008328Y006071D03*
X008330Y006071D03*
X008333Y006071D03*
X008335Y006071D03*
X008338Y006071D03*
X008340Y006071D03*
X008343Y006069D03*
X008345Y006069D03*
X008348Y006069D03*
X008353Y006066D03*
X008355Y006066D03*
X008355Y006151D03*
X008353Y006151D03*
X008350Y006151D03*
X008348Y006151D03*
X008345Y006151D03*
X008358Y006151D03*
X008360Y006151D03*
X008365Y006154D03*
X008368Y006154D03*
X008380Y006244D03*
X008240Y006064D03*
X008238Y006064D03*
X008233Y006061D03*
X008180Y006001D03*
X008235Y005944D03*
X008240Y005941D03*
X008243Y005941D03*
X008245Y005939D03*
X008248Y005939D03*
X008250Y005939D03*
X008258Y005936D03*
X008260Y005936D03*
X008263Y005936D03*
X008265Y005936D03*
X008273Y005934D03*
X008278Y005934D03*
X008280Y005934D03*
X008283Y005934D03*
X008285Y005934D03*
X008288Y005934D03*
X008290Y005934D03*
X008293Y005934D03*
X008295Y005934D03*
X008298Y005934D03*
X008300Y005934D03*
X008303Y005934D03*
X008305Y005934D03*
X008308Y005934D03*
X008310Y005934D03*
X008313Y005934D03*
X008315Y005934D03*
X008330Y005936D03*
X008333Y005936D03*
X008335Y005936D03*
X008343Y005939D03*
X008345Y005939D03*
X008353Y005941D03*
X008360Y005944D03*
X008365Y005946D03*
X008368Y005949D03*
X008370Y005949D03*
X008373Y005951D03*
X008363Y005839D03*
X008360Y005839D03*
X008265Y005839D03*
X008215Y005839D03*
X008365Y005724D03*
X008338Y005476D03*
X008335Y005476D03*
X008333Y005476D03*
X008330Y005476D03*
X008340Y005474D03*
X008343Y005474D03*
X008345Y005474D03*
X008315Y005479D03*
X008308Y005479D03*
X008305Y005479D03*
X008303Y005479D03*
X008300Y005479D03*
X008298Y005479D03*
X008295Y005479D03*
X008293Y005479D03*
X008290Y005479D03*
X008288Y005479D03*
X008273Y005476D03*
X008270Y005476D03*
X008268Y005476D03*
X008258Y005474D03*
X008250Y005471D03*
X008248Y005471D03*
X008245Y005469D03*
X008243Y005469D03*
X008240Y005466D03*
X008238Y005466D03*
X008230Y005281D03*
X008225Y005279D03*
X008315Y005294D03*
X008348Y005291D03*
X008350Y005291D03*
X008355Y005289D03*
X008358Y005289D03*
X008360Y005286D03*
X008278Y005179D03*
X008220Y005184D03*
X008230Y004974D03*
X008243Y004849D03*
X008250Y004846D03*
X008253Y004846D03*
X008255Y004846D03*
X008263Y004844D03*
X008265Y004844D03*
X008268Y004844D03*
X008270Y004844D03*
X008273Y004844D03*
X008275Y004844D03*
X008278Y004844D03*
X008280Y004844D03*
X008283Y004844D03*
X008285Y004844D03*
X008288Y004844D03*
X008290Y004844D03*
X008293Y004844D03*
X008295Y004844D03*
X008298Y004844D03*
X008300Y004844D03*
X008303Y004844D03*
X008305Y004844D03*
X008308Y004844D03*
X008315Y004846D03*
X008318Y004846D03*
X008320Y004846D03*
X008323Y004846D03*
X008325Y004846D03*
X008328Y004846D03*
X008330Y004849D03*
X008333Y004849D03*
X008335Y004849D03*
X008338Y004849D03*
X008340Y004851D03*
X008343Y004851D03*
X008345Y004851D03*
X008350Y004854D03*
X008353Y004854D03*
X008358Y004856D03*
X008373Y004974D03*
X008370Y004661D03*
X008368Y004661D03*
X008325Y004659D03*
X008323Y004656D03*
X008320Y004656D03*
X008318Y004654D03*
X008370Y004559D03*
X008223Y004559D03*
X008180Y004594D03*
X008195Y004469D03*
X008200Y004466D03*
X008203Y004466D03*
X008208Y004464D03*
X008210Y004464D03*
X008215Y004254D03*
X008213Y004251D03*
X008280Y004264D03*
X008283Y004264D03*
X008285Y004264D03*
X008288Y004261D03*
X008290Y004261D03*
X008363Y004266D03*
X008420Y004134D03*
X008425Y004131D03*
X008480Y004154D03*
X008483Y004156D03*
X008485Y004159D03*
X008223Y004159D03*
X008268Y003911D03*
X008270Y003911D03*
X008273Y003911D03*
X008275Y003911D03*
X008278Y003911D03*
X008280Y003911D03*
X008283Y003911D03*
X008285Y003911D03*
X008288Y003911D03*
X008290Y003911D03*
X008293Y003911D03*
X008295Y003911D03*
X008298Y003911D03*
X008300Y003911D03*
X008303Y003911D03*
X008305Y003911D03*
X008308Y003911D03*
X008313Y003911D03*
X008315Y003911D03*
X008318Y003911D03*
X008320Y003911D03*
X008323Y003911D03*
X008325Y003911D03*
X008328Y003911D03*
X008330Y003911D03*
X008333Y003911D03*
X008335Y003909D03*
X008338Y003909D03*
X008340Y003909D03*
X008343Y003909D03*
X008345Y003909D03*
X008348Y003906D03*
X008350Y003906D03*
X008353Y003906D03*
X008358Y003904D03*
X008263Y003909D03*
X008260Y003909D03*
X008258Y003909D03*
X008255Y003909D03*
X008253Y003906D03*
X008250Y003906D03*
X008248Y003906D03*
X008243Y003904D03*
X008240Y003904D03*
X008238Y003901D03*
X008235Y003901D03*
X008233Y003784D03*
X008238Y003781D03*
X008240Y003781D03*
X008243Y003779D03*
X008245Y003779D03*
X008250Y003776D03*
X008253Y003776D03*
X008255Y003776D03*
X008265Y003774D03*
X008268Y003774D03*
X008270Y003774D03*
X008273Y003774D03*
X008275Y003774D03*
X008278Y003774D03*
X008318Y003774D03*
X008323Y003774D03*
X008325Y003774D03*
X008338Y003776D03*
X008348Y003779D03*
X008355Y003781D03*
X008363Y003784D03*
X008365Y003786D03*
X008368Y003786D03*
X008370Y003789D03*
X008358Y003679D03*
X008355Y003679D03*
X008363Y003676D03*
X008365Y003676D03*
X008288Y003679D03*
X008243Y003676D03*
X008240Y003676D03*
X008233Y003454D03*
X008233Y003339D03*
X008230Y003339D03*
X008240Y003336D03*
X008243Y003336D03*
X008245Y003336D03*
X008263Y003239D03*
X008265Y003239D03*
X008268Y003239D03*
X008275Y003241D03*
X008278Y003241D03*
X008280Y003241D03*
X008283Y003241D03*
X008285Y003241D03*
X008288Y003241D03*
X008290Y003241D03*
X008295Y003241D03*
X008300Y003241D03*
X008305Y003244D03*
X008308Y003244D03*
X008313Y003244D03*
X008318Y003241D03*
X008320Y003241D03*
X008323Y003241D03*
X008325Y003241D03*
X008328Y003241D03*
X008330Y003241D03*
X008333Y003241D03*
X008343Y003239D03*
X008258Y003236D03*
X008255Y003236D03*
X008250Y003234D03*
X008248Y003234D03*
X008245Y003231D03*
X008243Y003231D03*
X008238Y003229D03*
X008220Y003114D03*
X008408Y003104D03*
X008500Y004464D03*
X007635Y005051D03*
X007570Y005101D03*
X007608Y005224D03*
X007573Y005819D03*
X007318Y005839D03*
X007338Y004589D03*
X007340Y004589D03*
X007343Y004589D03*
X007383Y004581D03*
X007385Y004581D03*
X007575Y004471D03*
D34*
X007380Y004583D03*
X007378Y004583D03*
X007375Y004583D03*
X007368Y004585D03*
X007365Y004585D03*
X007353Y004588D03*
X007350Y004588D03*
X007348Y004588D03*
X007345Y004588D03*
X007578Y004780D03*
X007465Y005078D03*
X007320Y005088D03*
X008085Y004753D03*
X008088Y004753D03*
X008090Y004753D03*
X008093Y004753D03*
X008098Y004753D03*
X008105Y004753D03*
X008108Y004753D03*
X008110Y004753D03*
X008225Y004558D03*
X008228Y004558D03*
X008230Y004558D03*
X008235Y004555D03*
X008238Y004555D03*
X008240Y004555D03*
X008243Y004555D03*
X008245Y004555D03*
X008248Y004555D03*
X008250Y004555D03*
X008253Y004555D03*
X008255Y004555D03*
X008258Y004555D03*
X008260Y004555D03*
X008263Y004555D03*
X008265Y004555D03*
X008268Y004555D03*
X008270Y004555D03*
X008273Y004555D03*
X008308Y004555D03*
X008310Y004555D03*
X008313Y004555D03*
X008315Y004555D03*
X008318Y004555D03*
X008320Y004555D03*
X008323Y004555D03*
X008325Y004555D03*
X008328Y004555D03*
X008330Y004555D03*
X008333Y004555D03*
X008338Y004555D03*
X008368Y004558D03*
X008408Y004548D03*
X008470Y004435D03*
X008395Y004403D03*
X008293Y004438D03*
X008285Y004440D03*
X008278Y004443D03*
X008275Y004443D03*
X008270Y004445D03*
X008268Y004445D03*
X008260Y004448D03*
X008258Y004448D03*
X008253Y004450D03*
X008250Y004450D03*
X008245Y004453D03*
X008243Y004453D03*
X008238Y004455D03*
X008235Y004455D03*
X008233Y004455D03*
X008230Y004458D03*
X008228Y004458D03*
X008225Y004458D03*
X008223Y004460D03*
X008220Y004460D03*
X008218Y004460D03*
X008215Y004463D03*
X008213Y004463D03*
X008205Y004465D03*
X008198Y004468D03*
X008193Y004468D03*
X008328Y004660D03*
X008330Y004660D03*
X008333Y004663D03*
X008335Y004663D03*
X008338Y004663D03*
X008340Y004663D03*
X008350Y004665D03*
X008353Y004665D03*
X008355Y004665D03*
X008358Y004663D03*
X008360Y004663D03*
X008363Y004663D03*
X008365Y004663D03*
X008378Y004750D03*
X008380Y004750D03*
X008408Y004743D03*
X008313Y004845D03*
X008310Y004845D03*
X008310Y004975D03*
X008308Y004975D03*
X008305Y004975D03*
X008303Y004975D03*
X008300Y004975D03*
X008298Y004975D03*
X008295Y004975D03*
X008293Y004975D03*
X008290Y004975D03*
X008288Y004975D03*
X008285Y004975D03*
X008283Y004975D03*
X008280Y004975D03*
X008278Y004975D03*
X008275Y004975D03*
X008273Y004975D03*
X008270Y004975D03*
X008268Y004975D03*
X008265Y004975D03*
X008263Y004975D03*
X008260Y004975D03*
X008258Y004975D03*
X008255Y004975D03*
X008253Y004975D03*
X008250Y004975D03*
X008248Y004975D03*
X008245Y004975D03*
X008240Y004975D03*
X008238Y004975D03*
X008235Y004975D03*
X008233Y004975D03*
X008313Y004975D03*
X008315Y004975D03*
X008318Y004975D03*
X008320Y004975D03*
X008323Y004975D03*
X008325Y004975D03*
X008328Y004975D03*
X008330Y004975D03*
X008333Y004975D03*
X008335Y004975D03*
X008338Y004975D03*
X008340Y004975D03*
X008343Y004975D03*
X008345Y004975D03*
X008348Y004975D03*
X008350Y004975D03*
X008353Y004975D03*
X008355Y004975D03*
X008358Y004975D03*
X008360Y004975D03*
X008363Y004975D03*
X008365Y004975D03*
X008368Y004975D03*
X008370Y004975D03*
X008415Y004975D03*
X008418Y004975D03*
X008423Y004975D03*
X008425Y004975D03*
X008428Y004975D03*
X008430Y004975D03*
X008433Y004975D03*
X008435Y004975D03*
X008438Y004975D03*
X008440Y004975D03*
X008443Y004975D03*
X008445Y004975D03*
X008448Y004975D03*
X008450Y004975D03*
X008453Y004975D03*
X008455Y004975D03*
X008458Y004975D03*
X008460Y004975D03*
X008463Y004975D03*
X008465Y004975D03*
X008468Y004975D03*
X008470Y004975D03*
X008473Y004975D03*
X008475Y004975D03*
X008478Y004975D03*
X008480Y004975D03*
X008483Y004975D03*
X008485Y004975D03*
X008488Y004975D03*
X008493Y004975D03*
X008498Y004975D03*
X008240Y005178D03*
X008238Y005178D03*
X008230Y005180D03*
X008228Y005180D03*
X008225Y005183D03*
X008223Y005183D03*
X008228Y005280D03*
X008233Y005283D03*
X008235Y005285D03*
X008238Y005285D03*
X008240Y005288D03*
X008243Y005288D03*
X008245Y005288D03*
X008250Y005290D03*
X008253Y005290D03*
X008258Y005293D03*
X008260Y005293D03*
X008263Y005293D03*
X008265Y005293D03*
X008268Y005293D03*
X008275Y005295D03*
X008278Y005295D03*
X008318Y005295D03*
X008320Y005295D03*
X008323Y005295D03*
X008325Y005295D03*
X008328Y005295D03*
X008330Y005295D03*
X008333Y005295D03*
X008335Y005295D03*
X008338Y005293D03*
X008340Y005293D03*
X008343Y005293D03*
X008345Y005293D03*
X008353Y005290D03*
X008180Y005403D03*
X008253Y005473D03*
X008255Y005473D03*
X008260Y005475D03*
X008263Y005475D03*
X008265Y005475D03*
X008275Y005478D03*
X008278Y005478D03*
X008280Y005478D03*
X008283Y005478D03*
X008285Y005478D03*
X008310Y005478D03*
X008313Y005478D03*
X008318Y005478D03*
X008320Y005478D03*
X008323Y005478D03*
X008325Y005478D03*
X008328Y005478D03*
X008350Y005618D03*
X008353Y005618D03*
X008358Y005618D03*
X008360Y005618D03*
X008365Y005618D03*
X008368Y005618D03*
X008370Y005618D03*
X008373Y005618D03*
X008375Y005618D03*
X008378Y005618D03*
X008380Y005618D03*
X008383Y005618D03*
X008385Y005618D03*
X008388Y005618D03*
X008393Y005618D03*
X008398Y005618D03*
X008400Y005618D03*
X008363Y005723D03*
X008360Y005723D03*
X008358Y005723D03*
X008355Y005723D03*
X008353Y005723D03*
X008350Y005723D03*
X008348Y005723D03*
X008345Y005723D03*
X008343Y005723D03*
X008340Y005723D03*
X008338Y005723D03*
X008335Y005723D03*
X008333Y005723D03*
X008330Y005723D03*
X008328Y005723D03*
X008325Y005723D03*
X008323Y005723D03*
X008320Y005723D03*
X008318Y005723D03*
X008315Y005723D03*
X008313Y005723D03*
X008310Y005723D03*
X008308Y005723D03*
X008305Y005723D03*
X008303Y005723D03*
X008300Y005723D03*
X008298Y005723D03*
X008295Y005723D03*
X008293Y005723D03*
X008290Y005723D03*
X008288Y005723D03*
X008285Y005723D03*
X008283Y005723D03*
X008280Y005723D03*
X008278Y005723D03*
X008275Y005723D03*
X008273Y005723D03*
X008270Y005723D03*
X008268Y005723D03*
X008265Y005723D03*
X008263Y005723D03*
X008260Y005723D03*
X008258Y005723D03*
X008255Y005723D03*
X008253Y005723D03*
X008250Y005723D03*
X008248Y005723D03*
X008245Y005723D03*
X008243Y005723D03*
X008240Y005723D03*
X008238Y005723D03*
X008235Y005723D03*
X008233Y005723D03*
X008230Y005723D03*
X008228Y005723D03*
X008225Y005723D03*
X008223Y005723D03*
X008220Y005723D03*
X008218Y005723D03*
X008215Y005723D03*
X008213Y005723D03*
X008210Y005723D03*
X008208Y005723D03*
X008205Y005723D03*
X008203Y005723D03*
X008200Y005723D03*
X008233Y005615D03*
X008185Y005553D03*
X008218Y005838D03*
X008220Y005838D03*
X008223Y005838D03*
X008225Y005838D03*
X008228Y005838D03*
X008230Y005838D03*
X008233Y005838D03*
X008235Y005838D03*
X008238Y005838D03*
X008240Y005838D03*
X008243Y005838D03*
X008245Y005838D03*
X008248Y005838D03*
X008250Y005838D03*
X008253Y005838D03*
X008255Y005838D03*
X008258Y005838D03*
X008260Y005838D03*
X008263Y005838D03*
X008268Y005840D03*
X008270Y005840D03*
X008273Y005840D03*
X008275Y005840D03*
X008278Y005840D03*
X008280Y005840D03*
X008283Y005840D03*
X008285Y005840D03*
X008288Y005840D03*
X008290Y005840D03*
X008293Y005840D03*
X008295Y005840D03*
X008298Y005840D03*
X008300Y005840D03*
X008303Y005840D03*
X008305Y005840D03*
X008308Y005840D03*
X008315Y005843D03*
X008323Y005843D03*
X008325Y005843D03*
X008328Y005843D03*
X008330Y005843D03*
X008333Y005843D03*
X008335Y005843D03*
X008338Y005843D03*
X008340Y005843D03*
X008343Y005843D03*
X008345Y005843D03*
X008348Y005840D03*
X008350Y005840D03*
X008353Y005840D03*
X008355Y005840D03*
X008358Y005840D03*
X008340Y005938D03*
X008338Y005938D03*
X008348Y005940D03*
X008350Y005940D03*
X008355Y005943D03*
X008358Y005943D03*
X008363Y005945D03*
X008328Y005935D03*
X008325Y005935D03*
X008323Y005935D03*
X008320Y005935D03*
X008318Y005935D03*
X008275Y005935D03*
X008270Y005935D03*
X008268Y005935D03*
X008255Y005938D03*
X008253Y005938D03*
X008213Y005840D03*
X008210Y005840D03*
X008208Y005840D03*
X008205Y005840D03*
X008203Y005840D03*
X008200Y005843D03*
X008198Y005843D03*
X008195Y005843D03*
X008193Y005843D03*
X008258Y006070D03*
X008275Y006073D03*
X008318Y006073D03*
X008323Y006073D03*
X008363Y006153D03*
X008238Y006243D03*
X008258Y006445D03*
X008260Y006445D03*
X008265Y006445D03*
X008268Y006445D03*
X008270Y006445D03*
X008273Y006445D03*
X008275Y006445D03*
X008278Y006445D03*
X008280Y006445D03*
X008283Y006445D03*
X008285Y006445D03*
X008288Y006445D03*
X008290Y006445D03*
X008293Y006445D03*
X008295Y006445D03*
X008298Y006445D03*
X008300Y006445D03*
X008303Y006445D03*
X008305Y006445D03*
X008308Y006445D03*
X008310Y006445D03*
X008313Y006445D03*
X008315Y006445D03*
X008318Y006445D03*
X008320Y006445D03*
X008323Y006445D03*
X008325Y006445D03*
X008328Y006445D03*
X008330Y006445D03*
X008333Y006445D03*
X008335Y006445D03*
X008338Y006445D03*
X008340Y006445D03*
X008343Y006445D03*
X008345Y006445D03*
X008348Y006445D03*
X008350Y006445D03*
X008353Y006445D03*
X008355Y006445D03*
X008358Y006445D03*
X008360Y006445D03*
X008363Y006445D03*
X008365Y006445D03*
X008368Y006445D03*
X008373Y006445D03*
X008375Y006445D03*
X008378Y006445D03*
X008380Y006445D03*
X008383Y006445D03*
X008385Y006445D03*
X008388Y006445D03*
X008390Y006445D03*
X008393Y006445D03*
X008395Y006445D03*
X008398Y006445D03*
X008400Y006445D03*
X008403Y006445D03*
X008405Y006445D03*
X008400Y006568D03*
X008398Y006568D03*
X008395Y006568D03*
X008393Y006568D03*
X008390Y006568D03*
X008388Y006568D03*
X008383Y006568D03*
X008353Y006770D03*
X008350Y006770D03*
X008345Y006773D03*
X008343Y006773D03*
X008340Y006773D03*
X008335Y006775D03*
X008333Y006775D03*
X008330Y006775D03*
X008328Y006775D03*
X008325Y006775D03*
X008323Y006775D03*
X008320Y006775D03*
X008315Y006775D03*
X008278Y006775D03*
X008275Y006775D03*
X008273Y006775D03*
X008265Y006773D03*
X008263Y006773D03*
X008260Y006773D03*
X008258Y006773D03*
X008253Y006770D03*
X008250Y006770D03*
X008245Y006768D03*
X008243Y006768D03*
X008240Y006768D03*
X008238Y006765D03*
X008235Y006765D03*
X008233Y006763D03*
X008225Y006663D03*
X008223Y006663D03*
X008228Y006660D03*
X008230Y006660D03*
X008238Y006658D03*
X008240Y006658D03*
X008233Y006565D03*
X008240Y006448D03*
X008243Y006448D03*
X008245Y006448D03*
X008248Y006448D03*
X008250Y006448D03*
X008275Y006858D03*
X008285Y006858D03*
X008288Y006858D03*
X008298Y006858D03*
X008305Y006858D03*
X008335Y006863D03*
X008335Y006990D03*
X008333Y006990D03*
X008330Y006990D03*
X008328Y006990D03*
X008325Y006990D03*
X008323Y006990D03*
X008320Y006990D03*
X008318Y006990D03*
X008315Y006990D03*
X008313Y006990D03*
X008310Y006990D03*
X008308Y006990D03*
X008305Y006990D03*
X008303Y006990D03*
X008300Y006990D03*
X008298Y006990D03*
X008295Y006990D03*
X008293Y006990D03*
X008290Y006990D03*
X008288Y006990D03*
X008285Y006990D03*
X008283Y006990D03*
X008280Y006990D03*
X008278Y006990D03*
X008275Y006990D03*
X008273Y006990D03*
X008270Y006990D03*
X008268Y006990D03*
X008265Y006990D03*
X008263Y006990D03*
X008260Y006990D03*
X008258Y006990D03*
X008255Y006990D03*
X008253Y006990D03*
X008250Y006990D03*
X008248Y006990D03*
X008243Y006990D03*
X008238Y006990D03*
X008235Y006990D03*
X008233Y006990D03*
X008258Y007085D03*
X008260Y007085D03*
X008248Y007088D03*
X008275Y007083D03*
X008278Y007083D03*
X008280Y007083D03*
X008283Y007083D03*
X008285Y007083D03*
X008288Y007083D03*
X008290Y007083D03*
X008295Y007083D03*
X008303Y007083D03*
X008305Y007083D03*
X008308Y007083D03*
X008310Y007083D03*
X008313Y007083D03*
X008315Y007083D03*
X008328Y007085D03*
X008330Y007085D03*
X008333Y007085D03*
X008335Y007085D03*
X008343Y007088D03*
X008345Y007088D03*
X008348Y007088D03*
X008350Y007090D03*
X008353Y007090D03*
X008358Y007093D03*
X008360Y007093D03*
X008365Y007095D03*
X008365Y006990D03*
X008363Y006990D03*
X008360Y006990D03*
X008358Y006990D03*
X008355Y006990D03*
X008353Y006990D03*
X008350Y006990D03*
X008348Y006990D03*
X008345Y006990D03*
X008343Y006990D03*
X008340Y006990D03*
X008338Y006990D03*
X008368Y006990D03*
X008413Y006990D03*
X008415Y006990D03*
X008418Y006990D03*
X008420Y006990D03*
X008423Y006990D03*
X008425Y006990D03*
X008428Y006990D03*
X008430Y006990D03*
X008433Y006990D03*
X008435Y006990D03*
X008438Y006990D03*
X008440Y006990D03*
X008443Y006990D03*
X008445Y006990D03*
X008448Y006990D03*
X008450Y006990D03*
X008453Y006990D03*
X008455Y006990D03*
X008458Y006990D03*
X008460Y006990D03*
X008463Y006990D03*
X008465Y006990D03*
X008468Y006990D03*
X008470Y006990D03*
X008473Y006990D03*
X008475Y006990D03*
X008478Y006990D03*
X008480Y006990D03*
X008483Y006990D03*
X008485Y006990D03*
X008490Y006990D03*
X008310Y007223D03*
X008268Y007220D03*
X008180Y007150D03*
X008245Y007423D03*
X008248Y007423D03*
X008250Y007423D03*
X008253Y007423D03*
X008255Y007423D03*
X008258Y007423D03*
X008260Y007423D03*
X008263Y007423D03*
X008265Y007423D03*
X008268Y007423D03*
X008270Y007423D03*
X008273Y007423D03*
X008275Y007423D03*
X008278Y007423D03*
X008280Y007423D03*
X008283Y007423D03*
X008285Y007423D03*
X008288Y007423D03*
X008290Y007423D03*
X008293Y007423D03*
X008295Y007423D03*
X008298Y007423D03*
X008300Y007423D03*
X008303Y007423D03*
X008305Y007423D03*
X008308Y007423D03*
X008310Y007423D03*
X008313Y007423D03*
X008315Y007423D03*
X008318Y007423D03*
X008320Y007423D03*
X008323Y007423D03*
X008325Y007423D03*
X008328Y007423D03*
X008330Y007423D03*
X008333Y007423D03*
X008335Y007423D03*
X008338Y007423D03*
X008340Y007423D03*
X008343Y007423D03*
X008345Y007423D03*
X008348Y007423D03*
X008350Y007423D03*
X008353Y007423D03*
X008355Y007423D03*
X008358Y007423D03*
X008360Y007423D03*
X008363Y007423D03*
X008365Y007423D03*
X008368Y007423D03*
X008370Y007423D03*
X008373Y007423D03*
X008375Y007423D03*
X008378Y007423D03*
X008380Y007423D03*
X008383Y007423D03*
X008385Y007423D03*
X008388Y007423D03*
X008390Y007423D03*
X008393Y007423D03*
X008395Y007423D03*
X008398Y007423D03*
X008400Y007423D03*
X008393Y007543D03*
X008390Y007543D03*
X008388Y007543D03*
X008385Y007543D03*
X008383Y007543D03*
X008380Y007543D03*
X008378Y007543D03*
X008375Y007543D03*
X008373Y007543D03*
X008370Y007543D03*
X008368Y007543D03*
X008365Y007543D03*
X008363Y007543D03*
X008360Y007543D03*
X008358Y007543D03*
X008355Y007543D03*
X008353Y007543D03*
X008350Y007543D03*
X008348Y007543D03*
X008345Y007543D03*
X008343Y007543D03*
X008340Y007543D03*
X008338Y007543D03*
X008335Y007543D03*
X008333Y007543D03*
X008330Y007543D03*
X008328Y007543D03*
X008325Y007543D03*
X008323Y007543D03*
X008320Y007543D03*
X008318Y007543D03*
X008315Y007543D03*
X008313Y007543D03*
X008310Y007543D03*
X008308Y007543D03*
X008305Y007543D03*
X008303Y007543D03*
X008300Y007543D03*
X008298Y007543D03*
X008295Y007543D03*
X008293Y007543D03*
X008290Y007543D03*
X008288Y007543D03*
X008285Y007543D03*
X008283Y007543D03*
X008280Y007543D03*
X008278Y007543D03*
X008275Y007543D03*
X008273Y007543D03*
X008270Y007543D03*
X008268Y007543D03*
X008265Y007543D03*
X008263Y007543D03*
X008260Y007543D03*
X008258Y007543D03*
X008255Y007543D03*
X008253Y007543D03*
X008250Y007543D03*
X008248Y007543D03*
X008245Y007543D03*
X008243Y007543D03*
X008240Y007543D03*
X008238Y007543D03*
X008235Y007543D03*
X008230Y007648D03*
X008228Y007648D03*
X008223Y007738D03*
X008325Y007750D03*
X008328Y007750D03*
X008330Y007753D03*
X008333Y007753D03*
X008335Y007753D03*
X008340Y007755D03*
X008345Y007755D03*
X008348Y007755D03*
X008350Y007755D03*
X008353Y007755D03*
X008355Y007755D03*
X008358Y007755D03*
X008360Y007755D03*
X008365Y007753D03*
X008368Y007753D03*
X008368Y007648D03*
X008365Y007648D03*
X008363Y007648D03*
X008408Y007638D03*
X008240Y007425D03*
X008238Y007425D03*
X008235Y007425D03*
X007628Y007073D03*
X007615Y007073D03*
X007613Y007073D03*
X007575Y006920D03*
X007325Y007245D03*
X007315Y006408D03*
X008260Y004268D03*
X008265Y004268D03*
X008268Y004265D03*
X008270Y004265D03*
X008273Y004265D03*
X008275Y004265D03*
X008278Y004265D03*
X008360Y004268D03*
X008305Y004163D03*
X008303Y004160D03*
X008245Y004153D03*
X008230Y004158D03*
X008225Y004160D03*
X008233Y004048D03*
X008265Y004050D03*
X008268Y004050D03*
X008270Y004050D03*
X008273Y004050D03*
X008275Y004050D03*
X008278Y004050D03*
X008280Y004050D03*
X008283Y004050D03*
X008285Y004050D03*
X008288Y004050D03*
X008290Y004050D03*
X008293Y004050D03*
X008295Y004050D03*
X008298Y004050D03*
X008300Y004050D03*
X008303Y004050D03*
X008305Y004050D03*
X008308Y004050D03*
X008310Y004050D03*
X008313Y004050D03*
X008315Y004050D03*
X008318Y004050D03*
X008320Y004050D03*
X008323Y004050D03*
X008325Y004050D03*
X008328Y004050D03*
X008330Y004050D03*
X008333Y004050D03*
X008335Y004050D03*
X008338Y004050D03*
X008340Y004050D03*
X008343Y004050D03*
X008345Y004050D03*
X008348Y004050D03*
X008350Y004050D03*
X008353Y004050D03*
X008355Y004050D03*
X008358Y004050D03*
X008360Y004050D03*
X008363Y004050D03*
X008365Y004050D03*
X008368Y004050D03*
X008373Y004050D03*
X008375Y004050D03*
X008378Y004050D03*
X008380Y004050D03*
X008383Y004050D03*
X008385Y004050D03*
X008388Y004050D03*
X008390Y004050D03*
X008393Y004050D03*
X008395Y004050D03*
X008398Y004050D03*
X008423Y004133D03*
X008430Y004130D03*
X008478Y004150D03*
X008500Y004278D03*
X008310Y003913D03*
X008265Y003910D03*
X008245Y003905D03*
X008180Y003840D03*
X008248Y003778D03*
X008258Y003775D03*
X008260Y003775D03*
X008263Y003775D03*
X008280Y003773D03*
X008283Y003773D03*
X008285Y003773D03*
X008288Y003773D03*
X008290Y003773D03*
X008293Y003773D03*
X008295Y003773D03*
X008298Y003773D03*
X008300Y003773D03*
X008303Y003773D03*
X008305Y003773D03*
X008308Y003773D03*
X008310Y003773D03*
X008313Y003773D03*
X008315Y003773D03*
X008320Y003773D03*
X008328Y003775D03*
X008330Y003775D03*
X008333Y003775D03*
X008335Y003775D03*
X008340Y003778D03*
X008343Y003778D03*
X008345Y003778D03*
X008350Y003780D03*
X008353Y003780D03*
X008358Y003783D03*
X008360Y003783D03*
X008353Y003680D03*
X008350Y003680D03*
X008348Y003680D03*
X008345Y003680D03*
X008343Y003680D03*
X008340Y003680D03*
X008338Y003680D03*
X008335Y003680D03*
X008333Y003680D03*
X008328Y003680D03*
X008325Y003680D03*
X008323Y003680D03*
X008320Y003680D03*
X008318Y003680D03*
X008315Y003680D03*
X008313Y003680D03*
X008310Y003680D03*
X008308Y003680D03*
X008305Y003680D03*
X008303Y003680D03*
X008300Y003680D03*
X008298Y003680D03*
X008295Y003680D03*
X008293Y003680D03*
X008290Y003680D03*
X008285Y003678D03*
X008283Y003678D03*
X008280Y003678D03*
X008278Y003678D03*
X008275Y003678D03*
X008273Y003678D03*
X008270Y003678D03*
X008268Y003678D03*
X008265Y003678D03*
X008263Y003678D03*
X008260Y003678D03*
X008258Y003678D03*
X008255Y003678D03*
X008253Y003678D03*
X008250Y003678D03*
X008248Y003678D03*
X008245Y003678D03*
X008238Y003675D03*
X008235Y003678D03*
X008233Y003675D03*
X008230Y003678D03*
X008223Y003678D03*
X008220Y003678D03*
X008218Y003678D03*
X008215Y003678D03*
X008213Y003678D03*
X008210Y003678D03*
X008208Y003678D03*
X008205Y003680D03*
X008203Y003680D03*
X008200Y003680D03*
X008198Y003680D03*
X008195Y003683D03*
X008193Y003683D03*
X008198Y003560D03*
X008200Y003560D03*
X008203Y003560D03*
X008205Y003560D03*
X008208Y003560D03*
X008210Y003560D03*
X008213Y003560D03*
X008215Y003560D03*
X008218Y003560D03*
X008220Y003560D03*
X008223Y003560D03*
X008225Y003560D03*
X008230Y003560D03*
X008235Y003560D03*
X008235Y003455D03*
X008238Y003455D03*
X008240Y003455D03*
X008243Y003455D03*
X008245Y003455D03*
X008248Y003455D03*
X008250Y003455D03*
X008253Y003455D03*
X008255Y003455D03*
X008258Y003455D03*
X008260Y003455D03*
X008263Y003455D03*
X008265Y003455D03*
X008268Y003455D03*
X008270Y003455D03*
X008273Y003455D03*
X008275Y003455D03*
X008278Y003455D03*
X008280Y003455D03*
X008283Y003455D03*
X008285Y003455D03*
X008288Y003455D03*
X008290Y003455D03*
X008293Y003455D03*
X008295Y003455D03*
X008298Y003455D03*
X008300Y003455D03*
X008303Y003455D03*
X008305Y003455D03*
X008308Y003455D03*
X008310Y003455D03*
X008313Y003455D03*
X008315Y003455D03*
X008318Y003455D03*
X008320Y003455D03*
X008323Y003455D03*
X008325Y003455D03*
X008328Y003455D03*
X008330Y003455D03*
X008333Y003455D03*
X008335Y003455D03*
X008338Y003455D03*
X008340Y003455D03*
X008343Y003455D03*
X008345Y003455D03*
X008348Y003455D03*
X008350Y003455D03*
X008353Y003455D03*
X008355Y003455D03*
X008358Y003455D03*
X008360Y003455D03*
X008363Y003455D03*
X008365Y003455D03*
X008368Y003455D03*
X008370Y003455D03*
X008373Y003455D03*
X008375Y003455D03*
X008378Y003455D03*
X008380Y003455D03*
X008383Y003455D03*
X008385Y003455D03*
X008388Y003455D03*
X008390Y003455D03*
X008393Y003455D03*
X008365Y003563D03*
X008360Y003678D03*
X008185Y003985D03*
X008235Y003338D03*
X008238Y003338D03*
X008248Y003335D03*
X008250Y003335D03*
X008253Y003335D03*
X008255Y003335D03*
X008258Y003335D03*
X008260Y003335D03*
X008263Y003335D03*
X008265Y003335D03*
X008268Y003335D03*
X008270Y003335D03*
X008273Y003335D03*
X008275Y003335D03*
X008278Y003335D03*
X008280Y003335D03*
X008283Y003335D03*
X008285Y003335D03*
X008288Y003335D03*
X008290Y003335D03*
X008293Y003335D03*
X008295Y003335D03*
X008298Y003335D03*
X008300Y003335D03*
X008303Y003335D03*
X008305Y003335D03*
X008308Y003335D03*
X008310Y003335D03*
X008313Y003335D03*
X008315Y003335D03*
X008318Y003335D03*
X008320Y003335D03*
X008323Y003335D03*
X008325Y003335D03*
X008328Y003335D03*
X008330Y003335D03*
X008333Y003335D03*
X008335Y003335D03*
X008338Y003335D03*
X008340Y003335D03*
X008343Y003335D03*
X008345Y003335D03*
X008348Y003335D03*
X008350Y003335D03*
X008353Y003335D03*
X008355Y003335D03*
X008358Y003335D03*
X008360Y003335D03*
X008363Y003335D03*
X008365Y003335D03*
X008368Y003335D03*
X008370Y003335D03*
X008373Y003335D03*
X008375Y003335D03*
X008378Y003335D03*
X008380Y003335D03*
X008383Y003335D03*
X008385Y003335D03*
X008388Y003335D03*
X008390Y003335D03*
X008393Y003335D03*
X008395Y003335D03*
X008398Y003335D03*
X008400Y003335D03*
X008298Y003243D03*
X008293Y003243D03*
X008273Y003240D03*
X008270Y003240D03*
X008260Y003238D03*
X008253Y003235D03*
X008253Y003113D03*
X008255Y003113D03*
X008258Y003113D03*
X008260Y003113D03*
X008263Y003113D03*
X008265Y003113D03*
X008268Y003113D03*
X008270Y003113D03*
X008273Y003113D03*
X008275Y003113D03*
X008278Y003113D03*
X008280Y003113D03*
X008283Y003113D03*
X008285Y003113D03*
X008288Y003113D03*
X008290Y003113D03*
X008293Y003113D03*
X008295Y003113D03*
X008298Y003113D03*
X008300Y003113D03*
X008303Y003113D03*
X008305Y003113D03*
X008308Y003113D03*
X008310Y003113D03*
X008313Y003113D03*
X008315Y003113D03*
X008318Y003113D03*
X008320Y003113D03*
X008323Y003113D03*
X008325Y003113D03*
X008328Y003113D03*
X008330Y003113D03*
X008333Y003113D03*
X008335Y003113D03*
X008338Y003113D03*
X008340Y003113D03*
X008343Y003113D03*
X008345Y003113D03*
X008348Y003113D03*
X008350Y003113D03*
X008355Y003113D03*
X008358Y003113D03*
X008360Y003113D03*
X008368Y003113D03*
X008415Y003180D03*
X008250Y003113D03*
X008248Y003113D03*
X008245Y003113D03*
X008243Y003113D03*
X008240Y003113D03*
X008238Y003113D03*
X008235Y003113D03*
X008233Y003113D03*
X008230Y003113D03*
X008228Y003113D03*
X008225Y003113D03*
X008223Y003113D03*
X008180Y003113D03*
X008178Y003113D03*
X008175Y003113D03*
X008173Y003113D03*
X008170Y003113D03*
X008168Y003113D03*
X008165Y003113D03*
X008163Y003113D03*
X008160Y003113D03*
X008158Y003113D03*
X008155Y003113D03*
X008153Y003113D03*
X008150Y003113D03*
X008148Y003113D03*
X008145Y003113D03*
X008143Y003113D03*
X008140Y003113D03*
X008138Y003113D03*
X008135Y003113D03*
X008133Y003113D03*
X008130Y003113D03*
X008128Y003113D03*
X008125Y003113D03*
X008123Y003113D03*
X008120Y003113D03*
X008118Y003113D03*
X008115Y003113D03*
X008113Y003113D03*
X008110Y003113D03*
X008108Y003113D03*
X008105Y003113D03*
X008103Y003113D03*
X008100Y003113D03*
X008098Y003113D03*
X008095Y003113D03*
X008093Y003113D03*
X008088Y003113D03*
D35*
X008188Y003380D03*
X008408Y003183D03*
X008408Y003635D03*
X008410Y003845D03*
X008500Y004190D03*
X008345Y004403D03*
X008343Y004403D03*
X008475Y004455D03*
X008405Y004623D03*
X008275Y004573D03*
X008185Y004598D03*
X008188Y004903D03*
X008188Y005228D03*
X007545Y005098D03*
X007543Y005098D03*
X007540Y005098D03*
X007508Y005095D03*
X007505Y005095D03*
X007503Y005095D03*
X007500Y005095D03*
X007330Y005100D03*
X007315Y004935D03*
X007313Y004935D03*
X007310Y004935D03*
X007308Y004935D03*
X007325Y004765D03*
X007295Y004593D03*
X007430Y004563D03*
X007568Y004600D03*
X007573Y004603D03*
X007575Y004605D03*
X007578Y004605D03*
X007580Y004608D03*
X007558Y004770D03*
X007345Y005843D03*
X007343Y005843D03*
X007275Y005965D03*
X007308Y006243D03*
X007310Y006243D03*
X007333Y006408D03*
X007320Y006575D03*
X007318Y006575D03*
X007308Y006740D03*
X007305Y006740D03*
X007555Y006740D03*
X007558Y006740D03*
X007605Y006555D03*
X007560Y006408D03*
X007563Y006240D03*
X007565Y006240D03*
X008188Y006708D03*
X008410Y007155D03*
X008188Y007468D03*
X008275Y007665D03*
X008185Y007688D03*
X008405Y007713D03*
X007553Y007090D03*
X007320Y007090D03*
X007318Y007090D03*
X007325Y007403D03*
X008410Y006005D03*
D36*
X008378Y006054D03*
X008378Y006161D03*
X008328Y006161D03*
X008263Y006231D03*
X008260Y006234D03*
X008218Y006234D03*
X008218Y006049D03*
X008218Y005956D03*
X008375Y005831D03*
X008413Y005796D03*
X008373Y005729D03*
X008370Y005461D03*
X008223Y005454D03*
X008220Y005451D03*
X008215Y005269D03*
X008378Y004969D03*
X008378Y004871D03*
X008385Y004744D03*
X008388Y004744D03*
X008393Y004744D03*
X008223Y004861D03*
X008183Y004901D03*
X008498Y004464D03*
X008380Y004404D03*
X008308Y004249D03*
X008413Y004139D03*
X008495Y004174D03*
X008380Y003889D03*
X008218Y003889D03*
X008225Y003449D03*
X008183Y003379D03*
X008220Y003346D03*
X008375Y003119D03*
X007408Y004574D03*
X007405Y004574D03*
X007320Y004591D03*
X007318Y004591D03*
X007575Y004781D03*
X007600Y004921D03*
X007603Y004921D03*
X007615Y005221D03*
X007305Y005981D03*
X007310Y005984D03*
X007315Y005986D03*
X007318Y005989D03*
X007320Y005989D03*
X007323Y005991D03*
X007383Y006229D03*
X007385Y006229D03*
X007388Y006229D03*
X007390Y006229D03*
X007393Y006229D03*
X007395Y006229D03*
X007398Y006229D03*
X007480Y006229D03*
X007483Y006229D03*
X007485Y006229D03*
X007488Y006229D03*
X007490Y006229D03*
X007493Y006229D03*
X007495Y006229D03*
X007498Y006229D03*
X007508Y006586D03*
X007510Y006586D03*
X007513Y006586D03*
X007515Y006586D03*
X007518Y006586D03*
X007390Y006586D03*
X007388Y006586D03*
X007385Y006586D03*
X007383Y006586D03*
X007380Y006586D03*
X007378Y006586D03*
X007378Y006729D03*
X007380Y006729D03*
X007375Y006729D03*
X007373Y006729D03*
X007370Y006729D03*
X007368Y006729D03*
X007365Y006729D03*
X007465Y006729D03*
X007468Y006729D03*
X007470Y006729D03*
X007473Y006729D03*
X007475Y006729D03*
X007478Y006729D03*
X007480Y006729D03*
X007483Y006729D03*
X007320Y006909D03*
X007275Y007076D03*
X007290Y007084D03*
X007313Y007244D03*
X007560Y007254D03*
X007563Y007254D03*
X007590Y007079D03*
X007593Y007079D03*
X008183Y006916D03*
X008223Y006874D03*
X008225Y006871D03*
X008225Y006984D03*
X008378Y006984D03*
X008380Y007199D03*
X008220Y007434D03*
X008183Y007466D03*
X008225Y007536D03*
X008375Y007654D03*
X008220Y007731D03*
X008215Y006749D03*
X008225Y006561D03*
D37*
X008220Y006556D03*
X008215Y006229D03*
X008183Y006191D03*
X008273Y006221D03*
X008275Y006219D03*
X008380Y006169D03*
X008413Y006006D03*
X008193Y005559D03*
X008218Y005446D03*
X007620Y004919D03*
X007583Y004929D03*
X007570Y004776D03*
X007420Y004569D03*
X007308Y004591D03*
X007480Y005089D03*
X007333Y005841D03*
X007330Y005841D03*
X007290Y005974D03*
X007340Y006234D03*
X007343Y006234D03*
X007345Y006234D03*
X007533Y006234D03*
X007535Y006234D03*
X007538Y006234D03*
X007568Y006409D03*
X007593Y006559D03*
X007595Y006559D03*
X007555Y006581D03*
X007553Y006581D03*
X007550Y006581D03*
X007528Y006734D03*
X007525Y006734D03*
X007523Y006734D03*
X007520Y006734D03*
X007335Y006734D03*
X007333Y006734D03*
X007330Y006734D03*
X007345Y006581D03*
X007348Y006581D03*
X007303Y007086D03*
X007303Y007244D03*
X007305Y007244D03*
X007570Y007254D03*
X007573Y007254D03*
X007633Y007424D03*
X007575Y007084D03*
X007573Y007084D03*
X008215Y007111D03*
X008220Y006979D03*
X008220Y007531D03*
X008183Y007686D03*
X008308Y007729D03*
X008218Y004869D03*
X008308Y004639D03*
X008183Y004596D03*
X008365Y004404D03*
X008498Y004181D03*
X008185Y004209D03*
X008193Y003991D03*
X008215Y003801D03*
X008383Y003884D03*
X008378Y003664D03*
X008220Y003444D03*
X008215Y003206D03*
X008378Y003219D03*
D38*
X008375Y003221D03*
X008223Y003446D03*
X008225Y004041D03*
X008373Y004404D03*
X008495Y004464D03*
X008220Y004864D03*
X008380Y004966D03*
X008375Y005274D03*
X008375Y005456D03*
X008190Y005556D03*
X008375Y005731D03*
X008183Y006001D03*
X008215Y006044D03*
X008268Y006226D03*
X008265Y006229D03*
X008375Y006754D03*
X008220Y006876D03*
X008223Y006981D03*
X008380Y006981D03*
X008413Y006926D03*
X008380Y006889D03*
X008383Y007114D03*
X008223Y007534D03*
X008273Y007656D03*
X007568Y007254D03*
X007565Y007254D03*
X007583Y007081D03*
X007298Y007086D03*
X007270Y007071D03*
X007308Y007244D03*
X007310Y007244D03*
X007345Y006731D03*
X007348Y006731D03*
X007350Y006731D03*
X007353Y006731D03*
X007358Y006584D03*
X007360Y006584D03*
X007363Y006584D03*
X007365Y006584D03*
X007533Y006584D03*
X007535Y006584D03*
X007538Y006584D03*
X007540Y006584D03*
X007588Y006561D03*
X007510Y006731D03*
X007508Y006731D03*
X007505Y006731D03*
X007503Y006731D03*
X007500Y006731D03*
X007570Y006409D03*
X007520Y006231D03*
X007518Y006231D03*
X007515Y006231D03*
X007513Y006231D03*
X007365Y006231D03*
X007363Y006231D03*
X007360Y006231D03*
X007358Y006231D03*
X007300Y005979D03*
X007295Y005976D03*
X007618Y005221D03*
X007565Y005099D03*
X007475Y005086D03*
X007610Y004921D03*
X007613Y004921D03*
X007615Y004921D03*
X007573Y004779D03*
X007413Y004571D03*
X007315Y004591D03*
X007313Y004591D03*
X007318Y004431D03*
X007573Y004474D03*
D39*
X007418Y004570D03*
X007415Y004570D03*
X007310Y004593D03*
X007320Y004763D03*
X007325Y005093D03*
X007478Y005088D03*
X007563Y005098D03*
X007638Y005053D03*
X007618Y004920D03*
X007620Y005220D03*
X008220Y004965D03*
X008410Y004623D03*
X008378Y004565D03*
X008493Y004463D03*
X008370Y004403D03*
X008368Y004403D03*
X008368Y004258D03*
X008215Y003883D03*
X008183Y003840D03*
X008375Y003570D03*
X008378Y003123D03*
X008215Y003123D03*
X007328Y005840D03*
X007293Y005975D03*
X007298Y005978D03*
X007348Y006233D03*
X007350Y006233D03*
X007353Y006233D03*
X007355Y006233D03*
X007323Y006408D03*
X007350Y006583D03*
X007353Y006583D03*
X007355Y006583D03*
X007343Y006733D03*
X007340Y006733D03*
X007338Y006733D03*
X007513Y006733D03*
X007515Y006733D03*
X007518Y006733D03*
X007543Y006583D03*
X007545Y006583D03*
X007548Y006583D03*
X007590Y006560D03*
X007530Y006233D03*
X007528Y006233D03*
X007525Y006233D03*
X007523Y006233D03*
X007323Y006910D03*
X007268Y007068D03*
X007300Y007085D03*
X007578Y007083D03*
X007580Y007083D03*
X008183Y007150D03*
X008215Y007193D03*
X008378Y007655D03*
X008410Y007713D03*
X008270Y006225D03*
X008318Y006170D03*
X008320Y006168D03*
X008323Y006165D03*
X008383Y005965D03*
X008215Y005960D03*
D40*
X008220Y005953D03*
X008220Y006053D03*
X008330Y006158D03*
X008415Y006210D03*
X008415Y006005D03*
X008258Y006235D03*
X008223Y006455D03*
X008183Y006490D03*
X008215Y006670D03*
X008370Y006760D03*
X008228Y006870D03*
X008375Y006883D03*
X008378Y006885D03*
X008380Y007108D03*
X008415Y007155D03*
X008378Y007203D03*
X008375Y007205D03*
X008220Y007200D03*
X008218Y007198D03*
X008220Y007103D03*
X008223Y007100D03*
X008223Y007430D03*
X008413Y007713D03*
X008378Y007745D03*
X007598Y007078D03*
X007595Y007078D03*
X007573Y006920D03*
X007463Y006728D03*
X007460Y006728D03*
X007458Y006728D03*
X007455Y006728D03*
X007453Y006728D03*
X007450Y006728D03*
X007448Y006728D03*
X007445Y006728D03*
X007443Y006728D03*
X007440Y006728D03*
X007438Y006728D03*
X007435Y006728D03*
X007433Y006728D03*
X007430Y006728D03*
X007428Y006728D03*
X007425Y006728D03*
X007423Y006728D03*
X007420Y006728D03*
X007418Y006728D03*
X007415Y006728D03*
X007413Y006728D03*
X007410Y006728D03*
X007408Y006728D03*
X007405Y006728D03*
X007403Y006728D03*
X007400Y006728D03*
X007398Y006728D03*
X007395Y006728D03*
X007393Y006728D03*
X007390Y006728D03*
X007388Y006728D03*
X007385Y006728D03*
X007383Y006728D03*
X007393Y006588D03*
X007395Y006588D03*
X007398Y006588D03*
X007400Y006588D03*
X007403Y006588D03*
X007405Y006588D03*
X007408Y006588D03*
X007410Y006588D03*
X007485Y006588D03*
X007488Y006588D03*
X007490Y006588D03*
X007493Y006588D03*
X007495Y006588D03*
X007498Y006588D03*
X007500Y006588D03*
X007503Y006588D03*
X007505Y006588D03*
X007573Y006408D03*
X007478Y006228D03*
X007475Y006228D03*
X007473Y006228D03*
X007470Y006228D03*
X007468Y006228D03*
X007465Y006228D03*
X007463Y006228D03*
X007460Y006228D03*
X007458Y006228D03*
X007455Y006228D03*
X007453Y006228D03*
X007450Y006228D03*
X007448Y006228D03*
X007445Y006228D03*
X007443Y006228D03*
X007440Y006228D03*
X007438Y006228D03*
X007435Y006228D03*
X007433Y006228D03*
X007430Y006228D03*
X007428Y006228D03*
X007425Y006228D03*
X007423Y006228D03*
X007420Y006228D03*
X007418Y006228D03*
X007415Y006228D03*
X007413Y006228D03*
X007410Y006228D03*
X007408Y006228D03*
X007405Y006228D03*
X007403Y006228D03*
X007400Y006228D03*
X007318Y006408D03*
X007323Y005840D03*
X007323Y005090D03*
X007470Y005083D03*
X007568Y005100D03*
X007585Y004923D03*
X007588Y004923D03*
X007590Y004923D03*
X007593Y004923D03*
X007595Y004923D03*
X007598Y004923D03*
X007318Y004763D03*
X007248Y004783D03*
X007323Y004590D03*
X007325Y004590D03*
X007403Y004575D03*
X008220Y004643D03*
X008313Y004648D03*
X008378Y004655D03*
X008413Y004623D03*
X008395Y004745D03*
X008390Y004745D03*
X008375Y004868D03*
X008225Y004858D03*
X008225Y004970D03*
X008215Y005190D03*
X008370Y005280D03*
X008368Y005463D03*
X008365Y005465D03*
X008188Y005555D03*
X008473Y004443D03*
X008385Y004403D03*
X008383Y004403D03*
X008365Y004263D03*
X008305Y004253D03*
X008183Y004208D03*
X008188Y003988D03*
X008220Y003890D03*
X008220Y003793D03*
X008223Y003790D03*
X008375Y003895D03*
X008378Y003893D03*
X008415Y003845D03*
X008380Y003798D03*
X008373Y003673D03*
X008375Y003670D03*
X008368Y003230D03*
X008365Y003230D03*
X008370Y003228D03*
X008223Y003218D03*
X008220Y003215D03*
X008493Y004170D03*
X007315Y007245D03*
D41*
X007318Y007244D03*
X007288Y007084D03*
X007285Y007084D03*
X007283Y007081D03*
X007280Y007081D03*
X007278Y007079D03*
X007555Y007254D03*
X007558Y007254D03*
X007600Y007076D03*
X007630Y007076D03*
X007483Y006589D03*
X007480Y006589D03*
X007478Y006589D03*
X007475Y006589D03*
X007473Y006589D03*
X007470Y006589D03*
X007468Y006589D03*
X007465Y006589D03*
X007463Y006589D03*
X007460Y006589D03*
X007458Y006589D03*
X007455Y006589D03*
X007453Y006589D03*
X007450Y006589D03*
X007448Y006589D03*
X007445Y006589D03*
X007443Y006589D03*
X007440Y006589D03*
X007438Y006589D03*
X007435Y006589D03*
X007433Y006589D03*
X007430Y006589D03*
X007428Y006589D03*
X007425Y006589D03*
X007423Y006589D03*
X007420Y006589D03*
X007418Y006589D03*
X007415Y006589D03*
X007413Y006589D03*
X007320Y005839D03*
X007613Y005221D03*
X008218Y005271D03*
X008365Y005284D03*
X008368Y005281D03*
X008363Y005466D03*
X008360Y005469D03*
X008358Y005469D03*
X008230Y005461D03*
X008228Y005459D03*
X008225Y005456D03*
X008228Y005611D03*
X008370Y005726D03*
X008373Y005834D03*
X008380Y005959D03*
X008375Y006056D03*
X008373Y006059D03*
X008370Y006059D03*
X008373Y006156D03*
X008375Y006159D03*
X008338Y006154D03*
X008333Y006156D03*
X008255Y006236D03*
X008253Y006239D03*
X008223Y006239D03*
X008220Y006236D03*
X008225Y006056D03*
X008223Y006054D03*
X008223Y005951D03*
X008225Y005949D03*
X008228Y006451D03*
X008228Y006561D03*
X008218Y006751D03*
X008233Y006866D03*
X008230Y006869D03*
X008228Y006986D03*
X008228Y007096D03*
X008223Y007204D03*
X008370Y007209D03*
X008373Y007206D03*
X008378Y007104D03*
X008375Y006986D03*
X008373Y006879D03*
X008365Y006764D03*
X008368Y006761D03*
X008225Y007429D03*
X008228Y007539D03*
X008373Y007651D03*
X008375Y007749D03*
X008315Y007741D03*
X008313Y007739D03*
X008375Y004971D03*
X008373Y004866D03*
X008370Y004864D03*
X008398Y004744D03*
X008400Y004744D03*
X008315Y004651D03*
X008373Y004561D03*
X008220Y004561D03*
X008388Y004404D03*
X008300Y004256D03*
X008303Y004254D03*
X008415Y004136D03*
X008490Y004166D03*
X008370Y003899D03*
X008373Y003896D03*
X008223Y003894D03*
X008228Y003786D03*
X008370Y003674D03*
X008370Y003566D03*
X008228Y003451D03*
X008223Y003344D03*
X008225Y003341D03*
X008225Y003221D03*
X008218Y003116D03*
X008373Y003116D03*
X008363Y003231D03*
X008360Y003234D03*
X008358Y003234D03*
X008353Y003236D03*
X008228Y004044D03*
X008230Y004854D03*
X008228Y004856D03*
X008228Y004971D03*
X007400Y004576D03*
X007398Y004576D03*
X007393Y004579D03*
X007328Y004591D03*
X007315Y004431D03*
D42*
X007303Y004591D03*
X007425Y004566D03*
X007323Y004764D03*
X007565Y004774D03*
X007575Y004931D03*
X007578Y004931D03*
X007558Y005096D03*
X007488Y005091D03*
X007485Y005091D03*
X007328Y005096D03*
X007335Y005841D03*
X007285Y005971D03*
X007328Y006236D03*
X007330Y006236D03*
X007333Y006236D03*
X007548Y006236D03*
X007550Y006236D03*
X007583Y006569D03*
X007580Y006571D03*
X007573Y006576D03*
X007570Y006576D03*
X007568Y006579D03*
X007565Y006579D03*
X007563Y006579D03*
X007540Y006736D03*
X007538Y006736D03*
X007535Y006736D03*
X007323Y006736D03*
X007320Y006736D03*
X007333Y006579D03*
X007335Y006579D03*
X007265Y007064D03*
X007310Y007089D03*
X007300Y007244D03*
X007575Y007254D03*
X007565Y007086D03*
X007633Y007086D03*
X008185Y006706D03*
X008378Y006749D03*
X008280Y006214D03*
X008283Y006211D03*
X008290Y006201D03*
X008300Y006189D03*
X008303Y006186D03*
X008305Y006184D03*
X008308Y006181D03*
X008410Y005796D03*
X008195Y005561D03*
X008185Y005226D03*
X008378Y005269D03*
X008488Y004461D03*
X008358Y004404D03*
X008355Y004404D03*
X008195Y003994D03*
X008410Y003181D03*
X008408Y007714D03*
D43*
X008373Y007750D03*
X008318Y007745D03*
X008220Y007653D03*
X008180Y007685D03*
X008230Y007540D03*
X008228Y007428D03*
X008333Y007220D03*
X008345Y007218D03*
X008355Y007215D03*
X008360Y007213D03*
X008363Y007213D03*
X008365Y007210D03*
X008368Y007210D03*
X008375Y007103D03*
X008373Y007100D03*
X008373Y006988D03*
X008415Y006928D03*
X008370Y006878D03*
X008368Y006875D03*
X008365Y006875D03*
X008363Y006873D03*
X008358Y006870D03*
X008278Y006858D03*
X008253Y006860D03*
X008250Y006860D03*
X008243Y006863D03*
X008240Y006863D03*
X008238Y006865D03*
X008235Y006865D03*
X008223Y006758D03*
X008220Y006755D03*
X008218Y006668D03*
X008278Y006660D03*
X008230Y006563D03*
X008225Y006453D03*
X008230Y006450D03*
X008225Y006240D03*
X008250Y006240D03*
X008335Y006155D03*
X008340Y006153D03*
X008343Y006153D03*
X008370Y006155D03*
X008350Y006068D03*
X008358Y006065D03*
X008360Y006065D03*
X008363Y006063D03*
X008365Y006063D03*
X008368Y006060D03*
X008378Y005955D03*
X008375Y005953D03*
X008368Y005838D03*
X008365Y005838D03*
X008370Y005835D03*
X008368Y005725D03*
X008230Y005613D03*
X008235Y005465D03*
X008233Y005463D03*
X008348Y005473D03*
X008350Y005473D03*
X008353Y005470D03*
X008355Y005470D03*
X008363Y005285D03*
X008223Y005278D03*
X008220Y005275D03*
X008218Y005188D03*
X008415Y004913D03*
X008368Y004863D03*
X008365Y004860D03*
X008363Y004860D03*
X008360Y004858D03*
X008355Y004855D03*
X008348Y004853D03*
X008260Y004845D03*
X008258Y004845D03*
X008248Y004848D03*
X008245Y004848D03*
X008240Y004850D03*
X008238Y004850D03*
X008235Y004853D03*
X008233Y004853D03*
X008383Y004748D03*
X008403Y004743D03*
X008405Y004743D03*
X008373Y004660D03*
X008375Y004658D03*
X008405Y004548D03*
X008393Y004403D03*
X008390Y004403D03*
X008295Y004260D03*
X008293Y004260D03*
X008298Y004258D03*
X008308Y004165D03*
X008418Y004135D03*
X008488Y004163D03*
X008363Y003903D03*
X008360Y003903D03*
X008355Y003905D03*
X008365Y003900D03*
X008368Y003900D03*
X008378Y003795D03*
X008375Y003793D03*
X008373Y003790D03*
X008368Y003675D03*
X008368Y003563D03*
X008230Y003453D03*
X008228Y003340D03*
X008240Y003230D03*
X008235Y003228D03*
X008233Y003225D03*
X008230Y003225D03*
X008228Y003223D03*
X008303Y003243D03*
X008310Y003243D03*
X008315Y003243D03*
X008335Y003240D03*
X008338Y003240D03*
X008340Y003240D03*
X008345Y003238D03*
X008348Y003238D03*
X008350Y003238D03*
X008355Y003235D03*
X008370Y003115D03*
X008235Y003783D03*
X008230Y003785D03*
X008225Y003788D03*
X008225Y003895D03*
X008228Y003898D03*
X008230Y003898D03*
X008233Y003900D03*
X008230Y004048D03*
X007395Y004578D03*
X007390Y004580D03*
X007388Y004580D03*
X007335Y004590D03*
X007333Y004590D03*
X007330Y004590D03*
X007468Y005080D03*
X007610Y005223D03*
X008230Y005945D03*
X008233Y005945D03*
X008238Y005943D03*
X008228Y005948D03*
X008228Y006058D03*
X008230Y006060D03*
X008235Y006063D03*
X008363Y006765D03*
X008230Y006988D03*
X008233Y007093D03*
X008230Y007095D03*
X008225Y007098D03*
X008225Y007205D03*
X008228Y007208D03*
X008230Y007208D03*
X008233Y007210D03*
X008405Y007638D03*
X007605Y007075D03*
X007603Y007075D03*
X007320Y007245D03*
X007575Y006408D03*
D44*
X007563Y006408D03*
X007555Y006238D03*
X007553Y006238D03*
X007325Y006238D03*
X007323Y006238D03*
X007328Y006408D03*
X007328Y006578D03*
X007330Y006578D03*
X007318Y006738D03*
X007315Y006738D03*
X007313Y006738D03*
X007543Y006738D03*
X007545Y006738D03*
X007575Y006575D03*
X007578Y006573D03*
X007600Y006558D03*
X007565Y006920D03*
X007563Y007088D03*
X007560Y007088D03*
X007578Y007255D03*
X007298Y007243D03*
X007263Y007060D03*
X008185Y007150D03*
X008285Y006208D03*
X008288Y006205D03*
X008293Y006198D03*
X008295Y006195D03*
X008298Y006193D03*
X008413Y006210D03*
X008378Y005738D03*
X008185Y005403D03*
X008218Y004963D03*
X008408Y004623D03*
X008485Y004460D03*
X008480Y004458D03*
X008353Y004403D03*
X008218Y004150D03*
X008378Y003575D03*
X007570Y004475D03*
X007300Y004593D03*
X007563Y004773D03*
X007623Y004918D03*
X007573Y004933D03*
X007570Y004933D03*
X007568Y004933D03*
X007565Y004933D03*
X007563Y004933D03*
X007553Y004933D03*
X007550Y004933D03*
X007548Y004933D03*
X007545Y004933D03*
X007543Y004933D03*
X007540Y004933D03*
X007538Y004933D03*
X007535Y004933D03*
X007533Y004933D03*
X007530Y004933D03*
X007528Y004933D03*
X007525Y004933D03*
X007523Y004933D03*
X007520Y004933D03*
X007518Y004933D03*
X007515Y004933D03*
X007513Y004933D03*
X007510Y004933D03*
X007508Y004933D03*
X007505Y004933D03*
X007503Y004933D03*
X007500Y004933D03*
X007498Y004933D03*
X007495Y004933D03*
X007493Y004933D03*
X007490Y004933D03*
X007488Y004933D03*
X007485Y004933D03*
X007483Y004933D03*
X007480Y004933D03*
X007478Y004933D03*
X007475Y004933D03*
X007473Y004933D03*
X007470Y004933D03*
X007468Y004933D03*
X007465Y004933D03*
X007463Y004933D03*
X007460Y004933D03*
X007458Y004933D03*
X007455Y004933D03*
X007453Y004933D03*
X007450Y004933D03*
X007448Y004933D03*
X007445Y004933D03*
X007443Y004933D03*
X007440Y004933D03*
X007438Y004933D03*
X007435Y004933D03*
X007433Y004933D03*
X007430Y004933D03*
X007428Y004933D03*
X007425Y004933D03*
X007423Y004933D03*
X007420Y004933D03*
X007418Y004933D03*
X007415Y004933D03*
X007413Y004933D03*
X007410Y004933D03*
X007408Y004933D03*
X007405Y004933D03*
X007403Y004933D03*
X007400Y004933D03*
X007398Y004933D03*
X007395Y004933D03*
X007393Y004933D03*
X007390Y004933D03*
X007388Y004933D03*
X007385Y004933D03*
X007383Y004933D03*
X007380Y004933D03*
X007378Y004933D03*
X007375Y004933D03*
X007373Y004933D03*
X007370Y004933D03*
X007368Y004933D03*
X007365Y004933D03*
X007363Y004933D03*
X007360Y004933D03*
X007358Y004933D03*
X007355Y004933D03*
X007353Y004933D03*
X007350Y004933D03*
X007348Y004933D03*
X007345Y004933D03*
X007343Y004933D03*
X007340Y004933D03*
X007338Y004933D03*
X007335Y004933D03*
X007333Y004933D03*
X007490Y005093D03*
X007493Y005093D03*
X007340Y005843D03*
X007338Y005843D03*
X007413Y005860D03*
X007283Y005970D03*
X007280Y005968D03*
D45*
X007278Y005966D03*
X007318Y006239D03*
X007320Y006239D03*
X007315Y006241D03*
X007313Y006241D03*
X007330Y006406D03*
X007325Y006576D03*
X007323Y006576D03*
X007310Y006739D03*
X007328Y006911D03*
X007315Y007089D03*
X007313Y007089D03*
X007295Y007244D03*
X007323Y007404D03*
X007580Y007254D03*
X007558Y007089D03*
X007555Y007089D03*
X007563Y006921D03*
X007553Y006739D03*
X007550Y006739D03*
X007548Y006739D03*
X007603Y006556D03*
X007560Y006239D03*
X007558Y006239D03*
X008185Y006191D03*
X008185Y006001D03*
X008413Y005409D03*
X008413Y005226D03*
X008483Y004459D03*
X008478Y004456D03*
X008350Y004404D03*
X008348Y004404D03*
X008410Y004149D03*
X008185Y003841D03*
X007570Y004601D03*
X007565Y004599D03*
X007563Y004596D03*
X007428Y004564D03*
X007298Y004591D03*
X007320Y004426D03*
X007560Y004771D03*
X007560Y004934D03*
X007558Y004934D03*
X007555Y004934D03*
X007555Y005096D03*
X007553Y005096D03*
X007550Y005096D03*
X007548Y005096D03*
X007498Y005094D03*
X007495Y005094D03*
X007625Y005219D03*
X007330Y004934D03*
X007328Y004934D03*
X007325Y004934D03*
X007323Y004934D03*
X007320Y004934D03*
X007318Y004934D03*
X008413Y006706D03*
X008218Y006974D03*
D46*
X008188Y006994D03*
X008370Y006649D03*
X008223Y006146D03*
X008178Y005839D03*
X008408Y005719D03*
X008178Y005404D03*
X008315Y005256D03*
X008370Y005169D03*
X008188Y004979D03*
X008178Y004594D03*
X008473Y004484D03*
X008408Y003556D03*
X007315Y005081D03*
X007273Y006981D03*
X007358Y007244D03*
X007360Y007244D03*
X007513Y007254D03*
X007515Y007254D03*
X008178Y007684D03*
D47*
X008418Y007154D03*
X008195Y006996D03*
X008418Y006706D03*
X007625Y007421D03*
X007623Y007419D03*
X007593Y007406D03*
X007590Y007406D03*
X007585Y007404D03*
X007538Y007254D03*
X007335Y007244D03*
X008185Y005841D03*
X008400Y005716D03*
X007595Y005226D03*
X007318Y005084D03*
X008075Y004749D03*
X008413Y004741D03*
X008185Y004341D03*
X008448Y004239D03*
X008418Y003844D03*
X008185Y003679D03*
X008075Y003109D03*
X008413Y003104D03*
D48*
X008400Y003555D03*
X008195Y004055D03*
X008445Y004238D03*
X008413Y004548D03*
X008418Y004913D03*
X008195Y004983D03*
X008418Y005228D03*
X008413Y005625D03*
X008195Y005623D03*
X008418Y006208D03*
X008378Y006250D03*
X008413Y006575D03*
X008195Y006573D03*
X008418Y006928D03*
X008195Y007548D03*
X008413Y007638D03*
X007620Y007418D03*
X007615Y007415D03*
X007600Y007410D03*
X007598Y007408D03*
X007595Y007408D03*
X007338Y007245D03*
X007265Y006980D03*
X007580Y006408D03*
X007265Y006130D03*
X007590Y005228D03*
X007593Y005228D03*
X007460Y005070D03*
X007253Y004795D03*
D49*
X007310Y004435D03*
X008073Y004745D03*
X008183Y004465D03*
X008440Y004235D03*
X008343Y004210D03*
X008183Y003678D03*
X008193Y003460D03*
X008403Y003555D03*
X008415Y003105D03*
X008375Y005175D03*
X008403Y005718D03*
X008183Y005840D03*
X007583Y005230D03*
X007580Y005230D03*
X007578Y005230D03*
X007573Y005233D03*
X007570Y005233D03*
X007310Y006408D03*
X007343Y007245D03*
X008193Y006995D03*
X008413Y007428D03*
X008375Y006655D03*
D50*
X008178Y007155D03*
X008233Y007750D03*
X007583Y006408D03*
X007260Y004805D03*
X008233Y004658D03*
X008433Y004233D03*
X008178Y003678D03*
X008178Y003168D03*
D51*
X008178Y004209D03*
X008430Y004231D03*
X008273Y004589D03*
X008178Y005224D03*
X008178Y006004D03*
X008178Y006194D03*
X008178Y006704D03*
X007510Y007254D03*
X007508Y007254D03*
X007365Y007244D03*
X007363Y007244D03*
D52*
X007368Y007244D03*
X007370Y007244D03*
X007503Y007254D03*
X007505Y007254D03*
X008178Y007471D03*
X008418Y007706D03*
X008418Y007721D03*
X008315Y006744D03*
X008365Y006644D03*
X008178Y006494D03*
X008183Y005721D03*
X008188Y005619D03*
X008370Y005354D03*
X008365Y005164D03*
X008273Y004599D03*
X008418Y004551D03*
X008428Y004231D03*
X008183Y004329D03*
X008225Y003971D03*
X008378Y003621D03*
X008178Y003381D03*
D53*
X008070Y004738D03*
X008368Y005165D03*
X008225Y005358D03*
X007620Y005048D03*
X007265Y004810D03*
X007275Y006133D03*
X007275Y006983D03*
X007633Y006963D03*
X008315Y006733D03*
X008368Y006645D03*
X008418Y007640D03*
D54*
X007635Y006960D03*
X008370Y006258D03*
X008373Y005355D03*
X008418Y004743D03*
X008188Y004053D03*
X007263Y004808D03*
X007578Y005105D03*
X007623Y005048D03*
X007273Y006133D03*
D55*
X007270Y006131D03*
X007270Y006981D03*
X007355Y007244D03*
X007518Y007254D03*
X007520Y007254D03*
X007638Y006956D03*
X008190Y007546D03*
X008183Y005706D03*
X008375Y005359D03*
X007625Y005049D03*
X007458Y005061D03*
X008183Y004344D03*
X008418Y004621D03*
X008178Y003844D03*
X008418Y003106D03*
D56*
X008413Y003341D03*
X008073Y003106D03*
X008193Y004054D03*
X008415Y004741D03*
X008220Y005364D03*
X008193Y005621D03*
X008375Y006254D03*
X008413Y006451D03*
X008193Y006571D03*
X007640Y006951D03*
X007530Y007254D03*
X007528Y007254D03*
X007345Y007244D03*
X008193Y007546D03*
X008415Y007639D03*
X007575Y005231D03*
X007568Y005234D03*
X007255Y004799D03*
D57*
X007410Y004573D03*
X007605Y004923D03*
X007608Y004923D03*
X007473Y005085D03*
X008183Y005225D03*
X008183Y005403D03*
X008373Y005460D03*
X008415Y005408D03*
X008373Y005278D03*
X008415Y005228D03*
X008223Y004968D03*
X008380Y004875D03*
X008310Y004645D03*
X008375Y004563D03*
X008375Y004403D03*
X008378Y004403D03*
X008190Y003990D03*
X008218Y003795D03*
X008383Y003803D03*
X008413Y003635D03*
X008373Y003568D03*
X008373Y003225D03*
X008413Y003183D03*
X008218Y003213D03*
X008225Y005608D03*
X008380Y006050D03*
X008325Y006163D03*
X008220Y006458D03*
X008223Y006558D03*
X008183Y006705D03*
X008373Y006758D03*
X008415Y006708D03*
X008218Y007105D03*
X008310Y007735D03*
X007588Y007080D03*
X007585Y007080D03*
X007570Y006920D03*
X007498Y006730D03*
X007495Y006730D03*
X007493Y006730D03*
X007490Y006730D03*
X007488Y006730D03*
X007485Y006730D03*
X007520Y006585D03*
X007523Y006585D03*
X007525Y006585D03*
X007528Y006585D03*
X007530Y006585D03*
X007585Y006563D03*
X007375Y006585D03*
X007373Y006585D03*
X007370Y006585D03*
X007368Y006585D03*
X007363Y006730D03*
X007360Y006730D03*
X007358Y006730D03*
X007355Y006730D03*
X007320Y006408D03*
X007368Y006230D03*
X007370Y006230D03*
X007373Y006230D03*
X007375Y006230D03*
X007378Y006230D03*
X007380Y006230D03*
X007500Y006230D03*
X007503Y006230D03*
X007505Y006230D03*
X007508Y006230D03*
X007510Y006230D03*
X007313Y005985D03*
X007308Y005983D03*
X007303Y005980D03*
X007325Y005840D03*
X007273Y007073D03*
X007293Y007085D03*
X007295Y007085D03*
D58*
X007268Y006980D03*
X007580Y006920D03*
X007348Y007245D03*
X008178Y006915D03*
X008220Y006150D03*
X008378Y005363D03*
X008178Y004903D03*
X008415Y004548D03*
X008185Y004120D03*
X008180Y003678D03*
X007323Y006070D03*
X007268Y006130D03*
D59*
X007275Y006254D03*
X007503Y006409D03*
X007505Y006409D03*
X007508Y006409D03*
X007613Y006259D03*
X007605Y006756D03*
X007265Y006759D03*
X007378Y007109D03*
X007380Y007109D03*
X007488Y007109D03*
X007490Y007109D03*
X007613Y007254D03*
X007615Y007254D03*
X007373Y007394D03*
X008203Y006709D03*
X008400Y006706D03*
X008400Y006209D03*
X008398Y006006D03*
X008198Y006001D03*
X008200Y006194D03*
X008200Y005584D03*
X008203Y005584D03*
X008200Y005406D03*
X008203Y005229D03*
X008400Y005226D03*
X008398Y005414D03*
X008413Y004939D03*
X008288Y004591D03*
X008203Y004019D03*
X008200Y004019D03*
X008198Y004016D03*
X008198Y003841D03*
X007460Y004546D03*
X008290Y007684D03*
D60*
X007545Y007093D03*
X007543Y007093D03*
X007558Y006920D03*
X007565Y006743D03*
X007610Y006553D03*
X007555Y006408D03*
X007573Y006243D03*
X007575Y006243D03*
X007298Y006248D03*
X007335Y006408D03*
X007310Y006573D03*
X007298Y006743D03*
X007325Y007093D03*
X007328Y007093D03*
X007288Y007243D03*
X007333Y007400D03*
X007335Y007400D03*
X008410Y006210D03*
X007568Y005815D03*
X007353Y005843D03*
X007295Y004938D03*
X007293Y004938D03*
X007553Y004768D03*
X007590Y004613D03*
X007585Y004610D03*
X007568Y004478D03*
X007435Y004560D03*
X007293Y004593D03*
X008213Y004153D03*
X008340Y004228D03*
X008338Y004403D03*
X008335Y004403D03*
D61*
X008320Y004210D03*
X008398Y003845D03*
X008188Y003150D03*
X007463Y004545D03*
X007273Y004593D03*
X007615Y004623D03*
X007255Y004955D03*
X008198Y004605D03*
X008290Y004593D03*
X008410Y004938D03*
X008313Y005258D03*
X008203Y005408D03*
X008203Y006195D03*
X008313Y006738D03*
X008398Y007155D03*
X008198Y007695D03*
X007485Y007110D03*
X007483Y007110D03*
X007385Y007110D03*
X007383Y007110D03*
X007263Y007243D03*
X007375Y007393D03*
X007608Y006758D03*
X007628Y006543D03*
X007500Y006408D03*
X007498Y006408D03*
X007495Y006408D03*
X007493Y006408D03*
X007398Y006408D03*
X007395Y006408D03*
X007393Y006408D03*
X007390Y006408D03*
X007388Y006408D03*
X007385Y006408D03*
X007273Y006555D03*
X007615Y006260D03*
D62*
X007583Y006245D03*
X007580Y006245D03*
X007550Y006408D03*
X007340Y006408D03*
X007285Y006255D03*
X007288Y006253D03*
X007270Y005963D03*
X007363Y005845D03*
X007365Y005845D03*
X007368Y005845D03*
X007303Y006570D03*
X007293Y006745D03*
X007290Y006745D03*
X007573Y006745D03*
X007575Y006745D03*
X007553Y006918D03*
X007550Y006918D03*
X007535Y007095D03*
X007335Y007095D03*
X007333Y007095D03*
X008188Y007150D03*
X008408Y007155D03*
X008190Y006918D03*
X008190Y006708D03*
X008190Y006493D03*
X008405Y005795D03*
X008190Y005228D03*
X008190Y004903D03*
X007595Y004615D03*
X007565Y004478D03*
X007438Y004560D03*
X007290Y004593D03*
X007288Y004593D03*
X007323Y004423D03*
X007543Y004765D03*
X007545Y004765D03*
X007285Y004940D03*
X007283Y004940D03*
X008408Y003845D03*
X008405Y003635D03*
X008190Y003380D03*
X008190Y007468D03*
X008278Y007670D03*
X008188Y007690D03*
D63*
X008190Y007150D03*
X008193Y006708D03*
X008408Y006210D03*
X008408Y005410D03*
X008190Y005403D03*
X008193Y005228D03*
X007535Y004763D03*
X007533Y004763D03*
X007603Y004620D03*
X007335Y004763D03*
X007285Y004593D03*
X007275Y004943D03*
X007335Y005105D03*
X007380Y005845D03*
X007398Y005848D03*
X007565Y005815D03*
X007588Y006248D03*
X007590Y006248D03*
X007545Y006408D03*
X007618Y006548D03*
X007583Y006748D03*
X007580Y006748D03*
X007543Y006915D03*
X007540Y006915D03*
X007528Y007098D03*
X007525Y007098D03*
X007595Y007255D03*
X007348Y007398D03*
X007345Y007398D03*
X007280Y007243D03*
X007343Y007098D03*
X007335Y006913D03*
X007285Y006748D03*
X007295Y006568D03*
X007345Y006408D03*
X008333Y004213D03*
X008190Y003840D03*
D64*
X008335Y004216D03*
X008278Y004579D03*
X008188Y004599D03*
X007600Y004619D03*
X007598Y004616D03*
X007540Y004764D03*
X007538Y004764D03*
X007440Y004559D03*
X007333Y004764D03*
X007330Y004764D03*
X007280Y004941D03*
X007278Y004941D03*
X007628Y004916D03*
X007410Y005851D03*
X007378Y005846D03*
X007375Y005846D03*
X007373Y005846D03*
X007370Y005846D03*
X007268Y005961D03*
X007585Y006246D03*
X007548Y006409D03*
X007615Y006549D03*
X007578Y006746D03*
X007548Y006916D03*
X007545Y006916D03*
X007533Y007096D03*
X007530Y007096D03*
X007593Y007254D03*
X007343Y007399D03*
X007283Y007244D03*
X007338Y007096D03*
X007340Y007096D03*
X007288Y006746D03*
X007298Y006569D03*
X007300Y006569D03*
X007343Y006406D03*
X008408Y006006D03*
D65*
X008408Y005796D03*
X008380Y005444D03*
X007625Y004916D03*
X007538Y005096D03*
X007535Y005096D03*
X007533Y005096D03*
X007530Y005096D03*
X007528Y005096D03*
X007525Y005096D03*
X007523Y005096D03*
X007520Y005096D03*
X007518Y005096D03*
X007515Y005096D03*
X007513Y005096D03*
X007510Y005096D03*
X007305Y004936D03*
X007303Y004936D03*
X007300Y004936D03*
X007298Y004936D03*
X007555Y004769D03*
X007588Y004611D03*
X007583Y004609D03*
X007433Y004561D03*
X008215Y004151D03*
X008340Y004404D03*
X007350Y005844D03*
X007348Y005844D03*
X007273Y005964D03*
X007305Y006244D03*
X007303Y006246D03*
X007300Y006246D03*
X007568Y006241D03*
X007570Y006241D03*
X007558Y006409D03*
X007608Y006554D03*
X007563Y006741D03*
X007560Y006741D03*
X007560Y006921D03*
X007550Y007091D03*
X007548Y007091D03*
X007583Y007254D03*
X007585Y007254D03*
X007293Y007244D03*
X007290Y007244D03*
X007328Y007401D03*
X007330Y007401D03*
X007323Y007091D03*
X007330Y006911D03*
X007303Y006741D03*
X007300Y006741D03*
X007313Y006574D03*
X007315Y006574D03*
X008188Y006491D03*
X008188Y006916D03*
D66*
X008208Y006710D03*
X008398Y006708D03*
X008395Y007155D03*
X008295Y007688D03*
X007620Y007255D03*
X007475Y007113D03*
X007393Y007113D03*
X007390Y007113D03*
X007260Y007243D03*
X007610Y006758D03*
X007480Y006408D03*
X007478Y006408D03*
X007475Y006408D03*
X007473Y006408D03*
X007470Y006408D03*
X007468Y006408D03*
X007465Y006408D03*
X007463Y006408D03*
X007460Y006408D03*
X007458Y006408D03*
X007455Y006408D03*
X007453Y006408D03*
X007450Y006408D03*
X007448Y006408D03*
X007445Y006408D03*
X007443Y006408D03*
X007440Y006408D03*
X007438Y006408D03*
X007435Y006408D03*
X007433Y006408D03*
X007430Y006408D03*
X007428Y006408D03*
X007425Y006408D03*
X007423Y006408D03*
X007420Y006408D03*
X007418Y006408D03*
X007415Y006408D03*
X007413Y006408D03*
X007410Y006408D03*
X007408Y006408D03*
X007618Y006263D03*
X008395Y006208D03*
X008213Y005413D03*
X008208Y005410D03*
X008208Y005230D03*
X008398Y005228D03*
X008408Y004935D03*
X008293Y004595D03*
X008200Y004605D03*
X008318Y004210D03*
X008395Y003845D03*
D67*
X008400Y003844D03*
X008408Y004169D03*
X008285Y004589D03*
X008200Y005229D03*
X008403Y005226D03*
X008400Y005411D03*
X008213Y005584D03*
X008195Y006001D03*
X008400Y006006D03*
X008403Y006706D03*
X008200Y006709D03*
X008400Y007154D03*
X007610Y007254D03*
X007608Y007254D03*
X007498Y007106D03*
X007495Y007106D03*
X007373Y007106D03*
X007370Y007106D03*
X007370Y006906D03*
X007373Y006906D03*
X007375Y006906D03*
X007378Y006906D03*
X007380Y006906D03*
X007383Y006906D03*
X007473Y006906D03*
X007475Y006906D03*
X007478Y006906D03*
X007480Y006906D03*
X007483Y006906D03*
X007485Y006906D03*
X007488Y006906D03*
X007278Y006559D03*
X007370Y006406D03*
X007518Y006409D03*
X007625Y006544D03*
X007608Y006256D03*
X007633Y005221D03*
X007633Y004914D03*
X007478Y004754D03*
X007475Y004754D03*
X007473Y004754D03*
X007470Y004754D03*
X007468Y004754D03*
X007465Y004754D03*
X007463Y004754D03*
X007460Y004754D03*
X007458Y004754D03*
X007455Y004754D03*
X007398Y004754D03*
X007395Y004754D03*
X007393Y004754D03*
X007390Y004754D03*
X007388Y004754D03*
X007385Y004754D03*
X007383Y004754D03*
X007380Y004754D03*
X007378Y004754D03*
X007260Y004951D03*
X007368Y007394D03*
X007370Y007394D03*
D68*
X007355Y007395D03*
X007275Y007243D03*
X007350Y007100D03*
X007353Y007100D03*
X007340Y006913D03*
X007338Y006913D03*
X007280Y006750D03*
X007290Y006565D03*
X007350Y006408D03*
X007538Y006408D03*
X007540Y006408D03*
X007620Y006545D03*
X007590Y006750D03*
X007588Y006750D03*
X007533Y006913D03*
X007530Y006913D03*
X007528Y006913D03*
X007520Y007100D03*
X007518Y007100D03*
X007595Y006250D03*
X007265Y005960D03*
X007338Y005108D03*
X007270Y004945D03*
X007340Y004760D03*
X007343Y004760D03*
X007283Y004593D03*
X007445Y004555D03*
X007563Y004480D03*
X007605Y004620D03*
X007525Y004760D03*
X007523Y004760D03*
X007520Y004760D03*
X007630Y004915D03*
X008190Y004600D03*
X008280Y004583D03*
X008370Y004240D03*
X008405Y003845D03*
X008405Y007155D03*
D69*
X008393Y007155D03*
X008405Y006948D03*
X008395Y006708D03*
X008213Y006710D03*
X008388Y006205D03*
X008390Y006205D03*
X008385Y006203D03*
X007623Y006268D03*
X007505Y006050D03*
X007503Y006050D03*
X007500Y006050D03*
X007498Y006050D03*
X007495Y006050D03*
X007493Y006050D03*
X007490Y006050D03*
X007488Y006050D03*
X007485Y006050D03*
X007483Y006050D03*
X007480Y006050D03*
X007433Y006050D03*
X007430Y006050D03*
X007428Y006050D03*
X007425Y006050D03*
X007423Y006050D03*
X007420Y006050D03*
X007418Y006050D03*
X007415Y006050D03*
X007413Y006050D03*
X007410Y006050D03*
X007408Y006050D03*
X007405Y006050D03*
X007270Y006253D03*
X007265Y006550D03*
X007630Y006543D03*
X007468Y007115D03*
X007465Y007115D03*
X007400Y007115D03*
X007258Y007243D03*
X007625Y007255D03*
X007603Y007733D03*
X007600Y007733D03*
X007598Y007733D03*
X007595Y007733D03*
X007593Y007733D03*
X007590Y007733D03*
X007588Y007733D03*
X007585Y007733D03*
X007583Y007733D03*
X007580Y007733D03*
X007578Y007733D03*
X007575Y007733D03*
X007573Y007733D03*
X007570Y007733D03*
X007568Y007733D03*
X007565Y007733D03*
X007563Y007733D03*
X007560Y007733D03*
X007558Y007733D03*
X007555Y007733D03*
X007553Y007733D03*
X007550Y007733D03*
X007548Y007733D03*
X007545Y007733D03*
X007543Y007733D03*
X007540Y007733D03*
X007538Y007733D03*
X007535Y007733D03*
X007533Y007733D03*
X007530Y007733D03*
X007528Y007733D03*
X007525Y007733D03*
X007523Y007733D03*
X007520Y007733D03*
X007518Y007733D03*
X007515Y007733D03*
X007513Y007733D03*
X007510Y007733D03*
X007508Y007733D03*
X007505Y007733D03*
X007503Y007733D03*
X007500Y007733D03*
X007498Y007733D03*
X007495Y007733D03*
X007493Y007733D03*
X007490Y007733D03*
X007488Y007733D03*
X007485Y007733D03*
X007483Y007733D03*
X007480Y007733D03*
X007478Y007733D03*
X007475Y007733D03*
X007473Y007733D03*
X007470Y007733D03*
X007468Y007733D03*
X007465Y007733D03*
X007463Y007733D03*
X007460Y007733D03*
X007458Y007733D03*
X007455Y007733D03*
X007453Y007733D03*
X007450Y007733D03*
X007448Y007733D03*
X007445Y007733D03*
X007443Y007733D03*
X007440Y007733D03*
X007438Y007733D03*
X007435Y007733D03*
X007433Y007733D03*
X007430Y007733D03*
X007428Y007733D03*
X007425Y007733D03*
X007423Y007733D03*
X007420Y007733D03*
X007418Y007733D03*
X007415Y007733D03*
X007413Y007733D03*
X007410Y007733D03*
X007408Y007733D03*
X007405Y007733D03*
X007403Y007733D03*
X007400Y007733D03*
X007398Y007733D03*
X007395Y007733D03*
X007393Y007733D03*
X007390Y007733D03*
X007388Y007733D03*
X007385Y007733D03*
X007383Y007733D03*
X007380Y007733D03*
X007378Y007733D03*
X007375Y007733D03*
X007373Y007733D03*
X007370Y007733D03*
X007368Y007733D03*
X007365Y007733D03*
X007363Y007733D03*
X007360Y007733D03*
X007358Y007733D03*
X007355Y007733D03*
X007353Y007733D03*
X007350Y007733D03*
X007348Y007733D03*
X007345Y007733D03*
X007343Y007733D03*
X007340Y007733D03*
X007338Y007733D03*
X007335Y007733D03*
X007333Y007733D03*
X007330Y007733D03*
X007328Y007733D03*
X007325Y007733D03*
X007323Y007733D03*
X007320Y007733D03*
X007318Y007733D03*
X007315Y007733D03*
X007313Y007733D03*
X007310Y007733D03*
X007308Y007733D03*
X007305Y007733D03*
X007303Y007733D03*
X007300Y007733D03*
X007298Y007733D03*
X007295Y007733D03*
X007293Y007733D03*
X007290Y007733D03*
X007288Y007733D03*
X007285Y007733D03*
X007283Y007733D03*
X007280Y007733D03*
X007278Y007733D03*
X007275Y007733D03*
X007273Y007733D03*
X007270Y007733D03*
X007268Y007733D03*
X007265Y007733D03*
X007263Y007733D03*
X007260Y007733D03*
X007258Y007733D03*
X007255Y007733D03*
X007253Y007733D03*
X007250Y007733D03*
X007248Y007733D03*
X007245Y007733D03*
X007243Y007733D03*
X007240Y007733D03*
X007238Y007733D03*
X007235Y007733D03*
X007233Y007733D03*
X007230Y007733D03*
X007228Y007733D03*
X007225Y007733D03*
X007223Y007733D03*
X007220Y007733D03*
X007218Y007733D03*
X007215Y007733D03*
X007213Y007733D03*
X007210Y007733D03*
X007208Y007733D03*
X007205Y007733D03*
X007203Y007733D03*
X007200Y007733D03*
X007198Y007733D03*
X007195Y007733D03*
X007193Y007733D03*
X007190Y007733D03*
X007188Y007733D03*
X007185Y007733D03*
X007183Y007733D03*
X007180Y007733D03*
X007178Y007733D03*
X007175Y007733D03*
X007173Y007733D03*
X007170Y007733D03*
X007168Y007733D03*
X007165Y007733D03*
X007163Y007733D03*
X007160Y007733D03*
X007158Y007733D03*
X007155Y007733D03*
X007153Y007733D03*
X007150Y007733D03*
X007148Y007733D03*
X007145Y007733D03*
X007143Y007733D03*
X007140Y007733D03*
X007138Y007733D03*
X007135Y007733D03*
X007133Y007733D03*
X007130Y007733D03*
X008300Y007690D03*
X007555Y005810D03*
X008213Y005230D03*
X008395Y005228D03*
X008388Y005415D03*
X008405Y004933D03*
X008298Y004598D03*
X008205Y004605D03*
X008405Y004178D03*
X008393Y003845D03*
X008195Y003155D03*
X007270Y004593D03*
D70*
X007280Y004593D03*
X007450Y004553D03*
X007505Y004758D03*
X007508Y004758D03*
X007510Y004758D03*
X007355Y004758D03*
X007353Y004758D03*
X007350Y004758D03*
X007265Y004948D03*
X007640Y005060D03*
X008195Y004905D03*
X007563Y005813D03*
X007263Y005958D03*
X007600Y006253D03*
X007533Y006408D03*
X007530Y006408D03*
X007623Y006545D03*
X007595Y006753D03*
X007518Y006910D03*
X007515Y006910D03*
X007513Y006910D03*
X007510Y007103D03*
X007360Y007103D03*
X007358Y007103D03*
X007350Y006910D03*
X007348Y006910D03*
X007275Y006753D03*
X007285Y006563D03*
X007358Y006408D03*
X007273Y007243D03*
X007358Y007395D03*
X007360Y007395D03*
X008195Y007470D03*
X008283Y007678D03*
X008193Y007150D03*
X008403Y007155D03*
X008195Y006918D03*
X008405Y006210D03*
X008403Y003845D03*
X008193Y003840D03*
X008400Y003633D03*
X008195Y003383D03*
D71*
X008328Y004209D03*
X007608Y004621D03*
X007518Y004759D03*
X007515Y004759D03*
X007513Y004759D03*
X007448Y004554D03*
X007348Y004759D03*
X007345Y004759D03*
X007268Y004946D03*
X008195Y005229D03*
X008193Y005404D03*
X008405Y005411D03*
X008400Y005794D03*
X008193Y006001D03*
X008193Y006191D03*
X008195Y006494D03*
X008195Y006709D03*
X007598Y006251D03*
X007535Y006409D03*
X007355Y006406D03*
X007353Y006406D03*
X007280Y006254D03*
X007288Y006564D03*
X007278Y006751D03*
X007343Y006911D03*
X007345Y006911D03*
X007355Y007101D03*
X007513Y007101D03*
X007515Y007101D03*
X007520Y006911D03*
X007523Y006911D03*
X007525Y006911D03*
X007593Y006751D03*
X007600Y007254D03*
X007603Y007254D03*
X008190Y007691D03*
D72*
X008193Y007693D03*
X008285Y007680D03*
X008195Y007150D03*
X007600Y006755D03*
X007500Y006908D03*
X007498Y006908D03*
X007495Y006908D03*
X007493Y006908D03*
X007490Y006908D03*
X007368Y006908D03*
X007365Y006908D03*
X007363Y006908D03*
X007360Y006908D03*
X007270Y006755D03*
X007280Y006560D03*
X007365Y006408D03*
X007368Y006408D03*
X007520Y006408D03*
X007523Y006408D03*
X007525Y006408D03*
X007605Y006255D03*
X008195Y006193D03*
X008403Y006210D03*
X008218Y005585D03*
X008215Y005585D03*
X007340Y005113D03*
X007368Y004755D03*
X007370Y004755D03*
X007373Y004755D03*
X007375Y004755D03*
X007480Y004755D03*
X007483Y004755D03*
X007485Y004755D03*
X007488Y004755D03*
X007490Y004755D03*
X007493Y004755D03*
X007455Y004550D03*
X007278Y004593D03*
X008215Y004018D03*
X008218Y004018D03*
X008195Y003840D03*
X007503Y007105D03*
X007500Y007105D03*
X007368Y007105D03*
X007365Y007105D03*
X007268Y007243D03*
X007365Y007395D03*
D73*
X007420Y007121D03*
X007423Y007121D03*
X007445Y007121D03*
X008213Y007151D03*
X008395Y006941D03*
X008308Y006726D03*
X008385Y006006D03*
X008308Y005246D03*
X008393Y004926D03*
X008403Y004594D03*
X008378Y004216D03*
X008190Y004181D03*
X008213Y003841D03*
X008205Y003161D03*
X007580Y004271D03*
X007578Y004271D03*
X007575Y004271D03*
X007485Y004271D03*
X007483Y004271D03*
X007290Y004271D03*
X007288Y004271D03*
X007285Y004271D03*
X007283Y004271D03*
X007478Y004536D03*
X007265Y004591D03*
X007623Y004624D03*
X007558Y006044D03*
X007555Y006044D03*
X007553Y006044D03*
X007353Y006044D03*
X007350Y006044D03*
X007348Y006044D03*
X007340Y006041D03*
X007338Y006039D03*
X007630Y006274D03*
D74*
X007533Y006048D03*
X007530Y006048D03*
X007528Y006048D03*
X007525Y006048D03*
X007385Y006048D03*
X007383Y006048D03*
X007380Y006048D03*
X007378Y006048D03*
X007375Y006048D03*
X007330Y006033D03*
X007255Y005955D03*
X007263Y006548D03*
X007408Y007118D03*
X007410Y007118D03*
X007458Y007118D03*
X007460Y007118D03*
X007628Y007255D03*
X007628Y007730D03*
X007625Y007730D03*
X007623Y007730D03*
X007620Y007730D03*
X008213Y007695D03*
X008305Y007693D03*
X008388Y006710D03*
X008208Y006003D03*
X008383Y005418D03*
X008388Y005230D03*
X008400Y004930D03*
X008303Y004600D03*
X008210Y004605D03*
X008310Y004210D03*
X008403Y004183D03*
X008390Y003845D03*
X008198Y003158D03*
X007560Y004268D03*
X007558Y004268D03*
X007555Y004268D03*
X007553Y004268D03*
X007550Y004268D03*
X007510Y004268D03*
X007508Y004268D03*
X007505Y004268D03*
X007503Y004268D03*
X007500Y004268D03*
X007473Y004540D03*
X007268Y004593D03*
D75*
X007263Y004591D03*
X007315Y004276D03*
X007318Y004276D03*
X007468Y004276D03*
X007593Y004276D03*
X007595Y004276D03*
X008195Y004184D03*
X008385Y004206D03*
X008388Y004204D03*
X008390Y004201D03*
X008393Y004199D03*
X008383Y004604D03*
X008380Y004606D03*
X008383Y004921D03*
X007580Y006039D03*
X007578Y006039D03*
X007255Y006539D03*
X008198Y006939D03*
X008383Y006936D03*
X008198Y007491D03*
X008380Y007696D03*
X008393Y007689D03*
X008395Y007689D03*
X007110Y007721D03*
X008398Y003611D03*
X008198Y003404D03*
X008403Y003154D03*
D76*
X008400Y003156D03*
X008208Y003401D03*
X008203Y003404D03*
X008200Y003404D03*
X008383Y003616D03*
X008385Y003616D03*
X008390Y003614D03*
X008200Y004186D03*
X008388Y004599D03*
X008203Y004924D03*
X007488Y004531D03*
X007463Y004279D03*
X007460Y004279D03*
X007323Y004279D03*
X007268Y004279D03*
X007600Y004279D03*
X008380Y005779D03*
X008385Y005776D03*
X008388Y005776D03*
X008393Y005774D03*
X008205Y006514D03*
X008203Y006514D03*
X008203Y006936D03*
X008200Y006939D03*
X008205Y007489D03*
X008208Y007489D03*
X008203Y007491D03*
X008200Y007491D03*
X008385Y007691D03*
X008388Y007691D03*
X007588Y006036D03*
X007585Y006036D03*
D77*
X007575Y006040D03*
X007573Y006040D03*
X007633Y006278D03*
X007635Y006540D03*
X007265Y006250D03*
X007253Y005955D03*
X008198Y006515D03*
X008305Y006723D03*
X008385Y006938D03*
X008388Y006938D03*
X008398Y007688D03*
X007433Y007125D03*
X008398Y005773D03*
X008305Y005243D03*
X008385Y004923D03*
X008198Y004925D03*
X008395Y004598D03*
X008383Y004210D03*
X008395Y004195D03*
X007625Y004625D03*
X007590Y004275D03*
X007473Y004275D03*
X007470Y004275D03*
X007313Y004275D03*
X007310Y004275D03*
X007273Y004275D03*
D78*
X007265Y004280D03*
X007458Y004280D03*
X007603Y004280D03*
X007490Y004530D03*
X007628Y004625D03*
X008205Y004923D03*
X008208Y004920D03*
X008298Y005238D03*
X008300Y005238D03*
X008383Y005778D03*
X008215Y006510D03*
X008213Y006510D03*
X008210Y006510D03*
X008208Y006513D03*
X008298Y006718D03*
X008300Y006718D03*
X008208Y006935D03*
X008205Y006935D03*
X008218Y007485D03*
X008213Y007488D03*
X008210Y007488D03*
X007628Y006763D03*
X007590Y006035D03*
X008385Y004600D03*
X008203Y004188D03*
X008380Y003618D03*
X008388Y003615D03*
X008218Y003398D03*
X008213Y003400D03*
X008210Y003400D03*
X008205Y003403D03*
X008398Y003158D03*
X007108Y007718D03*
D79*
X007250Y006778D03*
X007625Y006763D03*
X008200Y006515D03*
X008303Y006720D03*
X007583Y006038D03*
X008303Y005240D03*
X008200Y004925D03*
X008390Y004600D03*
X008393Y004598D03*
X008198Y004185D03*
X008393Y003613D03*
X008395Y003613D03*
X007598Y004278D03*
X007465Y004278D03*
X007320Y004278D03*
X007270Y004278D03*
X007485Y004533D03*
X007248Y004973D03*
X008390Y005775D03*
X008395Y005773D03*
X008390Y007690D03*
X008383Y007695D03*
D80*
X008215Y007486D03*
X008210Y006934D03*
X008213Y006931D03*
X008280Y006716D03*
X008283Y006716D03*
X008285Y006716D03*
X008288Y006716D03*
X008290Y006716D03*
X008293Y006716D03*
X008295Y006716D03*
X008218Y006509D03*
X007595Y006034D03*
X007593Y006034D03*
X007253Y006534D03*
X008280Y005236D03*
X008283Y005236D03*
X008285Y005236D03*
X008288Y005236D03*
X008290Y005236D03*
X008293Y005236D03*
X008295Y005236D03*
X008213Y004919D03*
X008210Y004919D03*
X007605Y004281D03*
X007455Y004281D03*
X007260Y004591D03*
X008205Y004189D03*
X008210Y004191D03*
X008215Y003399D03*
X008380Y003169D03*
X008395Y003159D03*
D81*
X008393Y003160D03*
X008390Y003160D03*
X008383Y003168D03*
X008208Y004190D03*
X007608Y004283D03*
X007453Y004283D03*
X007263Y004283D03*
X007493Y004528D03*
X008215Y004918D03*
X007598Y006033D03*
X008215Y006930D03*
X007258Y007033D03*
D82*
X007248Y006784D03*
X007638Y006539D03*
X007600Y006031D03*
X007633Y007249D03*
X007495Y004526D03*
X007450Y004284D03*
X007260Y004284D03*
X007610Y004284D03*
X008388Y003161D03*
D83*
X008385Y003163D03*
X007613Y004285D03*
X007448Y004285D03*
X007603Y006030D03*
X007630Y006763D03*
D84*
X007983Y005999D03*
D85*
X007980Y006000D03*
D86*
X007978Y006000D03*
D87*
X007975Y006000D03*
D88*
X007973Y005999D03*
D89*
X007970Y006000D03*
D90*
X007968Y005999D03*
X006918Y005999D03*
D91*
X007965Y006000D03*
D92*
X007963Y005999D03*
D93*
X007960Y005999D03*
X006925Y005999D03*
D94*
X006928Y006000D03*
X007958Y006000D03*
D95*
X007955Y005999D03*
X006930Y005999D03*
D96*
X006933Y005999D03*
X007953Y005999D03*
D97*
X007950Y006000D03*
X006935Y006000D03*
D98*
X007948Y006000D03*
D99*
X007945Y005999D03*
X006940Y005999D03*
D100*
X006943Y005999D03*
X007943Y005999D03*
D101*
X007940Y005999D03*
X006945Y005999D03*
D102*
X006948Y005999D03*
X007938Y005999D03*
D103*
X007935Y005999D03*
X006950Y005999D03*
D104*
X007933Y006000D03*
D105*
X007930Y006000D03*
X006955Y006000D03*
D106*
X007928Y005999D03*
D107*
X007925Y005999D03*
X006960Y005999D03*
D108*
X006963Y005999D03*
X007923Y005999D03*
D109*
X007920Y006000D03*
X006965Y006000D03*
D110*
X006968Y005999D03*
X007918Y005999D03*
D111*
X007915Y005999D03*
X006970Y005999D03*
D112*
X006973Y006000D03*
X007913Y006000D03*
D113*
X007910Y005999D03*
X006975Y005999D03*
D114*
X006978Y005999D03*
X007908Y005999D03*
D115*
X007905Y006000D03*
X006980Y006000D03*
D116*
X006983Y005999D03*
X007900Y005999D03*
X007903Y005999D03*
D117*
X007898Y005999D03*
X007895Y005999D03*
X006990Y005999D03*
X006988Y005999D03*
D118*
X006993Y005999D03*
X006995Y005999D03*
X007890Y005999D03*
X007893Y005999D03*
D119*
X007888Y006000D03*
X006998Y006000D03*
D120*
X007000Y005999D03*
X007883Y005999D03*
X007885Y005999D03*
D121*
X007880Y006000D03*
X007003Y006000D03*
D122*
X007005Y005999D03*
X007008Y005999D03*
X007010Y005999D03*
X007875Y005999D03*
X007878Y005999D03*
D123*
X007873Y006000D03*
X007013Y006000D03*
D124*
X007015Y005999D03*
X007018Y005999D03*
X007020Y005999D03*
X007865Y005999D03*
X007868Y005999D03*
X007870Y005999D03*
D125*
X007863Y006000D03*
X007860Y006000D03*
X007025Y006000D03*
X007023Y006000D03*
D126*
X007028Y005999D03*
X007030Y005999D03*
X007033Y005999D03*
X007035Y005999D03*
X007850Y005999D03*
X007853Y005999D03*
X007855Y005999D03*
X007858Y005999D03*
D127*
X007848Y006000D03*
X007845Y006000D03*
X007843Y006000D03*
X007840Y006000D03*
X007833Y006000D03*
X007828Y006000D03*
X007045Y006000D03*
X007043Y006000D03*
X007040Y006000D03*
X007038Y006000D03*
D128*
X007048Y005999D03*
X007050Y005999D03*
X007053Y005999D03*
X007055Y005999D03*
X007058Y005999D03*
X007060Y005999D03*
X007063Y005999D03*
X007065Y005999D03*
X007068Y005999D03*
X007070Y005999D03*
X007793Y005999D03*
X007795Y005999D03*
X007798Y005999D03*
X007800Y005999D03*
X007803Y005999D03*
X007805Y005999D03*
X007808Y005999D03*
X007810Y005999D03*
X007813Y005999D03*
X007815Y005999D03*
X007818Y005999D03*
X007820Y005999D03*
X007823Y005999D03*
X007825Y005999D03*
X007830Y005999D03*
X007835Y005999D03*
X007838Y005999D03*
D129*
X007168Y007080D03*
X007790Y007418D03*
D130*
X007790Y005593D03*
D131*
X007788Y007423D03*
X007785Y007423D03*
X007783Y007423D03*
X007780Y007423D03*
X007778Y007423D03*
X007775Y007423D03*
X007773Y007423D03*
X007770Y007423D03*
X007768Y007423D03*
X007765Y007423D03*
X007763Y007423D03*
X007760Y007423D03*
D132*
X007788Y005588D03*
D133*
X007785Y005584D03*
D134*
X007783Y005583D03*
D135*
X007780Y005581D03*
X007778Y005581D03*
X007775Y005581D03*
X007773Y005581D03*
X007770Y005581D03*
X007768Y005581D03*
X007765Y005581D03*
X007763Y005581D03*
X007760Y005581D03*
X007758Y005581D03*
X007755Y005581D03*
X007753Y005581D03*
X007750Y005581D03*
X007748Y005581D03*
X007745Y005581D03*
X007743Y005581D03*
X007740Y005581D03*
X007738Y005581D03*
X007735Y005581D03*
X007733Y005581D03*
X007730Y005581D03*
X007728Y005581D03*
X007725Y005581D03*
X007723Y005581D03*
X007720Y005581D03*
X007718Y005581D03*
X007715Y005581D03*
X007713Y005581D03*
X007710Y005581D03*
X007708Y005581D03*
X007705Y005581D03*
X007703Y005581D03*
X007700Y005581D03*
X007698Y005581D03*
X007695Y005581D03*
X007693Y005581D03*
X007690Y005581D03*
X007688Y005581D03*
X007685Y005581D03*
X007683Y005581D03*
X007680Y005581D03*
X007678Y005581D03*
X007675Y005581D03*
X007673Y005581D03*
X007670Y005581D03*
X007668Y005581D03*
X007665Y005581D03*
X007663Y005581D03*
X007660Y005581D03*
X007658Y005581D03*
X007655Y005581D03*
X007653Y005581D03*
X007650Y005581D03*
X007648Y005581D03*
X007645Y005581D03*
X007643Y005581D03*
D136*
X007165Y007074D03*
X007635Y007424D03*
X007638Y007424D03*
X007640Y007424D03*
X007643Y007424D03*
X007645Y007424D03*
X007648Y007424D03*
X007650Y007424D03*
X007653Y007424D03*
X007655Y007424D03*
X007658Y007424D03*
X007660Y007424D03*
X007663Y007424D03*
X007665Y007424D03*
X007668Y007424D03*
X007670Y007424D03*
X007673Y007424D03*
X007675Y007424D03*
X007678Y007424D03*
X007680Y007424D03*
X007683Y007424D03*
X007685Y007424D03*
X007688Y007424D03*
X007690Y007424D03*
X007693Y007424D03*
X007695Y007424D03*
X007698Y007424D03*
X007700Y007424D03*
X007703Y007424D03*
X007705Y007424D03*
X007708Y007424D03*
X007710Y007424D03*
X007713Y007424D03*
X007715Y007424D03*
X007718Y007424D03*
X007720Y007424D03*
X007723Y007424D03*
X007725Y007424D03*
X007728Y007424D03*
X007730Y007424D03*
X007733Y007424D03*
X007735Y007424D03*
X007738Y007424D03*
X007740Y007424D03*
X007743Y007424D03*
X007745Y007424D03*
X007748Y007424D03*
X007750Y007424D03*
X007753Y007424D03*
X007755Y007424D03*
X007758Y007424D03*
D137*
X007540Y007469D03*
X007538Y007469D03*
X007640Y006769D03*
X007405Y005601D03*
X007403Y005601D03*
X007400Y005601D03*
X007398Y005601D03*
X007395Y005601D03*
X007393Y005601D03*
X007390Y005601D03*
X007273Y005291D03*
X007248Y004311D03*
X007405Y004311D03*
D138*
X007430Y004295D03*
X007253Y004295D03*
X007518Y004523D03*
X007625Y004295D03*
X007475Y005308D03*
X007618Y006023D03*
X007640Y006538D03*
X007635Y006765D03*
X007278Y007485D03*
X007275Y007485D03*
D139*
X007640Y006121D03*
D140*
X007640Y005468D03*
D141*
X007555Y005314D03*
X007553Y005314D03*
X007550Y005314D03*
X007548Y005314D03*
X007545Y005314D03*
X007543Y005314D03*
X007540Y005314D03*
X007538Y005314D03*
X007535Y005314D03*
X007533Y005314D03*
X007530Y005314D03*
X007528Y005314D03*
X007525Y005314D03*
X007523Y005314D03*
X007520Y005314D03*
X007518Y005314D03*
X007515Y005314D03*
X007513Y005314D03*
X007510Y005314D03*
X007640Y004909D03*
X007503Y004524D03*
X007440Y004289D03*
X007618Y004289D03*
X007610Y006026D03*
X007633Y006764D03*
D142*
X007255Y006219D03*
X007278Y005619D03*
X007460Y005619D03*
X007618Y005614D03*
X007640Y004626D03*
X007378Y004329D03*
X007393Y007451D03*
X007395Y007451D03*
X007480Y007451D03*
X007483Y007451D03*
D143*
X007510Y007460D03*
X007558Y005610D03*
X007560Y005610D03*
X007563Y005610D03*
X007565Y005610D03*
X007600Y005608D03*
X007603Y005608D03*
X007453Y005610D03*
X007305Y005610D03*
X007303Y005610D03*
X007265Y005283D03*
X007425Y005283D03*
X007393Y004320D03*
X007640Y004320D03*
D144*
X007548Y004526D03*
X007545Y004526D03*
X007538Y004524D03*
X007250Y004301D03*
X007288Y005301D03*
X007290Y005301D03*
X007308Y005301D03*
X007310Y005301D03*
X007313Y005301D03*
X007315Y005301D03*
X007455Y005301D03*
X007458Y005301D03*
X007638Y006766D03*
X007300Y007479D03*
X007298Y007479D03*
D145*
X007638Y006124D03*
D146*
X007638Y005470D03*
D147*
X007445Y005604D03*
X007443Y005604D03*
X007440Y005604D03*
X007350Y005604D03*
X007348Y005604D03*
X007345Y005604D03*
X007343Y005604D03*
X007340Y005604D03*
X007338Y005604D03*
X007270Y005289D03*
X007433Y005289D03*
X007638Y004626D03*
X007403Y004314D03*
X007530Y007466D03*
X007533Y007466D03*
X007253Y007466D03*
D148*
X007535Y007468D03*
X007630Y006020D03*
X007438Y005603D03*
X007435Y005603D03*
X007433Y005603D03*
X007430Y005603D03*
X007428Y005603D03*
X007425Y005603D03*
X007423Y005603D03*
X007420Y005603D03*
X007418Y005603D03*
X007415Y005603D03*
X007413Y005603D03*
X007410Y005603D03*
X007408Y005603D03*
X007388Y005603D03*
X007385Y005603D03*
X007383Y005603D03*
X007380Y005603D03*
X007378Y005603D03*
X007375Y005603D03*
X007373Y005603D03*
X007370Y005603D03*
X007368Y005603D03*
X007365Y005603D03*
X007363Y005603D03*
X007360Y005603D03*
X007358Y005603D03*
X007355Y005603D03*
X007353Y005603D03*
X007435Y005290D03*
X007638Y004313D03*
D149*
X007635Y006125D03*
D150*
X007635Y005468D03*
D151*
X007453Y005300D03*
X007325Y005300D03*
X007323Y005300D03*
X007320Y005300D03*
X007318Y005300D03*
X007285Y005300D03*
X007635Y004625D03*
X007560Y004533D03*
X007558Y004530D03*
X007555Y004530D03*
X007553Y004528D03*
X007550Y004528D03*
X007420Y004303D03*
X007305Y007478D03*
X007303Y007478D03*
X007565Y007478D03*
X007568Y007478D03*
D152*
X007553Y007473D03*
X007550Y007473D03*
X007320Y007473D03*
X007255Y007473D03*
X007628Y006020D03*
X007443Y005295D03*
X007340Y005295D03*
X007278Y005295D03*
X007635Y004308D03*
D153*
X007433Y004294D03*
X007513Y004521D03*
X007515Y004521D03*
X007633Y004626D03*
X007483Y005309D03*
X007480Y005309D03*
X007478Y005309D03*
X007248Y006521D03*
X007255Y007036D03*
X007265Y007486D03*
X007268Y007486D03*
X007270Y007486D03*
X007273Y007486D03*
X007633Y007704D03*
D154*
X007498Y007456D03*
X007633Y006024D03*
X007613Y005611D03*
X007290Y005614D03*
X007388Y004324D03*
D155*
X007633Y005595D03*
D156*
X007450Y005299D03*
X007330Y005299D03*
X007328Y005299D03*
X007283Y005299D03*
X007625Y006021D03*
X007563Y007476D03*
X007308Y007476D03*
X007258Y007476D03*
X007418Y004304D03*
X007633Y004304D03*
D157*
X007630Y005616D03*
X007468Y005636D03*
D158*
X007608Y006028D03*
X007630Y004625D03*
X007500Y004525D03*
X007443Y004288D03*
X007258Y004288D03*
D159*
X007423Y004300D03*
X007630Y004300D03*
X007543Y004525D03*
X007540Y004525D03*
X007535Y004523D03*
X007533Y004523D03*
X007253Y004590D03*
X007293Y005303D03*
X007295Y005303D03*
X007298Y005303D03*
X007300Y005303D03*
X007303Y005303D03*
X007305Y005303D03*
X007460Y005303D03*
X007623Y006020D03*
X007295Y007480D03*
X007293Y007480D03*
X007260Y007480D03*
D160*
X007418Y007444D03*
X007420Y007444D03*
X007455Y007444D03*
X007458Y007444D03*
X007265Y005626D03*
X007628Y005621D03*
X007360Y004336D03*
X007358Y004336D03*
X007355Y004336D03*
X007353Y004336D03*
X007338Y004336D03*
X007335Y004336D03*
X007333Y004336D03*
X007330Y004336D03*
D161*
X007428Y004298D03*
X007628Y004298D03*
X007530Y004523D03*
X007528Y004523D03*
X007525Y004523D03*
X007468Y005305D03*
X007465Y005305D03*
X007620Y006023D03*
X007285Y007483D03*
D162*
X007410Y007446D03*
X007413Y007446D03*
X007463Y007446D03*
X007465Y007446D03*
X007463Y005624D03*
X007268Y005624D03*
X007255Y005269D03*
X007625Y005619D03*
X007368Y004334D03*
X007325Y004334D03*
D163*
X007370Y004333D03*
X007270Y005623D03*
X007623Y005618D03*
X007470Y007448D03*
X007468Y007448D03*
X007408Y007448D03*
X007405Y007448D03*
D164*
X007615Y006025D03*
X007488Y005310D03*
X007485Y005310D03*
X007510Y004523D03*
X007435Y004293D03*
X007623Y004293D03*
D165*
X007375Y004330D03*
X007258Y005273D03*
X007275Y005620D03*
X007620Y005615D03*
X007478Y007450D03*
X007475Y007450D03*
X007398Y007450D03*
D166*
X007613Y006025D03*
X007565Y005313D03*
X007563Y005313D03*
X007560Y005313D03*
X007558Y005313D03*
X007508Y005313D03*
X007505Y005313D03*
X007503Y005313D03*
X007500Y005313D03*
X007498Y005313D03*
X007505Y004523D03*
X007620Y004290D03*
X007255Y004290D03*
D167*
X007380Y004328D03*
X007418Y005275D03*
X007280Y005618D03*
X007615Y005613D03*
X007485Y007453D03*
X007390Y007453D03*
X007388Y007453D03*
D168*
X007250Y006529D03*
X007605Y006029D03*
X007250Y005956D03*
X007258Y004591D03*
X007498Y004526D03*
X007445Y004286D03*
X007615Y004286D03*
D169*
X007423Y005280D03*
X007263Y005280D03*
X007293Y005613D03*
X007295Y005613D03*
X007455Y005613D03*
X007608Y005610D03*
X007610Y005610D03*
X007258Y006220D03*
X007500Y007458D03*
X007503Y007458D03*
D170*
X007505Y007459D03*
X007508Y007459D03*
X007555Y005611D03*
X007605Y005609D03*
X007300Y005611D03*
X007298Y005611D03*
X007390Y004321D03*
D171*
X007395Y004319D03*
X007310Y005609D03*
X007308Y005609D03*
X007568Y005609D03*
X007570Y005609D03*
X007573Y005609D03*
X007575Y005609D03*
X007578Y005609D03*
X007580Y005609D03*
X007595Y005606D03*
X007598Y005606D03*
X007515Y007461D03*
X007513Y007461D03*
D172*
X007518Y007463D03*
X007520Y007463D03*
X007583Y005608D03*
X007585Y005608D03*
X007588Y005608D03*
X007590Y005608D03*
X007593Y005608D03*
X007450Y005608D03*
X007318Y005608D03*
X007315Y005608D03*
X007313Y005608D03*
X007428Y005285D03*
D173*
X007448Y005298D03*
X007333Y005298D03*
X007415Y004305D03*
X007313Y007475D03*
X007310Y007475D03*
X007558Y007475D03*
X007560Y007475D03*
D174*
X007555Y007474D03*
X007318Y007474D03*
X007315Y007474D03*
X007335Y005296D03*
X007338Y005296D03*
X007280Y005296D03*
X007445Y005296D03*
X007413Y004306D03*
D175*
X007553Y005684D03*
D176*
X007550Y005685D03*
X007548Y005685D03*
D177*
X007440Y005294D03*
X007410Y004309D03*
X007545Y007471D03*
X007548Y007471D03*
D178*
X007545Y005686D03*
D179*
X007438Y005293D03*
X007275Y005293D03*
X007250Y004590D03*
X007408Y004310D03*
X007263Y006220D03*
X007543Y007470D03*
D180*
X007543Y005688D03*
X007540Y005688D03*
D181*
X007538Y005689D03*
X007535Y005689D03*
D182*
X007533Y005690D03*
X007530Y005690D03*
X007528Y005690D03*
D183*
X007448Y005605D03*
X007335Y005605D03*
X007333Y005605D03*
X007330Y005605D03*
X007328Y005605D03*
X007400Y004315D03*
X007525Y007465D03*
X007528Y007465D03*
D184*
X007525Y005691D03*
X007523Y005691D03*
X007520Y005691D03*
X007518Y005691D03*
D185*
X007325Y005606D03*
X007323Y005606D03*
X007320Y005606D03*
X007268Y005286D03*
X007430Y005286D03*
X007260Y006219D03*
X007523Y007464D03*
X007398Y004316D03*
D186*
X007520Y004521D03*
X007523Y004521D03*
X007473Y005306D03*
X007470Y005306D03*
X007283Y007484D03*
X007280Y007484D03*
X007263Y007484D03*
D187*
X007505Y005693D03*
X007508Y005693D03*
X007510Y005693D03*
X007513Y005693D03*
X007515Y005693D03*
D188*
X007495Y005311D03*
X007493Y005311D03*
X007490Y005311D03*
X007255Y004591D03*
X007508Y004524D03*
X007438Y004291D03*
D189*
X007483Y005694D03*
X007485Y005694D03*
X007488Y005694D03*
X007490Y005694D03*
X007493Y005694D03*
X007495Y005694D03*
X007498Y005694D03*
X007500Y005694D03*
X007503Y005694D03*
D190*
X007288Y005615D03*
X007420Y005278D03*
X007385Y004325D03*
X007493Y007455D03*
X007495Y007455D03*
D191*
X007490Y007454D03*
X007488Y007454D03*
X007458Y005616D03*
X007285Y005616D03*
X007283Y005616D03*
X007260Y005276D03*
X007248Y004589D03*
X007383Y004326D03*
D192*
X007473Y005695D03*
X007475Y005695D03*
X007478Y005695D03*
X007480Y005695D03*
D193*
X007273Y005621D03*
X007415Y005271D03*
X007373Y004331D03*
X007400Y007449D03*
X007403Y007449D03*
X007473Y007449D03*
D194*
X007470Y005654D03*
D195*
X007465Y005629D03*
X007410Y005264D03*
X007253Y005264D03*
X007428Y007441D03*
X007448Y007441D03*
D196*
X007290Y007481D03*
X007288Y007481D03*
X007463Y005304D03*
X007425Y004299D03*
D197*
X007365Y004335D03*
X007363Y004335D03*
X007328Y004335D03*
X007413Y005268D03*
X007415Y007445D03*
X007460Y007445D03*
D198*
X007453Y007443D03*
X007450Y007443D03*
X007425Y007443D03*
X007423Y007443D03*
X007253Y006220D03*
X007263Y005628D03*
X007340Y004338D03*
X007343Y004338D03*
X007345Y004338D03*
X007348Y004338D03*
X007350Y004338D03*
D199*
X007260Y005630D03*
X007430Y007440D03*
X007433Y007440D03*
X007443Y007440D03*
X007445Y007440D03*
D200*
X007440Y007439D03*
X007438Y007439D03*
X007435Y007439D03*
D201*
X007408Y005259D03*
D202*
X007405Y005253D03*
D203*
X007403Y005229D03*
X007400Y005229D03*
X007398Y005229D03*
X007395Y005229D03*
X007393Y005229D03*
X007390Y005229D03*
X007388Y005229D03*
X007385Y005229D03*
X007383Y005229D03*
X007380Y005229D03*
X007378Y005229D03*
X007375Y005229D03*
X007373Y005229D03*
X007370Y005229D03*
X007368Y005229D03*
X007365Y005229D03*
X007363Y005229D03*
X007360Y005229D03*
X007358Y005229D03*
X007355Y005229D03*
X007353Y005229D03*
X007350Y005229D03*
D204*
X007348Y005230D03*
X007345Y005230D03*
X007343Y005230D03*
D205*
X007258Y005633D03*
D206*
X007255Y005635D03*
X007250Y005258D03*
D207*
X007253Y007124D03*
D208*
X007250Y006219D03*
X007253Y005639D03*
D209*
X007250Y007254D03*
D210*
X007250Y005644D03*
X007248Y005249D03*
D211*
X007248Y007248D03*
D212*
X007248Y006119D03*
D213*
X007248Y005651D03*
D214*
X007245Y007140D03*
X007243Y007140D03*
X007240Y007140D03*
X007238Y007140D03*
X007235Y007140D03*
X007233Y007140D03*
X007230Y007140D03*
X007228Y007140D03*
X007225Y007140D03*
X007223Y007140D03*
X007220Y007140D03*
X007218Y007140D03*
X007215Y007140D03*
X007213Y007140D03*
X007210Y007140D03*
X007208Y007140D03*
X007205Y007140D03*
X007203Y007140D03*
X007200Y007140D03*
X007198Y007140D03*
X007195Y007140D03*
X007193Y007140D03*
X007190Y007140D03*
X007188Y007140D03*
X007185Y007140D03*
X007183Y007140D03*
X007180Y007140D03*
X007178Y007140D03*
X007175Y007140D03*
X007173Y007140D03*
X007170Y007140D03*
D215*
X007170Y006053D03*
X007168Y006053D03*
X007165Y006053D03*
X007163Y006053D03*
X007160Y006053D03*
X007158Y006053D03*
X007155Y006053D03*
X007153Y006053D03*
X007150Y006053D03*
X007148Y006053D03*
X007145Y006053D03*
X007143Y006053D03*
X007120Y006053D03*
X007173Y006053D03*
X007175Y006053D03*
X007178Y006053D03*
X007180Y006053D03*
X007183Y006053D03*
X007185Y006053D03*
X007188Y006053D03*
X007190Y006053D03*
X007193Y006053D03*
X007195Y006053D03*
X007198Y006053D03*
X007200Y006053D03*
X007203Y006053D03*
X007205Y006053D03*
X007208Y006053D03*
X007210Y006053D03*
X007213Y006053D03*
X007215Y006053D03*
X007218Y006053D03*
X007220Y006053D03*
X007223Y006053D03*
X007225Y006053D03*
X007228Y006053D03*
X007230Y006053D03*
X007233Y006053D03*
X007235Y006053D03*
X007238Y006053D03*
X007240Y006053D03*
X007243Y006053D03*
X007245Y006053D03*
D216*
X007245Y005149D03*
X007243Y005149D03*
X007240Y005149D03*
X007238Y005149D03*
X007235Y005149D03*
X007233Y005149D03*
X007230Y005149D03*
X007228Y005149D03*
X007225Y005149D03*
X007223Y005149D03*
X007220Y005149D03*
X007218Y005149D03*
X007215Y005149D03*
X007213Y005149D03*
X007210Y005149D03*
X007208Y005149D03*
X007205Y005149D03*
X007203Y005149D03*
X007200Y005149D03*
X007198Y005149D03*
X007195Y005149D03*
X007193Y005149D03*
X007190Y005149D03*
X007188Y005149D03*
X007185Y005149D03*
X007183Y005149D03*
X007180Y005149D03*
X007178Y005149D03*
X007175Y005149D03*
X007173Y005149D03*
X007170Y005149D03*
X007168Y005149D03*
X007165Y005149D03*
X007163Y005149D03*
X007160Y005149D03*
X007158Y005149D03*
X007155Y005149D03*
X007153Y005149D03*
X007150Y005149D03*
X007148Y005149D03*
X007145Y005149D03*
X007143Y005149D03*
X007140Y005149D03*
X007138Y005149D03*
X007135Y005149D03*
X007133Y005149D03*
X007130Y005149D03*
X007123Y005151D03*
X007120Y005151D03*
X007118Y005151D03*
X007115Y005151D03*
D217*
X007115Y004505D03*
X007113Y004505D03*
X007110Y004505D03*
X007108Y004505D03*
X007105Y004505D03*
X007103Y004505D03*
X007100Y004505D03*
X007118Y004505D03*
X007120Y004505D03*
X007123Y004505D03*
X007125Y004505D03*
X007128Y004505D03*
X007130Y004505D03*
X007133Y004505D03*
X007135Y004505D03*
X007138Y004505D03*
X007140Y004505D03*
X007143Y004505D03*
X007145Y004505D03*
X007148Y004505D03*
X007150Y004505D03*
X007153Y004505D03*
X007155Y004505D03*
X007158Y004505D03*
X007160Y004505D03*
X007163Y004505D03*
X007165Y004505D03*
X007168Y004505D03*
X007170Y004505D03*
X007173Y004505D03*
X007175Y004505D03*
X007178Y004505D03*
X007180Y004505D03*
X007183Y004505D03*
X007185Y004505D03*
X007188Y004505D03*
X007190Y004505D03*
X007193Y004505D03*
X007195Y004505D03*
X007198Y004505D03*
X007200Y004505D03*
X007203Y004505D03*
X007205Y004505D03*
X007208Y004505D03*
X007210Y004505D03*
X007213Y004505D03*
X007215Y004505D03*
X007218Y004505D03*
X007220Y004505D03*
X007223Y004505D03*
X007225Y004505D03*
X007228Y004505D03*
X007230Y004505D03*
X007233Y004505D03*
X007235Y004505D03*
X007238Y004505D03*
X007240Y004505D03*
X007243Y004505D03*
X007245Y004505D03*
D218*
X007163Y007073D03*
D219*
X007160Y007071D03*
D220*
X007158Y007070D03*
D221*
X007155Y007069D03*
X007153Y007069D03*
D222*
X007150Y007068D03*
X007148Y007068D03*
X007145Y007068D03*
D223*
X007143Y007066D03*
X007140Y007066D03*
X007138Y007066D03*
X007135Y007066D03*
X007133Y007066D03*
D224*
X007075Y007236D03*
X007123Y006054D03*
X007125Y006054D03*
X007128Y006054D03*
X007130Y006054D03*
X007133Y006054D03*
X007135Y006054D03*
X007138Y006054D03*
X007140Y006054D03*
D225*
X007130Y007066D03*
X007128Y007066D03*
X007125Y007066D03*
X007123Y007066D03*
X007120Y007066D03*
X007118Y007066D03*
X007115Y007066D03*
X007113Y007066D03*
X007110Y007066D03*
X007108Y007066D03*
D226*
X007125Y005150D03*
X007128Y005150D03*
D227*
X007118Y006051D03*
D228*
X007115Y006050D03*
D229*
X007113Y006049D03*
D230*
X007113Y005153D03*
X007110Y005153D03*
X007108Y005153D03*
D231*
X007110Y006046D03*
X007073Y007229D03*
D232*
X007108Y006043D03*
D233*
X007105Y007250D03*
X007103Y007250D03*
X007100Y007250D03*
X007098Y007250D03*
X007095Y007250D03*
D234*
X007105Y006033D03*
D235*
X007105Y005155D03*
D236*
X007103Y005756D03*
X007100Y005756D03*
X007098Y005756D03*
X007095Y005756D03*
D237*
X007095Y004506D03*
X007093Y004506D03*
X007090Y004506D03*
X007088Y004506D03*
X007085Y004506D03*
X007098Y004506D03*
D238*
X007093Y007249D03*
X007090Y007249D03*
D239*
X007093Y005755D03*
D240*
X007090Y005755D03*
X007088Y005755D03*
D241*
X007088Y007248D03*
D242*
X007085Y007246D03*
D243*
X007085Y005754D03*
D244*
X007083Y007245D03*
D245*
X007083Y005751D03*
D246*
X007083Y004508D03*
X007080Y004508D03*
X007078Y004508D03*
X007075Y004508D03*
D247*
X007080Y007244D03*
D248*
X007080Y005750D03*
D249*
X007078Y007241D03*
D250*
X007078Y005748D03*
D251*
X007075Y005744D03*
D252*
X007073Y005738D03*
D253*
X007073Y004509D03*
D254*
X006985Y006000D03*
D255*
X006958Y006000D03*
D256*
X006953Y005999D03*
D257*
X006938Y005999D03*
D258*
X006923Y006000D03*
D259*
X006920Y005999D03*
D260*
X006915Y005999D03*
D261*
X006913Y005999D03*
D262*
X006910Y005999D03*
D263*
X006908Y005999D03*
D264*
X006905Y006000D03*
D265*
X006903Y006000D03*
M02*
