%
M48
M72
T01C0.0100
T02C0.0400
T03C0.1200
%
T01
X2950Y2450
X4050Y1550
X3550Y1150
X4050Y650
X4350Y2850
X4550Y4050
X4550Y4950
X5650Y4750
X6750Y4650
X6750Y5350
X8350Y6050
X7950Y7350
X6050Y8750
X4450Y7550
X3850Y6450
X2250Y6450
X1450Y5450
X1450Y4450
X6350Y1050
X6550Y2150
X3850Y9950
T02
X650Y2950
X650Y3950
X650Y4950
X650Y5950
X650Y6950
X650Y7950
T03
X7950Y1350
X1350Y1350
X1350Y9550
X7950Y9550
M30
