G75*
G70*
%OFA0B0*%
%FSLAX24Y24*%
%IPPOS*%
%LPD*%
%AMOC8*
5,1,8,0,0,1.08239X$1,22.5*
%
%ADD10C,0.0000*%
%ADD11C,0.1280*%
%ADD12R,0.0513X0.0474*%
%ADD13R,0.0710X0.0789*%
%ADD14R,0.0157X0.0433*%
%ADD15C,0.0820*%
D10*
X000150Y000150D02*
X009150Y000150D01*
X009150Y010750D01*
X000150Y010750D01*
X000150Y000150D01*
X000750Y001350D02*
X000752Y001399D01*
X000758Y001447D01*
X000768Y001495D01*
X000782Y001542D01*
X000799Y001588D01*
X000820Y001632D01*
X000845Y001674D01*
X000873Y001714D01*
X000905Y001752D01*
X000939Y001787D01*
X000976Y001819D01*
X001015Y001848D01*
X001057Y001874D01*
X001101Y001896D01*
X001146Y001914D01*
X001193Y001929D01*
X001240Y001940D01*
X001289Y001947D01*
X001338Y001950D01*
X001387Y001949D01*
X001435Y001944D01*
X001484Y001935D01*
X001531Y001922D01*
X001577Y001905D01*
X001621Y001885D01*
X001664Y001861D01*
X001705Y001834D01*
X001743Y001803D01*
X001779Y001770D01*
X001811Y001734D01*
X001841Y001695D01*
X001868Y001654D01*
X001891Y001610D01*
X001910Y001565D01*
X001926Y001519D01*
X001938Y001472D01*
X001946Y001423D01*
X001950Y001374D01*
X001950Y001326D01*
X001946Y001277D01*
X001938Y001228D01*
X001926Y001181D01*
X001910Y001135D01*
X001891Y001090D01*
X001868Y001046D01*
X001841Y001005D01*
X001811Y000966D01*
X001779Y000930D01*
X001743Y000897D01*
X001705Y000866D01*
X001664Y000839D01*
X001621Y000815D01*
X001577Y000795D01*
X001531Y000778D01*
X001484Y000765D01*
X001435Y000756D01*
X001387Y000751D01*
X001338Y000750D01*
X001289Y000753D01*
X001240Y000760D01*
X001193Y000771D01*
X001146Y000786D01*
X001101Y000804D01*
X001057Y000826D01*
X001015Y000852D01*
X000976Y000881D01*
X000939Y000913D01*
X000905Y000948D01*
X000873Y000986D01*
X000845Y001026D01*
X000820Y001068D01*
X000799Y001112D01*
X000782Y001158D01*
X000768Y001205D01*
X000758Y001253D01*
X000752Y001301D01*
X000750Y001350D01*
X007350Y001350D02*
X007352Y001399D01*
X007358Y001447D01*
X007368Y001495D01*
X007382Y001542D01*
X007399Y001588D01*
X007420Y001632D01*
X007445Y001674D01*
X007473Y001714D01*
X007505Y001752D01*
X007539Y001787D01*
X007576Y001819D01*
X007615Y001848D01*
X007657Y001874D01*
X007701Y001896D01*
X007746Y001914D01*
X007793Y001929D01*
X007840Y001940D01*
X007889Y001947D01*
X007938Y001950D01*
X007987Y001949D01*
X008035Y001944D01*
X008084Y001935D01*
X008131Y001922D01*
X008177Y001905D01*
X008221Y001885D01*
X008264Y001861D01*
X008305Y001834D01*
X008343Y001803D01*
X008379Y001770D01*
X008411Y001734D01*
X008441Y001695D01*
X008468Y001654D01*
X008491Y001610D01*
X008510Y001565D01*
X008526Y001519D01*
X008538Y001472D01*
X008546Y001423D01*
X008550Y001374D01*
X008550Y001326D01*
X008546Y001277D01*
X008538Y001228D01*
X008526Y001181D01*
X008510Y001135D01*
X008491Y001090D01*
X008468Y001046D01*
X008441Y001005D01*
X008411Y000966D01*
X008379Y000930D01*
X008343Y000897D01*
X008305Y000866D01*
X008264Y000839D01*
X008221Y000815D01*
X008177Y000795D01*
X008131Y000778D01*
X008084Y000765D01*
X008035Y000756D01*
X007987Y000751D01*
X007938Y000750D01*
X007889Y000753D01*
X007840Y000760D01*
X007793Y000771D01*
X007746Y000786D01*
X007701Y000804D01*
X007657Y000826D01*
X007615Y000852D01*
X007576Y000881D01*
X007539Y000913D01*
X007505Y000948D01*
X007473Y000986D01*
X007445Y001026D01*
X007420Y001068D01*
X007399Y001112D01*
X007382Y001158D01*
X007368Y001205D01*
X007358Y001253D01*
X007352Y001301D01*
X007350Y001350D01*
X007350Y009550D02*
X007352Y009599D01*
X007358Y009647D01*
X007368Y009695D01*
X007382Y009742D01*
X007399Y009788D01*
X007420Y009832D01*
X007445Y009874D01*
X007473Y009914D01*
X007505Y009952D01*
X007539Y009987D01*
X007576Y010019D01*
X007615Y010048D01*
X007657Y010074D01*
X007701Y010096D01*
X007746Y010114D01*
X007793Y010129D01*
X007840Y010140D01*
X007889Y010147D01*
X007938Y010150D01*
X007987Y010149D01*
X008035Y010144D01*
X008084Y010135D01*
X008131Y010122D01*
X008177Y010105D01*
X008221Y010085D01*
X008264Y010061D01*
X008305Y010034D01*
X008343Y010003D01*
X008379Y009970D01*
X008411Y009934D01*
X008441Y009895D01*
X008468Y009854D01*
X008491Y009810D01*
X008510Y009765D01*
X008526Y009719D01*
X008538Y009672D01*
X008546Y009623D01*
X008550Y009574D01*
X008550Y009526D01*
X008546Y009477D01*
X008538Y009428D01*
X008526Y009381D01*
X008510Y009335D01*
X008491Y009290D01*
X008468Y009246D01*
X008441Y009205D01*
X008411Y009166D01*
X008379Y009130D01*
X008343Y009097D01*
X008305Y009066D01*
X008264Y009039D01*
X008221Y009015D01*
X008177Y008995D01*
X008131Y008978D01*
X008084Y008965D01*
X008035Y008956D01*
X007987Y008951D01*
X007938Y008950D01*
X007889Y008953D01*
X007840Y008960D01*
X007793Y008971D01*
X007746Y008986D01*
X007701Y009004D01*
X007657Y009026D01*
X007615Y009052D01*
X007576Y009081D01*
X007539Y009113D01*
X007505Y009148D01*
X007473Y009186D01*
X007445Y009226D01*
X007420Y009268D01*
X007399Y009312D01*
X007382Y009358D01*
X007368Y009405D01*
X007358Y009453D01*
X007352Y009501D01*
X007350Y009550D01*
X000750Y009550D02*
X000752Y009599D01*
X000758Y009647D01*
X000768Y009695D01*
X000782Y009742D01*
X000799Y009788D01*
X000820Y009832D01*
X000845Y009874D01*
X000873Y009914D01*
X000905Y009952D01*
X000939Y009987D01*
X000976Y010019D01*
X001015Y010048D01*
X001057Y010074D01*
X001101Y010096D01*
X001146Y010114D01*
X001193Y010129D01*
X001240Y010140D01*
X001289Y010147D01*
X001338Y010150D01*
X001387Y010149D01*
X001435Y010144D01*
X001484Y010135D01*
X001531Y010122D01*
X001577Y010105D01*
X001621Y010085D01*
X001664Y010061D01*
X001705Y010034D01*
X001743Y010003D01*
X001779Y009970D01*
X001811Y009934D01*
X001841Y009895D01*
X001868Y009854D01*
X001891Y009810D01*
X001910Y009765D01*
X001926Y009719D01*
X001938Y009672D01*
X001946Y009623D01*
X001950Y009574D01*
X001950Y009526D01*
X001946Y009477D01*
X001938Y009428D01*
X001926Y009381D01*
X001910Y009335D01*
X001891Y009290D01*
X001868Y009246D01*
X001841Y009205D01*
X001811Y009166D01*
X001779Y009130D01*
X001743Y009097D01*
X001705Y009066D01*
X001664Y009039D01*
X001621Y009015D01*
X001577Y008995D01*
X001531Y008978D01*
X001484Y008965D01*
X001435Y008956D01*
X001387Y008951D01*
X001338Y008950D01*
X001289Y008953D01*
X001240Y008960D01*
X001193Y008971D01*
X001146Y008986D01*
X001101Y009004D01*
X001057Y009026D01*
X001015Y009052D01*
X000976Y009081D01*
X000939Y009113D01*
X000905Y009148D01*
X000873Y009186D01*
X000845Y009226D01*
X000820Y009268D01*
X000799Y009312D01*
X000782Y009358D01*
X000768Y009405D01*
X000758Y009453D01*
X000752Y009501D01*
X000750Y009550D01*
D11*
X001350Y009550D03*
X007950Y009550D03*
X007950Y001350D03*
X001350Y001350D03*
D12*
X005515Y004250D03*
X006185Y004250D03*
X003785Y007850D03*
X003115Y007850D03*
D13*
X004999Y003250D03*
X006101Y003250D03*
D14*
X003345Y005800D03*
X003148Y005800D03*
X002952Y005800D03*
X002755Y005800D03*
X002755Y007100D03*
X002952Y007100D03*
X003148Y007100D03*
X003345Y007100D03*
D15*
X000650Y006950D03*
X000650Y005950D03*
X000650Y004950D03*
X000650Y003950D03*
X000650Y002950D03*
X000650Y007950D03*
M02*
