G75*
G70*
%OFA0B0*%
%FSLAX24Y24*%
%IPPOS*%
%LPD*%
%AMOC8*
5,1,8,0,0,1.08239X$1,22.5*
%
%ADD10C,0.0000*%
%ADD11R,0.0433X0.0394*%
%ADD12R,0.0630X0.0709*%
%ADD13R,0.0118X0.0394*%
%ADD14C,0.0740*%
%ADD15C,0.0260*%
%ADD16C,0.0100*%
%ADD17C,0.0160*%
D10*
X000150Y000150D02*
X009150Y000150D01*
X009150Y010750D01*
X000150Y010750D01*
X000150Y000150D01*
X000750Y001350D02*
X000752Y001399D01*
X000758Y001447D01*
X000768Y001495D01*
X000782Y001542D01*
X000799Y001588D01*
X000820Y001632D01*
X000845Y001674D01*
X000873Y001714D01*
X000905Y001752D01*
X000939Y001787D01*
X000976Y001819D01*
X001015Y001848D01*
X001057Y001874D01*
X001101Y001896D01*
X001146Y001914D01*
X001193Y001929D01*
X001240Y001940D01*
X001289Y001947D01*
X001338Y001950D01*
X001387Y001949D01*
X001435Y001944D01*
X001484Y001935D01*
X001531Y001922D01*
X001577Y001905D01*
X001621Y001885D01*
X001664Y001861D01*
X001705Y001834D01*
X001743Y001803D01*
X001779Y001770D01*
X001811Y001734D01*
X001841Y001695D01*
X001868Y001654D01*
X001891Y001610D01*
X001910Y001565D01*
X001926Y001519D01*
X001938Y001472D01*
X001946Y001423D01*
X001950Y001374D01*
X001950Y001326D01*
X001946Y001277D01*
X001938Y001228D01*
X001926Y001181D01*
X001910Y001135D01*
X001891Y001090D01*
X001868Y001046D01*
X001841Y001005D01*
X001811Y000966D01*
X001779Y000930D01*
X001743Y000897D01*
X001705Y000866D01*
X001664Y000839D01*
X001621Y000815D01*
X001577Y000795D01*
X001531Y000778D01*
X001484Y000765D01*
X001435Y000756D01*
X001387Y000751D01*
X001338Y000750D01*
X001289Y000753D01*
X001240Y000760D01*
X001193Y000771D01*
X001146Y000786D01*
X001101Y000804D01*
X001057Y000826D01*
X001015Y000852D01*
X000976Y000881D01*
X000939Y000913D01*
X000905Y000948D01*
X000873Y000986D01*
X000845Y001026D01*
X000820Y001068D01*
X000799Y001112D01*
X000782Y001158D01*
X000768Y001205D01*
X000758Y001253D01*
X000752Y001301D01*
X000750Y001350D01*
X007350Y001350D02*
X007352Y001399D01*
X007358Y001447D01*
X007368Y001495D01*
X007382Y001542D01*
X007399Y001588D01*
X007420Y001632D01*
X007445Y001674D01*
X007473Y001714D01*
X007505Y001752D01*
X007539Y001787D01*
X007576Y001819D01*
X007615Y001848D01*
X007657Y001874D01*
X007701Y001896D01*
X007746Y001914D01*
X007793Y001929D01*
X007840Y001940D01*
X007889Y001947D01*
X007938Y001950D01*
X007987Y001949D01*
X008035Y001944D01*
X008084Y001935D01*
X008131Y001922D01*
X008177Y001905D01*
X008221Y001885D01*
X008264Y001861D01*
X008305Y001834D01*
X008343Y001803D01*
X008379Y001770D01*
X008411Y001734D01*
X008441Y001695D01*
X008468Y001654D01*
X008491Y001610D01*
X008510Y001565D01*
X008526Y001519D01*
X008538Y001472D01*
X008546Y001423D01*
X008550Y001374D01*
X008550Y001326D01*
X008546Y001277D01*
X008538Y001228D01*
X008526Y001181D01*
X008510Y001135D01*
X008491Y001090D01*
X008468Y001046D01*
X008441Y001005D01*
X008411Y000966D01*
X008379Y000930D01*
X008343Y000897D01*
X008305Y000866D01*
X008264Y000839D01*
X008221Y000815D01*
X008177Y000795D01*
X008131Y000778D01*
X008084Y000765D01*
X008035Y000756D01*
X007987Y000751D01*
X007938Y000750D01*
X007889Y000753D01*
X007840Y000760D01*
X007793Y000771D01*
X007746Y000786D01*
X007701Y000804D01*
X007657Y000826D01*
X007615Y000852D01*
X007576Y000881D01*
X007539Y000913D01*
X007505Y000948D01*
X007473Y000986D01*
X007445Y001026D01*
X007420Y001068D01*
X007399Y001112D01*
X007382Y001158D01*
X007368Y001205D01*
X007358Y001253D01*
X007352Y001301D01*
X007350Y001350D01*
X007350Y009550D02*
X007352Y009599D01*
X007358Y009647D01*
X007368Y009695D01*
X007382Y009742D01*
X007399Y009788D01*
X007420Y009832D01*
X007445Y009874D01*
X007473Y009914D01*
X007505Y009952D01*
X007539Y009987D01*
X007576Y010019D01*
X007615Y010048D01*
X007657Y010074D01*
X007701Y010096D01*
X007746Y010114D01*
X007793Y010129D01*
X007840Y010140D01*
X007889Y010147D01*
X007938Y010150D01*
X007987Y010149D01*
X008035Y010144D01*
X008084Y010135D01*
X008131Y010122D01*
X008177Y010105D01*
X008221Y010085D01*
X008264Y010061D01*
X008305Y010034D01*
X008343Y010003D01*
X008379Y009970D01*
X008411Y009934D01*
X008441Y009895D01*
X008468Y009854D01*
X008491Y009810D01*
X008510Y009765D01*
X008526Y009719D01*
X008538Y009672D01*
X008546Y009623D01*
X008550Y009574D01*
X008550Y009526D01*
X008546Y009477D01*
X008538Y009428D01*
X008526Y009381D01*
X008510Y009335D01*
X008491Y009290D01*
X008468Y009246D01*
X008441Y009205D01*
X008411Y009166D01*
X008379Y009130D01*
X008343Y009097D01*
X008305Y009066D01*
X008264Y009039D01*
X008221Y009015D01*
X008177Y008995D01*
X008131Y008978D01*
X008084Y008965D01*
X008035Y008956D01*
X007987Y008951D01*
X007938Y008950D01*
X007889Y008953D01*
X007840Y008960D01*
X007793Y008971D01*
X007746Y008986D01*
X007701Y009004D01*
X007657Y009026D01*
X007615Y009052D01*
X007576Y009081D01*
X007539Y009113D01*
X007505Y009148D01*
X007473Y009186D01*
X007445Y009226D01*
X007420Y009268D01*
X007399Y009312D01*
X007382Y009358D01*
X007368Y009405D01*
X007358Y009453D01*
X007352Y009501D01*
X007350Y009550D01*
X000750Y009550D02*
X000752Y009599D01*
X000758Y009647D01*
X000768Y009695D01*
X000782Y009742D01*
X000799Y009788D01*
X000820Y009832D01*
X000845Y009874D01*
X000873Y009914D01*
X000905Y009952D01*
X000939Y009987D01*
X000976Y010019D01*
X001015Y010048D01*
X001057Y010074D01*
X001101Y010096D01*
X001146Y010114D01*
X001193Y010129D01*
X001240Y010140D01*
X001289Y010147D01*
X001338Y010150D01*
X001387Y010149D01*
X001435Y010144D01*
X001484Y010135D01*
X001531Y010122D01*
X001577Y010105D01*
X001621Y010085D01*
X001664Y010061D01*
X001705Y010034D01*
X001743Y010003D01*
X001779Y009970D01*
X001811Y009934D01*
X001841Y009895D01*
X001868Y009854D01*
X001891Y009810D01*
X001910Y009765D01*
X001926Y009719D01*
X001938Y009672D01*
X001946Y009623D01*
X001950Y009574D01*
X001950Y009526D01*
X001946Y009477D01*
X001938Y009428D01*
X001926Y009381D01*
X001910Y009335D01*
X001891Y009290D01*
X001868Y009246D01*
X001841Y009205D01*
X001811Y009166D01*
X001779Y009130D01*
X001743Y009097D01*
X001705Y009066D01*
X001664Y009039D01*
X001621Y009015D01*
X001577Y008995D01*
X001531Y008978D01*
X001484Y008965D01*
X001435Y008956D01*
X001387Y008951D01*
X001338Y008950D01*
X001289Y008953D01*
X001240Y008960D01*
X001193Y008971D01*
X001146Y008986D01*
X001101Y009004D01*
X001057Y009026D01*
X001015Y009052D01*
X000976Y009081D01*
X000939Y009113D01*
X000905Y009148D01*
X000873Y009186D01*
X000845Y009226D01*
X000820Y009268D01*
X000799Y009312D01*
X000782Y009358D01*
X000768Y009405D01*
X000758Y009453D01*
X000752Y009501D01*
X000750Y009550D01*
D11*
X003115Y007850D03*
X003785Y007850D03*
X005515Y004250D03*
X006185Y004250D03*
D12*
X006101Y003250D03*
X004999Y003250D03*
D13*
X003345Y005800D03*
X003148Y005800D03*
X002952Y005800D03*
X002755Y005800D03*
X002755Y007100D03*
X002952Y007100D03*
X003148Y007100D03*
X003345Y007100D03*
D14*
X000650Y006950D03*
X000650Y005950D03*
X000650Y004950D03*
X000650Y003950D03*
X000650Y002950D03*
X000650Y007950D03*
D15*
X002250Y006450D03*
X001450Y005450D03*
X001450Y004450D03*
X002950Y002450D03*
X004050Y001550D03*
X003550Y001150D03*
X004050Y000650D03*
X004350Y002850D03*
X004550Y004050D03*
X004550Y004950D03*
X005650Y004750D03*
X006750Y004650D03*
X006750Y005350D03*
X008350Y006050D03*
X007950Y007350D03*
X006050Y008750D03*
X004450Y007550D03*
X003850Y006450D03*
X003850Y009950D03*
X006550Y002150D03*
X006350Y001050D03*
D16*
X005691Y001750D02*
X005750Y001809D01*
X005750Y002491D01*
X005691Y002550D01*
X005609Y002550D01*
X005009Y002550D01*
X004950Y002491D01*
X004950Y001809D01*
X005009Y001750D01*
X005691Y001750D01*
X005750Y001825D02*
X007265Y001825D01*
X007255Y001814D02*
X007255Y001814D01*
X007130Y001513D01*
X007130Y001187D01*
X007255Y000886D01*
X007255Y000886D01*
X007486Y000655D01*
X007787Y000530D01*
X008113Y000530D01*
X008414Y000655D01*
X008414Y000655D01*
X008645Y000886D01*
X008770Y001187D01*
X008770Y001387D01*
X008770Y001513D01*
X008770Y001513D01*
X008645Y001814D01*
X008645Y001814D01*
X008414Y002045D01*
X008113Y002170D01*
X007787Y002170D01*
X007486Y002045D01*
X007486Y002045D01*
X007255Y001814D01*
X007218Y001726D02*
X004242Y001726D01*
X004230Y001738D02*
X004230Y002618D01*
X004298Y002590D01*
X004402Y002590D01*
X004497Y002630D01*
X004570Y002703D01*
X004606Y002789D01*
X004630Y002766D01*
X005368Y002766D01*
X005444Y002842D01*
X005444Y003658D01*
X005368Y003734D01*
X004630Y003734D01*
X004554Y003658D01*
X004554Y003460D01*
X004463Y003460D01*
X004263Y003260D01*
X004230Y003227D01*
X004230Y005575D01*
X004530Y005875D01*
X004530Y007275D01*
X004575Y007320D01*
X004597Y007330D01*
X004670Y007403D01*
X004710Y007498D01*
X004710Y007602D01*
X004670Y007697D01*
X004597Y007770D01*
X004502Y007810D01*
X004398Y007810D01*
X004303Y007770D01*
X004230Y007697D01*
X004190Y007602D01*
X004190Y007498D01*
X004206Y007460D01*
X004025Y007280D01*
X003534Y007280D01*
X003534Y007350D01*
X003458Y007426D01*
X003328Y007426D01*
X003328Y007523D01*
X003386Y007523D01*
X003439Y007577D01*
X003448Y007561D01*
X003476Y007533D01*
X003510Y007513D01*
X003548Y007503D01*
X003736Y007503D01*
X003736Y007802D01*
X003833Y007802D01*
X003833Y007898D01*
X004151Y007898D01*
X004151Y008067D01*
X004150Y008070D01*
X005625Y008070D01*
X005730Y008175D01*
X005730Y008175D01*
X005825Y008270D01*
X006375Y008270D01*
X006470Y008175D01*
X006575Y008070D01*
X007675Y008070D01*
X007770Y007975D01*
X007770Y007538D01*
X007730Y007497D01*
X007690Y007402D01*
X007690Y007298D01*
X007730Y007203D01*
X007803Y007130D01*
X007898Y007090D01*
X008002Y007090D01*
X008097Y007130D01*
X008170Y007203D01*
X008210Y007298D01*
X008210Y007402D01*
X008170Y007497D01*
X008130Y007538D01*
X008130Y008125D01*
X008025Y008230D01*
X007825Y008430D01*
X006830Y008430D01*
X006830Y009725D01*
X006725Y009830D01*
X004375Y009830D01*
X004270Y009725D01*
X004270Y008975D01*
X004375Y008870D01*
X005370Y008870D01*
X005370Y008430D01*
X003175Y008430D01*
X003070Y008325D01*
X003070Y008325D01*
X002935Y008190D01*
X002935Y008177D01*
X002845Y008177D01*
X002769Y008101D01*
X002769Y007599D01*
X002845Y007523D01*
X002968Y007523D01*
X002968Y007446D01*
X002952Y007446D01*
X002952Y007100D01*
X002952Y007100D01*
X002952Y007446D01*
X002873Y007446D01*
X002835Y007436D01*
X002818Y007426D01*
X002642Y007426D01*
X002566Y007350D01*
X002566Y007280D01*
X001027Y007280D01*
X000933Y007374D01*
X000749Y007450D01*
X000933Y007526D01*
X001074Y007667D01*
X001150Y007851D01*
X001150Y008049D01*
X001074Y008233D01*
X000933Y008374D01*
X000749Y008450D01*
X000551Y008450D01*
X000367Y008374D01*
X000300Y008307D01*
X000300Y010600D01*
X009000Y010600D01*
X009000Y000300D01*
X000300Y000300D01*
X000300Y002565D01*
X000311Y002553D01*
X000377Y002505D01*
X000450Y002468D01*
X000528Y002443D01*
X000600Y002431D01*
X000600Y002900D01*
X000700Y002900D01*
X000700Y003000D01*
X001169Y003000D01*
X001157Y003072D01*
X001132Y003150D01*
X001095Y003223D01*
X001047Y003289D01*
X000989Y003347D01*
X000923Y003395D01*
X000850Y003432D01*
X000772Y003457D01*
X000768Y003458D01*
X000933Y003526D01*
X001074Y003667D01*
X001150Y003851D01*
X001150Y004049D01*
X001074Y004233D01*
X000933Y004374D01*
X000749Y004450D01*
X000933Y004526D01*
X001074Y004667D01*
X001150Y004851D01*
X001150Y005049D01*
X001074Y005233D01*
X000933Y005374D01*
X000749Y005450D01*
X000933Y005526D01*
X001027Y005620D01*
X001253Y005620D01*
X001230Y005597D01*
X001190Y005502D01*
X001190Y005398D01*
X001230Y005303D01*
X001303Y005230D01*
X001398Y005190D01*
X001455Y005190D01*
X001675Y004970D01*
X002825Y004970D01*
X003132Y005277D01*
X003132Y005474D01*
X003165Y005474D01*
X003165Y002602D01*
X003097Y002670D01*
X003002Y002710D01*
X002898Y002710D01*
X002803Y002670D01*
X002730Y002597D01*
X002690Y002502D01*
X002690Y002445D01*
X002570Y002325D01*
X002570Y000775D01*
X002675Y000670D01*
X002875Y000470D01*
X003862Y000470D01*
X003903Y000430D01*
X003998Y000390D01*
X004102Y000390D01*
X004197Y000430D01*
X004270Y000503D01*
X004310Y000598D01*
X004310Y000702D01*
X004270Y000797D01*
X004197Y000870D01*
X004102Y000910D01*
X003998Y000910D01*
X003903Y000870D01*
X003862Y000830D01*
X003025Y000830D01*
X002930Y000925D01*
X002930Y002175D01*
X002945Y002190D01*
X003002Y002190D01*
X003097Y002230D01*
X003165Y002298D01*
X003165Y001280D01*
X003290Y001155D01*
X003290Y001098D01*
X003330Y001003D01*
X003403Y000930D01*
X003498Y000890D01*
X003602Y000890D01*
X003697Y000930D01*
X003770Y001003D01*
X003810Y001098D01*
X003810Y001202D01*
X003770Y001297D01*
X003697Y001370D01*
X003602Y001410D01*
X003545Y001410D01*
X003525Y001429D01*
X003525Y005541D01*
X003534Y005550D01*
X003534Y005620D01*
X003575Y005620D01*
X003680Y005726D01*
X004030Y006075D01*
X004030Y006262D01*
X004070Y006303D01*
X004110Y006398D01*
X004110Y006502D01*
X004070Y006597D01*
X003997Y006670D01*
X003902Y006710D01*
X003798Y006710D01*
X003703Y006670D01*
X003630Y006597D01*
X003590Y006502D01*
X003590Y006398D01*
X003630Y006303D01*
X003670Y006262D01*
X003670Y006225D01*
X003515Y006070D01*
X003458Y006127D01*
X003328Y006127D01*
X003328Y006773D01*
X003458Y006773D01*
X003534Y006849D01*
X003534Y006920D01*
X004170Y006920D01*
X004170Y006025D01*
X003870Y005725D01*
X003870Y001738D01*
X003830Y001697D01*
X003790Y001602D01*
X003790Y001498D01*
X003830Y001403D01*
X003903Y001330D01*
X003998Y001290D01*
X004102Y001290D01*
X004197Y001330D01*
X004270Y001403D01*
X004310Y001498D01*
X004310Y001602D01*
X004270Y001697D01*
X004230Y001738D01*
X004230Y001825D02*
X004950Y001825D01*
X004950Y001923D02*
X004230Y001923D01*
X004230Y002022D02*
X004950Y002022D01*
X004950Y002120D02*
X004230Y002120D01*
X004230Y002219D02*
X004950Y002219D01*
X004950Y002317D02*
X004230Y002317D01*
X004230Y002416D02*
X004950Y002416D01*
X004973Y002514D02*
X004230Y002514D01*
X004230Y002613D02*
X004244Y002613D01*
X004456Y002613D02*
X006340Y002613D01*
X006340Y002711D02*
X004574Y002711D01*
X004305Y003302D02*
X004230Y003302D01*
X004230Y003401D02*
X004404Y003401D01*
X004554Y003499D02*
X004230Y003499D01*
X004230Y003598D02*
X004554Y003598D01*
X004592Y003696D02*
X004230Y003696D01*
X004230Y003795D02*
X004487Y003795D01*
X004498Y003790D02*
X004602Y003790D01*
X004697Y003830D01*
X004770Y003903D01*
X004810Y003998D01*
X004810Y004102D01*
X004770Y004197D01*
X004730Y004238D01*
X004730Y004375D01*
X005225Y004870D01*
X005418Y004870D01*
X005390Y004802D01*
X005390Y004745D01*
X005335Y004690D01*
X005335Y004577D01*
X005245Y004577D01*
X005169Y004501D01*
X005169Y003999D01*
X005245Y003923D01*
X005786Y003923D01*
X005839Y003977D01*
X005848Y003961D01*
X005876Y003933D01*
X005910Y003913D01*
X005948Y003903D01*
X006136Y003903D01*
X006136Y004202D01*
X006233Y004202D01*
X006233Y004298D01*
X006551Y004298D01*
X006551Y004467D01*
X006546Y004486D01*
X006603Y004430D01*
X006698Y004390D01*
X006802Y004390D01*
X006897Y004430D01*
X006970Y004503D01*
X007010Y004598D01*
X007010Y004702D01*
X006970Y004797D01*
X006897Y004870D01*
X006802Y004910D01*
X006745Y004910D01*
X006485Y005170D01*
X006562Y005170D01*
X006603Y005130D01*
X006698Y005090D01*
X006802Y005090D01*
X006897Y005130D01*
X006970Y005203D01*
X007010Y005298D01*
X007010Y005402D01*
X006970Y005497D01*
X006897Y005570D01*
X006802Y005610D01*
X006698Y005610D01*
X006603Y005570D01*
X006562Y005530D01*
X004875Y005530D01*
X004555Y005210D01*
X004498Y005210D01*
X004403Y005170D01*
X004330Y005097D01*
X004290Y005002D01*
X004290Y004898D01*
X004330Y004803D01*
X004403Y004730D01*
X004498Y004690D01*
X004535Y004690D01*
X004475Y004630D01*
X004370Y004525D01*
X004370Y004238D01*
X004330Y004197D01*
X004290Y004102D01*
X004290Y003998D01*
X004330Y003903D01*
X004403Y003830D01*
X004498Y003790D01*
X004613Y003795D02*
X009000Y003795D01*
X009000Y003893D02*
X004761Y003893D01*
X004807Y003992D02*
X005177Y003992D01*
X005169Y004090D02*
X004810Y004090D01*
X004774Y004189D02*
X005169Y004189D01*
X005169Y004287D02*
X004730Y004287D01*
X004740Y004386D02*
X005169Y004386D01*
X005169Y004484D02*
X004839Y004484D01*
X004937Y004583D02*
X005335Y004583D01*
X005335Y004681D02*
X005036Y004681D01*
X005134Y004780D02*
X005390Y004780D01*
X005515Y004615D02*
X005515Y004250D01*
X005515Y004615D02*
X005650Y004750D01*
X005882Y004870D02*
X006275Y004870D01*
X006490Y004655D01*
X006490Y004598D01*
X006510Y004550D01*
X006493Y004567D01*
X006459Y004587D01*
X006421Y004597D01*
X006233Y004597D01*
X006233Y004298D01*
X006136Y004298D01*
X006136Y004597D01*
X005948Y004597D01*
X005910Y004587D01*
X005876Y004567D01*
X005848Y004539D01*
X005839Y004523D01*
X005815Y004547D01*
X005870Y004603D01*
X005910Y004698D01*
X005910Y004802D01*
X005882Y004870D01*
X005910Y004780D02*
X006366Y004780D01*
X006464Y004681D02*
X005903Y004681D01*
X005903Y004583D02*
X005850Y004583D01*
X006136Y004583D02*
X006233Y004583D01*
X006233Y004484D02*
X006136Y004484D01*
X006136Y004386D02*
X006233Y004386D01*
X006233Y004287D02*
X009000Y004287D01*
X009000Y004189D02*
X006551Y004189D01*
X006551Y004202D02*
X006233Y004202D01*
X006233Y003903D01*
X006421Y003903D01*
X006459Y003913D01*
X006493Y003933D01*
X006521Y003961D01*
X006541Y003995D01*
X006551Y004033D01*
X006551Y004202D01*
X006551Y004090D02*
X009000Y004090D01*
X009000Y003992D02*
X006539Y003992D01*
X006470Y003734D02*
X005732Y003734D01*
X005656Y003658D01*
X005656Y002842D01*
X005732Y002766D01*
X006289Y002766D01*
X006340Y002714D01*
X006340Y002308D01*
X006330Y002297D01*
X006290Y002202D01*
X006290Y002098D01*
X006330Y002003D01*
X006403Y001930D01*
X006498Y001890D01*
X006602Y001890D01*
X006697Y001930D01*
X006770Y002003D01*
X006810Y002098D01*
X006810Y002202D01*
X006770Y002297D01*
X006760Y002308D01*
X006760Y002888D01*
X006637Y003011D01*
X006546Y003102D01*
X006546Y003658D01*
X006470Y003734D01*
X006508Y003696D02*
X009000Y003696D01*
X009000Y003598D02*
X006546Y003598D01*
X006546Y003499D02*
X009000Y003499D01*
X009000Y003401D02*
X006546Y003401D01*
X006546Y003302D02*
X009000Y003302D01*
X009000Y003204D02*
X006546Y003204D01*
X006546Y003105D02*
X009000Y003105D01*
X009000Y003007D02*
X006642Y003007D01*
X006740Y002908D02*
X009000Y002908D01*
X009000Y002810D02*
X006760Y002810D01*
X006760Y002711D02*
X009000Y002711D01*
X009000Y002613D02*
X006760Y002613D01*
X006760Y002514D02*
X009000Y002514D01*
X009000Y002416D02*
X006760Y002416D01*
X006760Y002317D02*
X009000Y002317D01*
X009000Y002219D02*
X006803Y002219D01*
X006810Y002120D02*
X007666Y002120D01*
X007462Y002022D02*
X006778Y002022D01*
X006681Y001923D02*
X007363Y001923D01*
X007177Y001628D02*
X004299Y001628D01*
X004310Y001529D02*
X007137Y001529D01*
X007130Y001431D02*
X004282Y001431D01*
X004200Y001332D02*
X007130Y001332D01*
X007130Y001234D02*
X003797Y001234D01*
X003810Y001135D02*
X007151Y001135D01*
X007192Y001037D02*
X003784Y001037D01*
X003706Y000938D02*
X007233Y000938D01*
X007301Y000840D02*
X004228Y000840D01*
X004294Y000741D02*
X007399Y000741D01*
X007486Y000655D02*
X007486Y000655D01*
X007515Y000643D02*
X004310Y000643D01*
X004288Y000544D02*
X007753Y000544D01*
X008147Y000544D02*
X009000Y000544D01*
X009000Y000446D02*
X004213Y000446D01*
X004050Y000650D02*
X002950Y000650D01*
X002750Y000850D01*
X002750Y002250D01*
X002950Y002450D01*
X003155Y002613D02*
X003165Y002613D01*
X003165Y002711D02*
X001112Y002711D01*
X001095Y002677D02*
X001132Y002750D01*
X001157Y002828D01*
X001169Y002900D01*
X000700Y002900D01*
X000700Y002431D01*
X000772Y002443D01*
X000850Y002468D01*
X000923Y002505D01*
X000989Y002553D01*
X001047Y002611D01*
X001095Y002677D01*
X001048Y002613D02*
X002745Y002613D01*
X002695Y002514D02*
X000935Y002514D01*
X000700Y002514D02*
X000600Y002514D01*
X000600Y002613D02*
X000700Y002613D01*
X000700Y002711D02*
X000600Y002711D01*
X000600Y002810D02*
X000700Y002810D01*
X000700Y002908D02*
X003165Y002908D01*
X003165Y002810D02*
X001151Y002810D01*
X001168Y003007D02*
X003165Y003007D01*
X003165Y003105D02*
X001146Y003105D01*
X001104Y003204D02*
X003165Y003204D01*
X003165Y003302D02*
X001033Y003302D01*
X000911Y003401D02*
X003165Y003401D01*
X003165Y003499D02*
X000868Y003499D01*
X001005Y003598D02*
X003165Y003598D01*
X003165Y003696D02*
X001086Y003696D01*
X001127Y003795D02*
X003165Y003795D01*
X003165Y003893D02*
X001150Y003893D01*
X001150Y003992D02*
X003165Y003992D01*
X003165Y004090D02*
X001133Y004090D01*
X001092Y004189D02*
X003165Y004189D01*
X003165Y004287D02*
X001020Y004287D01*
X000905Y004386D02*
X003165Y004386D01*
X003165Y004484D02*
X000832Y004484D01*
X000749Y004450D02*
X000551Y004450D01*
X000367Y004526D01*
X000300Y004593D01*
X000300Y004307D01*
X000367Y004374D01*
X000551Y004450D01*
X000749Y004450D01*
X000990Y004583D02*
X003165Y004583D01*
X003165Y004681D02*
X001080Y004681D01*
X001121Y004780D02*
X003165Y004780D01*
X003165Y004878D02*
X001150Y004878D01*
X001150Y004977D02*
X001669Y004977D01*
X001570Y005075D02*
X001139Y005075D01*
X001099Y005174D02*
X001472Y005174D01*
X001260Y005272D02*
X001035Y005272D01*
X000937Y005371D02*
X001202Y005371D01*
X001190Y005469D02*
X000795Y005469D01*
X000749Y005450D02*
X000551Y005450D01*
X000367Y005526D01*
X000300Y005593D01*
X000300Y005307D01*
X000367Y005374D01*
X000551Y005450D01*
X000749Y005450D01*
X000505Y005469D02*
X000300Y005469D01*
X000300Y005371D02*
X000363Y005371D01*
X000325Y005568D02*
X000300Y005568D01*
X000650Y005950D02*
X000800Y005800D01*
X002755Y005800D01*
X002952Y005800D02*
X002952Y005352D01*
X002750Y005150D01*
X001750Y005150D01*
X001450Y005450D01*
X001217Y005568D02*
X000975Y005568D01*
X000780Y005820D02*
X000650Y005950D01*
X000300Y006307D02*
X000300Y006593D01*
X000367Y006526D01*
X000551Y006450D01*
X000749Y006450D01*
X000933Y006526D01*
X001074Y006667D01*
X001150Y006851D01*
X001150Y006920D01*
X002566Y006920D01*
X002566Y006849D01*
X002642Y006773D01*
X002818Y006773D01*
X002835Y006763D01*
X002873Y006753D01*
X002952Y006753D01*
X002968Y006753D01*
X002968Y006127D01*
X002642Y006127D01*
X002566Y006051D01*
X002566Y005980D01*
X001150Y005980D01*
X001150Y006049D01*
X001074Y006233D01*
X000933Y006374D01*
X000749Y006450D01*
X000551Y006450D01*
X000367Y006374D01*
X000300Y006307D01*
X000300Y006356D02*
X000348Y006356D01*
X000300Y006454D02*
X000541Y006454D01*
X000340Y006553D02*
X000300Y006553D01*
X000650Y006950D02*
X000800Y007100D01*
X002755Y007100D01*
X002952Y007100D02*
X002952Y007100D01*
X002952Y006753D01*
X002952Y007100D01*
X002952Y007144D02*
X002952Y007144D01*
X002952Y007242D02*
X002952Y007242D01*
X002952Y007341D02*
X002952Y007341D01*
X002952Y007439D02*
X002952Y007439D01*
X002845Y007439D02*
X000776Y007439D01*
X000749Y007450D02*
X000551Y007450D01*
X000749Y007450D01*
X000551Y007450D02*
X000367Y007526D01*
X000300Y007593D01*
X000300Y007307D01*
X000367Y007374D01*
X000551Y007450D01*
X000524Y007439D02*
X000300Y007439D01*
X000300Y007341D02*
X000333Y007341D01*
X000355Y007538D02*
X000300Y007538D01*
X000780Y007080D02*
X000650Y006950D01*
X000960Y006553D02*
X002968Y006553D01*
X002968Y006651D02*
X001058Y006651D01*
X001108Y006750D02*
X002968Y006750D01*
X002952Y006848D02*
X002952Y006848D01*
X002952Y006947D02*
X002952Y006947D01*
X002952Y007045D02*
X002952Y007045D01*
X003148Y007100D02*
X003150Y006993D01*
X003148Y007100D02*
X003148Y007817D01*
X003115Y007850D01*
X003148Y007717D01*
X003115Y007850D02*
X003115Y008115D01*
X003250Y008250D01*
X005550Y008250D01*
X006050Y008750D01*
X006150Y008750D01*
X006650Y008250D01*
X007750Y008250D01*
X007950Y008050D01*
X007950Y007350D01*
X008130Y007538D02*
X009000Y007538D01*
X009000Y007636D02*
X008130Y007636D01*
X008130Y007735D02*
X009000Y007735D01*
X009000Y007833D02*
X008130Y007833D01*
X008130Y007932D02*
X009000Y007932D01*
X009000Y008030D02*
X008130Y008030D01*
X008126Y008129D02*
X009000Y008129D01*
X009000Y008227D02*
X008028Y008227D01*
X007929Y008326D02*
X009000Y008326D01*
X009000Y008424D02*
X007831Y008424D01*
X007787Y008730D02*
X008113Y008730D01*
X008414Y008855D01*
X008414Y008855D01*
X008645Y009086D01*
X008770Y009387D01*
X008770Y009587D01*
X008770Y009713D01*
X008770Y009713D01*
X008645Y010014D01*
X008645Y010014D01*
X008414Y010245D01*
X008113Y010370D01*
X007787Y010370D01*
X007486Y010245D01*
X007486Y010245D01*
X007255Y010014D01*
X007130Y009713D01*
X007130Y009387D01*
X007255Y009086D01*
X007255Y009086D01*
X007486Y008855D01*
X007787Y008730D01*
X007574Y008818D02*
X006830Y008818D01*
X006830Y008720D02*
X009000Y008720D01*
X009000Y008818D02*
X008326Y008818D01*
X008476Y008917D02*
X009000Y008917D01*
X009000Y009015D02*
X008575Y009015D01*
X008645Y009086D02*
X008645Y009086D01*
X008657Y009114D02*
X009000Y009114D01*
X009000Y009212D02*
X008698Y009212D01*
X008738Y009311D02*
X009000Y009311D01*
X009000Y009409D02*
X008770Y009409D01*
X008770Y009508D02*
X009000Y009508D01*
X009000Y009606D02*
X008770Y009606D01*
X008770Y009705D02*
X009000Y009705D01*
X009000Y009803D02*
X008733Y009803D01*
X008692Y009902D02*
X009000Y009902D01*
X009000Y010000D02*
X008651Y010000D01*
X008561Y010099D02*
X009000Y010099D01*
X009000Y010197D02*
X008463Y010197D01*
X008414Y010245D02*
X008414Y010245D01*
X008293Y010296D02*
X009000Y010296D01*
X009000Y010394D02*
X000300Y010394D01*
X000300Y010296D02*
X001007Y010296D01*
X000886Y010245D02*
X001187Y010370D01*
X001513Y010370D01*
X001814Y010245D01*
X001814Y010245D01*
X002045Y010014D01*
X002045Y010014D01*
X002170Y009713D01*
X002170Y009387D01*
X002045Y009086D01*
X002045Y009086D01*
X001814Y008855D01*
X001814Y008855D01*
X001513Y008730D01*
X001387Y008730D01*
X001187Y008730D01*
X000886Y008855D01*
X000886Y008855D01*
X000655Y009086D01*
X000655Y009086D01*
X000530Y009387D01*
X000530Y009713D01*
X000655Y010014D01*
X000655Y010014D01*
X000886Y010245D01*
X000886Y010245D01*
X000837Y010197D02*
X000300Y010197D01*
X000300Y010099D02*
X000739Y010099D01*
X000649Y010000D02*
X000300Y010000D01*
X000300Y009902D02*
X000608Y009902D01*
X000567Y009803D02*
X000300Y009803D01*
X000300Y009705D02*
X000530Y009705D01*
X000530Y009606D02*
X000300Y009606D01*
X000300Y009508D02*
X000530Y009508D01*
X000530Y009409D02*
X000300Y009409D01*
X000300Y009311D02*
X000562Y009311D01*
X000602Y009212D02*
X000300Y009212D01*
X000300Y009114D02*
X000643Y009114D01*
X000725Y009015D02*
X000300Y009015D01*
X000300Y008917D02*
X000824Y008917D01*
X000974Y008818D02*
X000300Y008818D01*
X000300Y008720D02*
X005370Y008720D01*
X005370Y008818D02*
X001726Y008818D01*
X001876Y008917D02*
X004329Y008917D01*
X004270Y009015D02*
X001975Y009015D01*
X002057Y009114D02*
X004270Y009114D01*
X004270Y009212D02*
X002098Y009212D01*
X002138Y009311D02*
X004270Y009311D01*
X004270Y009409D02*
X002170Y009409D01*
X002170Y009508D02*
X004270Y009508D01*
X004270Y009606D02*
X002170Y009606D01*
X002170Y009705D02*
X004270Y009705D01*
X004348Y009803D02*
X002133Y009803D01*
X002092Y009902D02*
X007208Y009902D01*
X007249Y010000D02*
X002051Y010000D01*
X001961Y010099D02*
X007339Y010099D01*
X007255Y010014D02*
X007255Y010014D01*
X007167Y009803D02*
X006752Y009803D01*
X006830Y009705D02*
X007130Y009705D01*
X007130Y009606D02*
X006830Y009606D01*
X006830Y009508D02*
X007130Y009508D01*
X007130Y009409D02*
X006830Y009409D01*
X006830Y009311D02*
X007162Y009311D01*
X007202Y009212D02*
X006830Y009212D01*
X006830Y009114D02*
X007243Y009114D01*
X007325Y009015D02*
X006830Y009015D01*
X006830Y008917D02*
X007424Y008917D01*
X007486Y008855D02*
X007486Y008855D01*
X006830Y008621D02*
X009000Y008621D01*
X009000Y008523D02*
X006830Y008523D01*
X006650Y008523D02*
X005550Y008523D01*
X005550Y008450D02*
X005550Y009050D01*
X004450Y009050D01*
X004450Y009650D01*
X006650Y009650D01*
X006650Y008450D01*
X005550Y008450D01*
X005550Y008621D02*
X006650Y008621D01*
X006650Y008720D02*
X005550Y008720D01*
X005550Y008818D02*
X006650Y008818D01*
X006650Y008917D02*
X005550Y008917D01*
X005550Y009015D02*
X006650Y009015D01*
X006650Y009114D02*
X004450Y009114D01*
X004450Y009212D02*
X006650Y009212D01*
X006650Y009311D02*
X004450Y009311D01*
X004450Y009409D02*
X006650Y009409D01*
X006650Y009508D02*
X004450Y009508D01*
X004450Y009606D02*
X006650Y009606D01*
X007437Y010197D02*
X001863Y010197D01*
X001693Y010296D02*
X007607Y010296D01*
X009000Y010493D02*
X000300Y010493D01*
X000300Y010591D02*
X009000Y010591D01*
X006517Y008129D02*
X005683Y008129D01*
X005782Y008227D02*
X006418Y008227D01*
X005370Y008523D02*
X000300Y008523D01*
X000300Y008621D02*
X005370Y008621D01*
X004633Y007735D02*
X007770Y007735D01*
X007770Y007833D02*
X003833Y007833D01*
X003833Y007802D02*
X004151Y007802D01*
X004151Y007633D01*
X004141Y007595D01*
X004121Y007561D01*
X004093Y007533D01*
X004059Y007513D01*
X004021Y007503D01*
X003833Y007503D01*
X003833Y007802D01*
X003833Y007735D02*
X003736Y007735D01*
X003736Y007636D02*
X003833Y007636D01*
X003833Y007538D02*
X003736Y007538D01*
X003472Y007538D02*
X003400Y007538D01*
X003328Y007439D02*
X004184Y007439D01*
X004190Y007538D02*
X004098Y007538D01*
X004151Y007636D02*
X004204Y007636D01*
X004151Y007735D02*
X004267Y007735D01*
X004450Y007550D02*
X004450Y007450D01*
X004350Y007350D01*
X004100Y007100D01*
X003345Y007100D01*
X003148Y007100D02*
X003148Y005910D01*
X003150Y005910D01*
X003148Y005800D01*
X003345Y005800D02*
X003500Y005800D01*
X003850Y006150D01*
X003850Y006450D01*
X004017Y006651D02*
X004170Y006651D01*
X004170Y006553D02*
X004089Y006553D01*
X004110Y006454D02*
X004170Y006454D01*
X004170Y006356D02*
X004092Y006356D01*
X004030Y006257D02*
X004170Y006257D01*
X004170Y006159D02*
X004030Y006159D01*
X004015Y006060D02*
X004170Y006060D01*
X004107Y005962D02*
X003916Y005962D01*
X004008Y005863D02*
X003818Y005863D01*
X003910Y005765D02*
X003719Y005765D01*
X003621Y005666D02*
X003870Y005666D01*
X003870Y005568D02*
X003534Y005568D01*
X003525Y005469D02*
X003870Y005469D01*
X003870Y005371D02*
X003525Y005371D01*
X003525Y005272D02*
X003870Y005272D01*
X003870Y005174D02*
X003525Y005174D01*
X003525Y005075D02*
X003870Y005075D01*
X003870Y004977D02*
X003525Y004977D01*
X003525Y004878D02*
X003870Y004878D01*
X003870Y004780D02*
X003525Y004780D01*
X003525Y004681D02*
X003870Y004681D01*
X003870Y004583D02*
X003525Y004583D01*
X003525Y004484D02*
X003870Y004484D01*
X003870Y004386D02*
X003525Y004386D01*
X003525Y004287D02*
X003870Y004287D01*
X003870Y004189D02*
X003525Y004189D01*
X003525Y004090D02*
X003870Y004090D01*
X003870Y003992D02*
X003525Y003992D01*
X003525Y003893D02*
X003870Y003893D01*
X003870Y003795D02*
X003525Y003795D01*
X003525Y003696D02*
X003870Y003696D01*
X003870Y003598D02*
X003525Y003598D01*
X003525Y003499D02*
X003870Y003499D01*
X003870Y003401D02*
X003525Y003401D01*
X003525Y003302D02*
X003870Y003302D01*
X003870Y003204D02*
X003525Y003204D01*
X003525Y003105D02*
X003870Y003105D01*
X003870Y003007D02*
X003525Y003007D01*
X003525Y002908D02*
X003870Y002908D01*
X003870Y002810D02*
X003525Y002810D01*
X003525Y002711D02*
X003870Y002711D01*
X003870Y002613D02*
X003525Y002613D01*
X003525Y002514D02*
X003870Y002514D01*
X003870Y002416D02*
X003525Y002416D01*
X003525Y002317D02*
X003870Y002317D01*
X003870Y002219D02*
X003525Y002219D01*
X003525Y002120D02*
X003870Y002120D01*
X003870Y002022D02*
X003525Y002022D01*
X003525Y001923D02*
X003870Y001923D01*
X003870Y001825D02*
X003525Y001825D01*
X003525Y001726D02*
X003858Y001726D01*
X003801Y001628D02*
X003525Y001628D01*
X003525Y001529D02*
X003790Y001529D01*
X003818Y001431D02*
X003525Y001431D01*
X003365Y001335D02*
X003550Y001150D01*
X003345Y001355D01*
X003345Y005800D01*
X003328Y006159D02*
X003604Y006159D01*
X003670Y006257D02*
X003328Y006257D01*
X003328Y006356D02*
X003608Y006356D01*
X003590Y006454D02*
X003328Y006454D01*
X003328Y006553D02*
X003611Y006553D01*
X003683Y006651D02*
X003328Y006651D01*
X003328Y006750D02*
X004170Y006750D01*
X004170Y006848D02*
X003533Y006848D01*
X003534Y007341D02*
X004086Y007341D01*
X004350Y007350D02*
X004350Y005950D01*
X004050Y005650D01*
X004050Y001550D01*
X003900Y001332D02*
X003736Y001332D01*
X003290Y001135D02*
X002930Y001135D01*
X002930Y001037D02*
X003316Y001037D01*
X003394Y000938D02*
X002930Y000938D01*
X003015Y000840D02*
X003872Y000840D01*
X003887Y000446D02*
X000300Y000446D01*
X000300Y000544D02*
X001153Y000544D01*
X001187Y000530D02*
X001313Y000530D01*
X001513Y000530D01*
X001814Y000655D01*
X001814Y000655D01*
X002045Y000886D01*
X002170Y001187D01*
X002170Y001513D01*
X002045Y001814D01*
X001814Y002045D01*
X001513Y002170D01*
X001187Y002170D01*
X000886Y002045D01*
X000886Y002045D01*
X000655Y001814D01*
X000530Y001513D01*
X000530Y001187D01*
X000655Y000886D01*
X000655Y000886D01*
X000886Y000655D01*
X001187Y000530D01*
X000915Y000643D02*
X000300Y000643D01*
X000300Y000741D02*
X000799Y000741D01*
X000886Y000655D02*
X000886Y000655D01*
X000701Y000840D02*
X000300Y000840D01*
X000300Y000938D02*
X000633Y000938D01*
X000592Y001037D02*
X000300Y001037D01*
X000300Y001135D02*
X000551Y001135D01*
X000530Y001234D02*
X000300Y001234D01*
X000300Y001332D02*
X000530Y001332D01*
X000530Y001431D02*
X000300Y001431D01*
X000300Y001529D02*
X000537Y001529D01*
X000577Y001628D02*
X000300Y001628D01*
X000300Y001726D02*
X000618Y001726D01*
X000655Y001814D02*
X000655Y001814D01*
X000665Y001825D02*
X000300Y001825D01*
X000300Y001923D02*
X000763Y001923D01*
X000862Y002022D02*
X000300Y002022D01*
X000300Y002120D02*
X001066Y002120D01*
X001634Y002120D02*
X002570Y002120D01*
X002570Y002022D02*
X001838Y002022D01*
X001814Y002045D02*
X001814Y002045D01*
X001937Y001923D02*
X002570Y001923D01*
X002570Y001825D02*
X002035Y001825D01*
X002082Y001726D02*
X002570Y001726D01*
X002570Y001628D02*
X002123Y001628D01*
X002163Y001529D02*
X002570Y001529D01*
X002570Y001431D02*
X002170Y001431D01*
X002170Y001513D02*
X002170Y001513D01*
X002170Y001332D02*
X002570Y001332D01*
X002570Y001234D02*
X002170Y001234D01*
X002149Y001135D02*
X002570Y001135D01*
X002570Y001037D02*
X002108Y001037D01*
X002067Y000938D02*
X002570Y000938D01*
X002570Y000840D02*
X001999Y000840D01*
X002045Y000886D02*
X002045Y000886D01*
X001901Y000741D02*
X002604Y000741D01*
X002703Y000643D02*
X001785Y000643D01*
X001547Y000544D02*
X002801Y000544D01*
X002930Y001234D02*
X003212Y001234D01*
X003165Y001332D02*
X002930Y001332D01*
X002930Y001431D02*
X003165Y001431D01*
X003165Y001529D02*
X002930Y001529D01*
X002930Y001628D02*
X003165Y001628D01*
X003165Y001726D02*
X002930Y001726D01*
X002930Y001825D02*
X003165Y001825D01*
X003165Y001923D02*
X002930Y001923D01*
X002930Y002022D02*
X003165Y002022D01*
X003165Y002120D02*
X002930Y002120D01*
X003071Y002219D02*
X003165Y002219D01*
X002661Y002416D02*
X000300Y002416D01*
X000300Y002514D02*
X000365Y002514D01*
X000300Y002317D02*
X002570Y002317D01*
X002570Y002219D02*
X000300Y002219D01*
X000300Y000347D02*
X009000Y000347D01*
X009000Y000643D02*
X008385Y000643D01*
X008501Y000741D02*
X009000Y000741D01*
X009000Y000840D02*
X008599Y000840D01*
X008645Y000886D02*
X008645Y000886D01*
X008667Y000938D02*
X009000Y000938D01*
X009000Y001037D02*
X008708Y001037D01*
X008749Y001135D02*
X009000Y001135D01*
X009000Y001234D02*
X008770Y001234D01*
X008770Y001332D02*
X009000Y001332D01*
X009000Y001431D02*
X008770Y001431D01*
X008763Y001529D02*
X009000Y001529D01*
X009000Y001628D02*
X008723Y001628D01*
X008682Y001726D02*
X009000Y001726D01*
X009000Y001825D02*
X008635Y001825D01*
X008537Y001923D02*
X009000Y001923D01*
X009000Y002022D02*
X008438Y002022D01*
X008414Y002045D02*
X008414Y002045D01*
X008234Y002120D02*
X009000Y002120D01*
X009000Y004386D02*
X006551Y004386D01*
X006547Y004484D02*
X006548Y004484D01*
X006497Y004583D02*
X006466Y004583D01*
X006750Y004650D02*
X006350Y005050D01*
X005150Y005050D01*
X004550Y004450D01*
X004550Y004050D01*
X004339Y003893D02*
X004230Y003893D01*
X004230Y003992D02*
X004293Y003992D01*
X004290Y004090D02*
X004230Y004090D01*
X004230Y004189D02*
X004326Y004189D01*
X004370Y004287D02*
X004230Y004287D01*
X004230Y004386D02*
X004370Y004386D01*
X004370Y004484D02*
X004230Y004484D01*
X004230Y004583D02*
X004428Y004583D01*
X004526Y004681D02*
X004230Y004681D01*
X004230Y004780D02*
X004353Y004780D01*
X004298Y004878D02*
X004230Y004878D01*
X004230Y004977D02*
X004290Y004977D01*
X004320Y005075D02*
X004230Y005075D01*
X004230Y005174D02*
X004410Y005174D01*
X004230Y005272D02*
X004617Y005272D01*
X004716Y005371D02*
X004230Y005371D01*
X004230Y005469D02*
X004814Y005469D01*
X004950Y005350D02*
X004550Y004950D01*
X004950Y005350D02*
X006750Y005350D01*
X006941Y005174D02*
X009000Y005174D01*
X009000Y005272D02*
X006999Y005272D01*
X007010Y005371D02*
X009000Y005371D01*
X009000Y005469D02*
X006982Y005469D01*
X006900Y005568D02*
X009000Y005568D01*
X009000Y005666D02*
X004321Y005666D01*
X004230Y005568D02*
X006600Y005568D01*
X006580Y005075D02*
X009000Y005075D01*
X009000Y004977D02*
X006678Y004977D01*
X006879Y004878D02*
X009000Y004878D01*
X009000Y004780D02*
X006978Y004780D01*
X007010Y004681D02*
X009000Y004681D01*
X009000Y004583D02*
X007003Y004583D01*
X006952Y004484D02*
X009000Y004484D01*
X009000Y005765D02*
X004419Y005765D01*
X004518Y005863D02*
X009000Y005863D01*
X009000Y005962D02*
X004530Y005962D01*
X004530Y006060D02*
X009000Y006060D01*
X009000Y006159D02*
X004530Y006159D01*
X004530Y006257D02*
X009000Y006257D01*
X009000Y006356D02*
X004530Y006356D01*
X004530Y006454D02*
X009000Y006454D01*
X009000Y006553D02*
X004530Y006553D01*
X004530Y006651D02*
X009000Y006651D01*
X009000Y006750D02*
X004530Y006750D01*
X004530Y006848D02*
X009000Y006848D01*
X009000Y006947D02*
X004530Y006947D01*
X004530Y007045D02*
X009000Y007045D01*
X009000Y007144D02*
X008111Y007144D01*
X008187Y007242D02*
X009000Y007242D01*
X009000Y007341D02*
X008210Y007341D01*
X008195Y007439D02*
X009000Y007439D01*
X007770Y007538D02*
X004710Y007538D01*
X004696Y007636D02*
X007770Y007636D01*
X007705Y007439D02*
X004685Y007439D01*
X004608Y007341D02*
X007690Y007341D01*
X007713Y007242D02*
X004530Y007242D01*
X004530Y007144D02*
X007789Y007144D01*
X007770Y007932D02*
X004151Y007932D01*
X004151Y008030D02*
X007715Y008030D01*
X006233Y004189D02*
X006136Y004189D01*
X006136Y004090D02*
X006233Y004090D01*
X006233Y003992D02*
X006136Y003992D01*
X005694Y003696D02*
X005406Y003696D01*
X005444Y003598D02*
X005656Y003598D01*
X005656Y003499D02*
X005444Y003499D01*
X005444Y003401D02*
X005656Y003401D01*
X005656Y003302D02*
X005444Y003302D01*
X005444Y003204D02*
X005656Y003204D01*
X005656Y003105D02*
X005444Y003105D01*
X005444Y003007D02*
X005656Y003007D01*
X005656Y002908D02*
X005444Y002908D01*
X005411Y002810D02*
X005689Y002810D01*
X005727Y002514D02*
X006340Y002514D01*
X006340Y002416D02*
X005750Y002416D01*
X005750Y002317D02*
X006340Y002317D01*
X006297Y002219D02*
X005750Y002219D01*
X005750Y002120D02*
X006290Y002120D01*
X006322Y002022D02*
X005750Y002022D01*
X005750Y001923D02*
X006419Y001923D01*
X003165Y004977D02*
X002831Y004977D01*
X002930Y005075D02*
X003165Y005075D01*
X003165Y005174D02*
X003028Y005174D01*
X003127Y005272D02*
X003165Y005272D01*
X003165Y005371D02*
X003132Y005371D01*
X003132Y005469D02*
X003165Y005469D01*
X002575Y006060D02*
X001146Y006060D01*
X001105Y006159D02*
X002968Y006159D01*
X002968Y006257D02*
X001050Y006257D01*
X000952Y006356D02*
X002968Y006356D01*
X002968Y006454D02*
X000759Y006454D01*
X001149Y006848D02*
X002567Y006848D01*
X002566Y007341D02*
X000967Y007341D01*
X000945Y007538D02*
X002831Y007538D01*
X002769Y007636D02*
X001043Y007636D01*
X001102Y007735D02*
X002769Y007735D01*
X002769Y007833D02*
X001143Y007833D01*
X001150Y007932D02*
X002769Y007932D01*
X002769Y008030D02*
X001150Y008030D01*
X001117Y008129D02*
X002797Y008129D01*
X002972Y008227D02*
X001076Y008227D01*
X000982Y008326D02*
X003071Y008326D01*
X003169Y008424D02*
X000812Y008424D01*
X000488Y008424D02*
X000300Y008424D01*
X000300Y008326D02*
X000318Y008326D01*
X001513Y008730D02*
X001513Y008730D01*
X000310Y004583D02*
X000300Y004583D01*
X000300Y004484D02*
X000468Y004484D01*
X000395Y004386D02*
X000300Y004386D01*
D17*
X004350Y003050D02*
X004350Y002850D01*
X004350Y003050D02*
X004550Y003250D01*
X004999Y003250D01*
X006101Y003250D02*
X006550Y002801D01*
X006550Y002150D01*
M02*
